<mxfile host="65bd71144e" compressed="true">
    <diagram id="W86VsvGAwGps79trbfbv" name="TaskCenter">
        <mxGraphModel dx="2206" dy="1498" grid="1" gridSize="10" guides="1" tooltips="1" connect="1" arrows="1" fold="1" page="1" pageScale="1" pageWidth="1169" pageHeight="827" background="#ffffff" math="0" shadow="0">
            <root>
                <mxCell id="0"/>
                <mxCell id="1" parent="0"/>
                <mxCell id="VYL1K3xwnHBBIEN77Z_S-30" value="&lt;p style=&quot;margin-top: 6pt ; margin-bottom: 0pt ; margin-left: 0in ; direction: ltr ; unicode-bidi: embed ; vertical-align: baseline ; word-break: normal ; font-size: 14px&quot;&gt;&lt;br&gt;&lt;/p&gt;" style="rounded=0;whiteSpace=wrap;html=1;align=left;fontStyle=1;verticalAlign=top;strokeColor=#0A6ED1;fillColor=none;strokeWidth=2;fontSize=14;fontFamily=Arial;container=1;recursiveResize=0;collapsible=0;fontColor=#595959;" parent="1" vertex="1">
                    <mxGeometry x="140" y="-40" width="604.99" height="460" as="geometry"/>
                </mxCell>
                <mxCell id="VYL1K3xwnHBBIEN77Z_S-31" value="&lt;p style=&quot;margin-top: 0pt; margin-bottom: 0pt; margin-left: 0in; direction: ltr; unicode-bidi: embed; word-break: normal; font-size: 14px;&quot;&gt;&lt;b style=&quot;font-size: 14px;&quot;&gt;Subaccount&lt;/b&gt;&lt;/p&gt;" style="rounded=0;whiteSpace=wrap;html=1;strokeColor=#074D92;strokeWidth=2;fillColor=none;align=left;verticalAlign=top;fontSize=14;fontFamily=Arial;container=1;recursiveResize=0;collapsible=0;fontColor=#053B70;spacingLeft=7;" parent="VYL1K3xwnHBBIEN77Z_S-30" vertex="1">
                    <mxGeometry x="12" y="80" width="580.99" height="200" as="geometry"/>
                </mxCell>
                <mxCell id="VYL1K3xwnHBBIEN77Z_S-32" style="edgeStyle=none;rounded=0;orthogonalLoop=1;jettySize=auto;html=1;entryX=0;entryY=0.5;entryDx=0;entryDy=0;dashed=1;startArrow=classic;startFill=1;endArrow=classic;endFill=1;strokeColor=#C0399F;strokeWidth=1;fontSize=16;" parent="VYL1K3xwnHBBIEN77Z_S-31" edge="1">
                    <mxGeometry relative="1" as="geometry">
                        <mxPoint x="377" y="77" as="sourcePoint"/>
                        <mxPoint x="377" y="77" as="targetPoint"/>
                    </mxGeometry>
                </mxCell>
                <mxCell id="VYL1K3xwnHBBIEN77Z_S-33" value="" style="shape=image;aspect=fixed;image=data:image/png,iVBORw0KGgoAAAANSUhEUgAAAdMAAAHTCAYAAAB8/vKtAAAACXBIWXMAAFxGAABcRgEUlENBAAAgAElEQVR4nO3dMXIbSZbG8eREG/CoG4jrySPXV4TYFwCxJxB1AEiUIVtsW0ZDxAFEnmBBXGCICPlNevKGPMEKHjxsZPerVokNkgDqZebLzP8vQtEzu9NQsUjWVy/zZebOcrl0AABge//i3gEA0A1hCgBAR4QpAAAdEaYAAHREmAIA0BFhCgBAR4QpAAAdEaYAAHREmAIA0BFhCgBAR4QpAAAdEaYAAHREmAIA0BFhCgBAR4QpAAAdEaYAAHREmAIA0BFhCgBAR4QpAAAdEaYAAHREmAIA0BFhCgBAR4QpAAAdEaYAAHREmAIA0BFhCgBAR4QpAAAdEaYAAHREmAIA0BFhCgBAR4QpAAAdEaYAAHT0CzcQiK/XHx+u+EufOecONriY78656xX/99vFdHjLtxWIZ2e5XHK7gY56/fGBhOGe/HESjM9a/3k30X2+keB1Er7f20G8mA6vEl0XUAzCFFiTVJNNWB60KslUIaltJp931QpbqlxgDYQpcI+E5kErNEsKzG35oL2VPz5srxfT4fcwfxWQH8IUVWsFZ/Nnv/Z7soG5VK9X8s9rqljUijBFNXr9sa80m/A8JDiDuGsF7NViOlzVIAUUhzBFsVrh2fx5znc7iVkrXGl2QpEIUxSj1x/7hqAB4WneJZUrSkOYImuyJGUgfxi2zc+dBOtkMR1Oar8ZyBdhiuz0+uNBqwKl+iyLr1onEq50CyMbhCmy0ArQActUquE3mziXYKVLGKYRpjCLAEWLD9YRFSusIkxhisyBnhCgeMSlhOo5NwlWEKZITpawDCREmQPFuuYyvzqiKxipEaZIRoZxj51zR3wX0NGdDAOfMwyMFAhTRCVV6LH8oQpFCBcSqmwQgWgIU0Qhe+D6AH3NHUckNzIEzNwqgiNMEVSvPz6WuVA2VPihfb5oo0sV1T5DtfGq2yUWZS5DwCOGgBEKYQp1sq3fSYVDue3zQF3ryLKkB3C3Di53stGFa53HulfZ98gPAZ+ybhXaCFOoaYXoScHLWtrnevoO0u8lzM21Avewdeh5yee4XkqlyrwqVBCm6Eyaik4Lmw9tjhJrjhO7rbGakRek9nmve4UNIc+kUiVU0Qlhiq0VFKLz1gHXV3LINXNrj5BK9rCgQ9UJVXRCmGJjBYRoc1JJcwwY82cdSQXbPjs213AlVLEVwhRry3hOtNkph/CMpIBwJVSxEcIUT8o0RGdNgLLVXHoymnHYOjovl58jun+xFsIUj5J1oqcZLJ9oV5+cLGKcbOLRnAiUw9KczxKq/FxhJcIUK8nDbmR8eG7eOkh6YuB6sAVpZjrOIFjnEqgjA9cCYwhT/ESG40aGN58nQAuWSbD6BrZj5lPRRpjiT6150Y9G78hlK0QZaqtABmfbziRUmU8FYYq/j0IbGawEmmO1Jjyw6iZz9wOjIya/LabDUwPXgYQI04oZHtLlCC2sZPgIP4Z+K0eYVqrXH59Il66V4TMOd8ZGpFo9Nra94aWEKj/DlSFMKyPzUCNDD6CZbDhOMxG2YnBHrrkEKj/TFSFMK9Lrj08NNRhdSIiyoQJUGNxchAalihCmFZBq9NzAmtG5XMeIBwxCMrTZCGtTK0GYFs5INTqXoeURc0mIyVCoMpdaOMK0UDKPdJ54bpQQhQlGQpW51IIRpgWSB8co4bwRIQqTjIQq+/wWiDAtiDRgnCdcN0qIIgsGQvVGqlQa8ApBmBZCmowmCR8OHFWF7BhYb/2e5qQyEKYFkAfC74m+Etr/kTUDS2poTioAYZqxxMO6bJ+GoiTe/MH/Pg0Y9s0XYZqphMO6rJtD0RKf5ftmMR2e8xOWH8I0Qwm7df286AnDUahBwvlUfs8yRJhmptcf+xB9F/mqb+SXmyFdVEWmUkYJhn7979whgZoPwjQT8ks9ibwJw1yWuXBWI6omQ7/nkadV5hKozKNmgDDNQKK9denSBe5JtD0n86gZIEyNkzfiScR5GxqMgEckern9vJgOT/i+2EWYGiaNRl8iXiHVKLCmBFUq61ENI0yN6vXH5xGbHqhGgS0kqFJpTDKKMDUmQfcg1SjQUeQuezZ4MIgwNUSC9CriW+5vdOoCOiL3N9Dpa8y/ar8BVkQOUv9m+98EKaBH1mHvydxmaD6wr6SvAgZQmRoQeWtAmhiAwCIfPsHSGQMI08QkSK8iDQ1x3BMQSeSXZAI1MYZ5E4oYpM2wLkEKRCLzmQeRhn2/yFIdJEJlmkjEIJ1J5x/DukAiEdekXiymQ+ZREyBME4gYpOyaAhgRsduXQE2AYd7IpPvuj8C/UHOZQyFIASOk2/dQNl4I6bVs+oKIqEwjirQ9IOvPAMNkGZwPu6PAV0mFGhFhGokM7f4R+G9jqzEgE5F2TSJQI2GYN4LWHGlIFwQpkA+ZhnkT+IIZ8o2EyjSwSM1GvH0CmYrUmEQzYmCEaUCRgpTF2kDmeFbkj2HeQPjlALCu1gYPITt9v7CXbzhUpgFIt951wG3E6NgFChTpwAtewgMgTJVF+GUgSIGCyTPEz6G+CvhV/jfPEF2EqSKCFIAW6cJ9HeiG8ixRxpyprlHAIPVzKQf88AN1kA79i0BfbHMe6jN+nHQQpkoCv0U2mzHcRv/CACRDoOaDMFUgHXKhg5TNGIAKBQ7UfZmfRUeEaUey4DrUfrsEKYDQgfqKXZK6I0w7aJ2kHwJBCuBvgQPVbzvIDkkd0M27pcCduwQpgJUC92f8KkfFYUNUptubBApS37I+IEgBrBK4Qp3IiBs2RJhuQY5OCrGgek7XLoCnSKBeBrhRvsP3nA7fzRGmG5LO3RBnELKIGsAmjgPt5bsvh5djA4TpBmT4YxTo4wlSAGuTqaDDQIF61OuPT/lurI8GpDUF3ryejacBbCXws4mGpDVRma7vnCAFYI1UqAOZKtI2Yf50PYTpGmT91VGAj74gSAF0JVNEhwFu5C47JK2HMH2CzJP+HuCjL6QjDwA6k0B9E+BOvmL+9GmE6SNa5wpq8w0D7DYCQJWMdP0W4K5+lK1T8QDC9HEh5knn7G4EIJTFdHgaaFMH5k8fQZg+QNaTas+TEqQAYjgJsGRml/WnD2NpzAq9/nhPWs13lT+azl0AUUgVeRvgOfZ+MR2GWm+fLSrT1c4D/AB+JkgBxNLa1EHbqRQcaCFM75GuNe19d2eL6ZCGIwBRBerwZbnMCoRpiyyD+aj8sXeyoBoAopMRMe2GpH2Wy/yMMP1ZiGFYjlMDkFqIhqSPHNf2A2Eq5C1L+3zS92xeDyA1eaE/DrDlIH0ggjANN7x7SccbACvkxV67d4PhXkGY/kU79O7kLRAAzAg0f+qHe6vv7q0+TGUTe+3uXeZJAVgVYv60+uHeqsNU3qa0hyh+Y54UgFWt+VNNr6QwqVbtlelIeXOGmeyLCQBmyQv/e+XrO615795qw7TXHw+U996dM08KIBfSIDlTvNzdAP0n2agyTOXtSfubfrqYDm+VPxMAQtJeLvO61qPaaq1MT5SPVpuxDAZAbqQA0J6aqvJZWF2YStOR5ppShncBZCvAcO9+jc1INVamDO8CwM+0h3ura0aqKkxlLF+z6YjhXQDZCzDcuxtg+Ni02ipTzeBjeBdAMQIM976raWekasK01x8fK29kP2J4F0BhtAuEanZG2lkulwYuIywZu79W7OC9WUyHHD0EoDiycb1mk+avi+nwqvSflFoqU+2lMFVvmwWgXLKL253iF1hFX0nxYSpVqWb4XdTwlgWgaprDvfsyzVa0GirTE8X9d+dUpQBKJwXDpeKXWXxnb9FhKp1kmuF3ytFqACpxorj29Hnp1WnplempYlV6x5pSALWQ1Qqaz7yiq9Niw1Sq0teKH8maUgC1GSk2IxVdnZZcmWq+Bc1oOgJQG5nW0nyWFludFhmmVKUAoGMxHfqNF26UPq7Y6rTUylTz7eeCnY4AVE61kbPEW1ncDkiyrvT/lD7Od7Id1BimOy8/DJxz/mAAv9PTnvKmF0BO5rKDmh/y9NM9k+XXT9U9E3r9sf/aXyl93BupeIvxS0lfjNB8g6pu/92dlx9OZVib8AT+stsKEX/q1O87Lz/4DeFPl18/1dRL4Z8N/1b8rKLCtKjKVKrSW6XlMP5tdK+WdaU7Lz/4CnRCiAIb+SyhWsVzotcfnyv2oxRVnZY2Z6q529GooiD1legfBCmwsXd+6Hfn5YdaDsLWnO8sqhGptDDV+ubMa9mcWYL0i4FLAXK1X0ugyrTXhdLHver1x4dKn5VcMWEq7dZalVUVVakM7RKkQHf7FZ3dqVmdFrPXeUmVqdY3pYqqVN6iJwYuBSjFkXTBF025Oj2SfQGyV0SYylDBvtLH1TJXqn3GK4BKpoeoTv+plMqUudLNsasToO95RdWp1hFtx7ISI2vZh6ny1oHnFc2VUpUCYRQfpkKr8Ngt4Z6VUJlqVli1VKW1/LIDKRzUcNfl8I+Z0sdlv8UgYfpDTXvwVvHLDiSi1b+RA60C5Hnuy2SyDtNefzzQXA6j9Dk5qGWBOYCAFtPhRPG806z7OHLfm1fr5vvzSq+VPqtkWkM6QC4OttlVbeflh72KNsP3Q7Qa69Vf9/rjk1z7VrINU2k8OlL6uJqq0q0tv34qZrcSYB07Lz9sdVJKZafK+Op0pLSV63Guz+Och3m1mmjuZKgCALAhqSS1dn/Kdqg35zDVWuhLVQoA3Wg9R/d7/XGWDZJZhqncbK3Go1r20wSAIGQlhFZPRZbVaa6VqVZVelHLMWsAEJhWdZrlOvhcw1TrZlOVAoACxWUyz2XZY1ayC1O5yRpdY3eygwcAQIdWMydhGoHWTabxCAB0VTvUW3OYshwGABQpNiLt5jbUm1WYKg7xXla0Dy8AxKTVi0KYBkRVCgC2VTlvWmOYzglTAAhDlhteKHx4VkO92YSp4hDvhLWlABBUddVpThvdM8SbsZ23357JziYcTP6Dn7c/X5696LxEi/u7kj8JaqJxf7EZv+a01x/PFQogwjQAjRNL5mxqH9/O229++8crpZGFkvjTSF7vvP32eXn2Yutdvbi/D/L3913X+4ut+Wft6463zw/1HuawJ0AWw7yKe/ESpJFJxcSD/nH+gb/VfqTc37X4+0vFHl9VQ725zJkyxJsvrbnu0m1bOXF/15Pt0V65klHAucLlZ3GOck1hyhBvGhwovp79Lf+9LI+rSuCouq/YBo1nrj+Wbc/6F2o+THv98bMOD5o2gjQN878EmSNMYZnWc9f8S3kOlanWEC8dfQAQl9Zz1/y8aQ5hqvVGQmUKABHJmv5Lhb+RylSBxk2csVEDACShUZ3uyqoOs0yHqUw6syQGAPJVxRIZ65WpVmnPfCkAJCAndN0p/M2mh3prCFO/JOZa4XMAANvRqE5fWb73NYQpQ7wAkJbK6KDfWtDq99FsmCrOlzLECwBpaT2HCdMtMF8KAAWQ1RQ3Cl+J2Y5ey2GqcdPuZPIbAJCWRmFDZboFjZtGVQoANmitNzW5RanlMNXYj5cwBQAbip43NRmmih1bhCkAGFD6vKnVylTjZs2ZLwUAUzQKHMJ0A8yXAkB5NDbQMbl5g9Uw1ZhgZtcjALBFa/MGc9Wp1TCl+QgACiNTb3OFr4owfYpi8xGVKWrAS+N6NB7g0KHxbDa3PMZiZaq1WQPnl6IGhOl62KPbjiI3b7AYpsyXAmtanr3wD6YZ9+tRvio9NXx9tdF4PjPMuwaNm0SYoib+0ORLvuMr+XM0D5dnL1gmZ4fG98LvhPTM0hf1i4FruE8jTBn6QjWWZy/8lMZg5+23PQlWUw+ZhK6kcoch/nzpXn+scUEHlp71FsN0V+EzeAtFdaT6GvGdRwZmCutFTYWpqWFerU5edj4CANM0ntGmRmCszZlqNB/RjAEAtmmEqamO3hLDlKoUAGzTGJ6lMn2ERvMRYQoAtmnsA6CxU54aa2Gq8abBshgAMMx39GpcnaWDwkusTNn5CADsu1O4QsL0AZ2XxSymQ9aVAYB9GlNyhOl9Fo/UAQAEU9SG95YqU435UpbFAEAeNKbkzHT0WgpTc0fqAACCKWrD+9LClPlSAMhDUc2iFvfmBbCBnbffnkV+Q7/tcgpLbteLYDS+J2YqU0thyoYNwIZ23n47lIOvNQ6IWNvO22/vl2cvNt5Uf+ftt2Zz8tjX+3l59uIk5t+Jx/k91BVOj4n6c/SY0hqQCFPU5iTRA2Xbw7YHia73XYK/ExWxeDg4gPWl6mY0UxEgazddL17rtLGuLIVp52FeNmwAgKwU04RkKUx50wUAZIlhXgBAKsXsglRSmHYeewcARKUxzEuYNpQmkDktBgCQBMO8AAB0RJgCAFJROSTcAsIUAJCKxvSciS0FSwpT1pgCQH1MHMNmJUzNnEkHAMCmrISpmZ3/AQDYFHOmAAB0RJgCANARYQoAQEeEKQAAHRGmAAB0RJgCANARYQoAQEeEKQAAHRGmCI2j8QAUjzBFaMWcChHYXdFfHVA4K2FK9VKu89pvwJq4T0DGrIQp1Uuhlmcvbp1zv9V+H55w45wbbfnv3ka7yp/NE/29gEklDfPuGbgGrLA8e3HqnPsfCQ38cCcvGofLsxfbjs6MEgXbyZb/3nmiIW1e6BDULwXdXsLUsOXZi4lzblL7fdC2PHtxndMRhjJSwe8qNJk4y5oGJABAKsUcv0mYAgBSyWZU5SlWwjRVEwUAAJ2ZCNPFdKgRpq8UPgMAkBcTSysZ5gUApKIxZ2piaSVhCgBIhTnTADqvQez1x8V0hgEA8mEpTDXGvYt5ywGACjDMCwBAR7tdP2AxHdKAdI/G28Wh6hUBAILo9cdFjSSWNswLAMiDxhDvzMpXWlqY0oAEAIjO0kb3GsO8NCAZtPP223Hkzc39i9n5tiexJLheb5TR9VZ1fxGMxrScmd3zSjo1xnEahT07b7/5o7p+T3Bh/hd1sOm/JA/6L2Eu6VGH2zxcEt7fwZbXm+r+Dhi5KpKZMDUzzLuYDjWO0Xmu8BnQtXGgKTna8mNSNbFtux1mqvu77fWmeuHdT/T34mEav2tmRhuKWxrDxg3oiNENIB8m1pg6g2Gq0ZnFvCkA2KdxOAmVaUCsNQUAw7TWmC6mQyrTB2jMm1KZAoBtGtNxd5a+QmthylpTACifxnPaTCevMximGiU7YQoAtmk0+pkZ4nUGw1TjTWO3tD0fAaAwGkWPqU04TIXpYjrUKtupTgHALo1ntEaPjRqL3bway2MIUwAwSEYOOx+9xpzp0zRuEGEKADapPJ8VRzJVEKYAgJg09gIwc/Raw2KYaoyDsw8nANhU3LIYZzRMVdqd2aMXAEzSeDabWhbjLIbpYjr07c5zhY9iW0EAMESajzRO9yJM18TmDQBQHq3mI1PLYpzhMNW4UYQpANiiMWJ4Y/F7WnJlus9OSABgikaYmhvidYWHqWPeFABM0TjDlDBdlyzG1ThehzAFAAMUV1gQphvSuGGEKQDYoPI8tth85IyHqcrmDcybAoAJRe581Cg9TB3VKQCYUGzzkbMcpovpkCYkpGDqjESgBDJfqnFSjMkhXme8MnVKJT1hmlaqN8nLLf+9VL+s2zbcpbrebdf6pXpZ0WhoxPYGSvfObJj+YuAaHnOl0Ert5033rB3XU5FT55yft96L+CXfyt+7jXO53pgvYd87XO9IrjfmJiVbX+/y7MVo5+23nO4vdKhs1iDbzZqUQ5h+VPicQ3lIIrLl2Qv/w3+cy32X683mwSvXe2LgUta2PHtBsFVEmkA11pearUqd9WFexRZorSEGAMBmtEYhCNOOtp37amPeFADSKH6+1GUSpho3cLfXHxOoABCfRpjOLM+XuorC1DHUCwBx1bAkpmE+TGW9qUZbO2EKAHFpNR9OrH/fcqhMndJbyXPFjZYBAE/TKGLmipv4BJNLmGq9lWSzRAMAcibFy3OFL8F8VepyCdPFdKh1MxnqBYA4tIoX8/OlLqPK1CktkWGoFwDi0CpeqEyVMdQLABlQHOK9tL4kplFjmDLUCwBhVdPF28gmTOXtZNuTKtoY6gWAsKrY9ajN+kb39/nN6n9X+JwThns3t/PywzK3awYQV68/HigN8d7kdNpXTsO8jqFeADBP6/ma1UlfWYWpvKVoDPX6vXprrkw52xWAOjluraou3kZulamTw5A11Fydmt9NBMjYrOJv3kBpL95ZTkO8LtMw1XpbOer1x3tKn5WbrN74gMxk0zQTgNZB9VkN8bocw1S6ejU2cHC1NiEtv366rfztGQgpuyDQIKsk9pU+LrsX/hwrU8cGDipOC/gaAGsu5GW1RlpVaTYbNbRlGaaL6dC/+c0VPup5rY1Iy6+frhQrfAB/PZOqfElVbjzKsrLPtTJ1VKcqjpXOigXg3GnFValW49Fc8WCTqHIOU62u3le1NiItv376Lr8EGlU+UDM/vKv1TMqRVkWe7XxztmEqh8VqVVXVzh8uv37y9/GQChXYmg/Sake4ev2xf35o7HjkFIuk6HKuTJ3ijX8tY/5VkkA9YA4V2Igf0Xlfc5AKrWIku7WlbbmHqeaQgFYnWpb8kO/y6yc/5Psry2aAR/kQvfAvoJUP7TqZInul9HFZLynaWS7z3ru81x/7b8BrhY/yE9/VVqf37bz8cCDDv/4P9wX4a+cw3wV/Jf0G1eP5+0MJYeof9v9W+rg3suwGAPD4s9dXpf9RukefF9Nh1qODuQ/z+kakK6XN7x0bGQDA2jTnirMfLs8+TIXWN6LaTRwAYF3SsKm541H263OLCFPFHZEc1SkAPOlEaZMGV0JV6gqqTB3VKQCEp1yV3slUXfYI09WoTgFgNc2qtJhnbTFhKqcMXCh9HNUpANyjXJXOS1o9UVJl6pTfcqhOAeBnzJU+oKgwlY4wrS3xqE4BQGhXpYSpfcydAoA+1ao0xwPAH1NcmEpnmNbesr46rXrPXgCQ3Y4+Kt6I4naaK7EyddpzpzWfKAMAys/UixI2abivyDBVrk53az9RBkC9ev3xgdJm9o0ip89+MXANoZwqboB/4k9HKPFtqmQ7Lz8MZP9QRhZs8L8/k+XXT5Pab0RmNPtQiqxKXQmnxjym1x9fKZ61538I6O7NwM7LDz48J4rfe+jyB1MccoyZfb3+2L+Q/q/ihf5XqWFa6pxpQ3M44bUc9wbDJEivCVLT9uVcUNhHVbqmosNUee7UlbYuqlC+In1e+03IwP7Oyw+M9BjW649PFX+X5qX3npRemTrl6nSfpTJ27bz8cEBFmpVB7TfAKlkKo/msK25d6X3Fh6lUp1p79jqWypjGwzkvB7XfAMNGihs0FLfb0So1VKZOuTrdZbgXUMFwvEHSG3KkeGXFV6WuljCVSe/Pih9JMxKA4siom+buRP680iq2Za2lMnVSnc4VP6+47bAKwFKLvNzUfgMM0mw6cjXtb15NmMowg+Y39rl0u8EONgPIC98vQ2Sno3eKVzQr6bzSp9RUmfpA9XOdd4of+VF+AGHA8usn7eF8hFNFU0pmtIOvqmKjqjAV2mvbGO41ZPn10wnDh1k4ZgckO2SUbV/xgi5kJUU1qgvTABs57DPca86h4iHx0OUr0jfsz2uHjK5pHq9W/AYNq9RYmboA1SnDvYb4imf59ZNfc/qrhKrm0D62M5Mh+IPl10+M5tiiPrxbw1KY+4re6P4xUk1qvo3dLKZDAhVANngO6qm1MnWy9kmzYvHDvTRUAMiCrJXXDFJX89nP1Yap0B7ufcdmDgCsC7A5g/e5tqajtqrDVL7x2o0qE/buBWDcSHlzhnltS2Huq70ydVKdau6MtMtyGQBW9fpj/8x7rXx5xzU2HbVVH6byA6A93HvEUW0ArJFVB9q9HZeL6bD6pU7Vh6n7K1AnymtPvd9ZLgPAitY8qdbRaq7WNaWrEKY/aA/3OuZPARgyUt7lyMmaUr+NZ/UIUyE/ENpvWM+ZPwWQWqB50pnsd149R5j+TE440O7uPWK7QQCpBJon9aN4A76pPxCm/xRiuPcj608BxCbTTBPleVJH9+4/Eab3BOrudTJ/SkMSgJgmyutJHd27qxGmK8gPiva5mH+uP6UhCUAMsr3pK+W/6i5QsZE9wvRhpwHOxdynIQlAaNJw9C7AX8Pw7gMI0wcEHO49YkN8AKHIdNKXAB//W8177z6FMH3EYjq8ds69D/DR7+TNEQDUSJCGCLyZnLSFBxCmT5B1VNrLZbwvdPgC0BJohyPHMpj1EKbrOVY++7RBhy+AziRIrwLscOQNmCd9GmG6BvlBCvFm5t8gr3r98V6AzwZQjxBbBTrmSddHmK5J5k/fBPjoXfbwBbCtXn98HmCrQMc86WYI0w3IdoMXAT56XypUAhXA2mSr0hBBesc86WYI0w0tpsPjAOtPnQQqu4oAWIusCPgY4G7NmSfdHGG6ncMA+/d6r2TIBgAeJEEaYi2pdyLTWtgAYboFeWMLtazlNYEK4CGBg/SzTGdhQ4TplgI2JDkCFcAqgYPUb2CvfaZzNQjTDuQNTntD/AaBCuBvgYP0hg3su9lZLpc5X78Jvf7YNw4dBbqWC2l6AlCpwEHq+z8OFtPhLT9f26My1RGqw9dRoQJ1ixCkhwRpd4SpglZDUogtBx2BCtQpcJA6Onf1EKZKWlsOhlgy4whUoC4RgvQNnbt6mDNV1joCSfvkhsYlB/QCZYsQpJ/p3NVFZapMhkxC/pAesfUgUC7ZIjBkkF4QpPqoTAOJ8GZ5I40DVKhAIQJuWt9gdUAgVKaByFxEqE0dnOzle815qED+/EhThCC9CTxqVjUq08BkyCbEZtSNprWdjjwgQ4EP9m4wkhUYlWlgch5giGPbGr7R6Q8ZVgaQkVbDIkGaOcI0ApmjCBmo3hepggFkgCAtC8O8EUWYE3ES2if88gB2RWhQdARpXIRpZJEClV8iwKhefzxyzr0LfHU8AyIjTBOIFKg0JgGGSKORPxTjVeCrIkgTYM40gUhzqDQmAUbI/Og1QbnPYjsAAAZASURBVFouKtOEIg33OOZRgXTkhXYUcIvRBkGaEGGaWKRGBNcc/suwLxCHDOuOIkzpOII0PcLUgIiBOpcKlZMigIBkWPc88LKXBlsEGkCYGhExUB3DvkA4EYd1HUFqB2FqSITj29oY9gUURR7WdRyjZgthakzkQPXeL6bDUTY3CDCo1x8fyrDu80hXx8HexhCmBkXa+LptJlXqbY73C0gpwmEWbfQ9GEWYGhVxgXfD/5KeUqUC64ncZOTYiMU2wtS4SLsltVGlAk+IXI066XEY8HtpF2GagV5/7JsMfo94pVSpwAoJqlHvUl5w6b43jDDNhDQ4TCI2JjmqVOAvMu1yGmnHsjY6djPB3ryZWEyHviHpUIZ7YvHztf/hnFTUTF5kryMH6Vw6dgnSTFCZZkbekP0w01HkK7+TKvUq+5sIrKHXH+/JutEUv2sDGo3yQphmKkEDRONSWvMZ+kWx5PfrJPK0ipOplQHzo/khTDOWaB7VyRCUf2Mf8UuPkvT644H8bMfafKHtt8V0yJRKpgjTzCVYj9p2J12/LCBH1qRLd5To92gu1ShTKBkjTAuRcNjXSVPUCQ8D5EbmRU8jr+VuY1i3EIRpQRIO+zZmUqkSqjBNRnROEr6AOoZ1y0KYFiZht2/bhYQqTUowpRWiKZqLGnTGF4gwLZTsmnSa8IHhCFVYYSREHbsZlYswLZjMB00ib322CqGKJAyF6FxCdMJPQpkI0wokbk5qu5TlNAxvISh5kTw2EKKOJqM6EKaVSLRB90NmEqq8pUOVge7cNg6MqAhhWhlDVapr1qn6oWje2tGFdLKfJlonugo7hVWGMK2QvL2fG3rwzOV6Rjx8sC6ZDx1IiKbYsWgV5kYrRZhWzEjH733+jf6chxEeIlMWJxKkln52P8uwLqMsFSJMKydv9yMjc0xtd9KJTLWKdhV6YmTev40dwECY4i8y5zQy+KBy0rB0ztxqfWTj+YHBKtTRYIQ2whQ/MTr023YhocowcKFkGPdYAtTKXOh9F1KN8nKHPxGm+AcZUvOB+s7w3ZnLMDDBWoBMAtSx/zQeQpjiQQa7fh/yd7A6566oFvKQUYA6jhvEUwhTPMn4fOoqviP4SqpWmpeMkBGPQ8NzoKvMpQmO013wKMIUa+v1x8fG1vSto+kKvqJqjU+qz4GEqPURjra5vECO+JnBOghTbCzTUG3cNMFKuOqT8Dxs/cmh+ryP5iJsjDDF1jIP1UYTrtcSrgwLr0mGbdvhmVPluQqnG2FrhCk6KyRUG/MmWOWft4vp8NrGpaVzLzgP5E8J329HiEIDYQo1hYXqfX5JxK388UH7vcSQbYWm/7PX+s85Dtc+ppkTPSdEoYEwhToJ1eMChv3WcScB64P1e+uftxYf0q2wdFJltv9Zw/eLxiIEQZgiGFlS43dUOqr8Lt9IwLpW2LoH/vsq/v//bI2/5+De/67930usLjfBOlEERZgiONn84USq1Zof6IjvUqpQdixCUIQpojF6/iTKw/m4iI4wRRIyBHxs8Og35GsmDUUM5SI6whRJSbXaNCzlsl0h7KAKhQmEKczIbONzpHUpVSgnBsEEwhQmGT8UGmlwSDzMIkxhHsFatZtWgDKMC7MIU2SFYK3CZetsWgIUWSBMkS3pCG6O96J5KV/z1jF5DOEiS4QpiiAbQ7TDlarVtlkrPKs/SAD5I0xRpIwPpS4V58iiaIQpqiBDwoetY8SoXMOatY6yIzxRPMIUVWoNCzdHjFG9bu9GgvPPP+yDixoRpoCQoeHmHM9DTlpZadY6co7gBARhCjzi3mHZzyRknxXePXz/jNYrq+ezAlYQpsCWZKi4/ad98LblqnYm/7yVP38fak5nLbAdwhQITJqfGk34tt0/1Hsb94dbm4BsXNMEBIRDmAIA0NG/uIEAAHRDmAIA0BFhCgBAR4QpAAAdEaYAAHREmAIA0BFhCgBAR4QpAAAdEaYAAHREmAIA0BFhCgBAR4QpAAAdEaYAAHREmAIA0BFhCgBAR4QpAAAdEaYAAHREmAIA0BFhCgBAR4QpAAAdEaYAAHREmAIA0BFhCgBAR4QpAAAdEaYAAHREmAIA0BFhCgBAR4QpAAAdEaYAAHREmAIA0BFhCgBAR4QpAABdOOf+H0YoUEmUq/XRAAAAAElFTkSuQmCC;spacingTop=-10;labelPosition=center;verticalLabelPosition=bottom;align=center;verticalAlign=top;fontSize=15;fontColor=#053B70;fontStyle=1;spacingTop=-10;" parent="VYL1K3xwnHBBIEN77Z_S-31" vertex="1">
                    <mxGeometry x="58.5" y="86.82" width="56" height="56" as="geometry"/>
                </mxCell>
                <mxCell id="VYL1K3xwnHBBIEN77Z_S-38" value="" style="shape=image;verticalLabelPosition=bottom;verticalAlign=top;imageAspect=0;aspect=fixed;image=data:image/svg+xml,PHN2ZyB4bWxucz0iaHR0cDovL3d3dy53My5vcmcvMjAwMC9zdmciIGlkPSJkZXN0aW5hdGlvbiIgdmlld0JveD0iMCAwIDU2IDU2Ij48ZGVmcz48c3R5bGU+LmNscy0xe2ZpbGw6IzA3NGQ5Mjt9LmNscy0ye2ZpbGw6IzA1M2I3MDt9LmNscy0ze2ZpbGw6IzBhNmVkMTt9PC9zdHlsZT48L2RlZnM+PHRpdGxlPmRlc3RpbmF0aW9uX2NpcmNsZTwvdGl0bGU+PHBhdGggY2xhc3M9ImNscy0xIiBkPSJNMjgsNkEyMiwyMiwwLDEsMSw2LDI4LDIyLjAyNSwyMi4wMjUsMCwwLDEsMjgsNm0wLTJBMjQsMjQsMCwxLDAsNTIsMjgsMjQsMjQsMCwwLDAsMjgsNFoiLz48cGF0aCBjbGFzcz0iY2xzLTIiIGQ9Ik0yMy41LDQwSDE5LjA0N2ExLjU0LDEuNTQsMCwwLDEtMS4xLS40MjJBMS40MTksMS40MTksMCwwLDEsMTcuNSwzOC41VjIybDYtNkgzNGExLjQyMywxLjQyMywwLDAsMSwxLjA3OC40NDVBMS40ODYsMS40ODYsMCwwLDEsMzUuNSwxNy41VjE5SDM0VjE3LjVIMjVWMjJhMS40MjEsMS40MjEsMCwwLDEtLjQ0NSwxLjA3OEExLjQ4NiwxLjQ4NiwwLDAsMSwyMy41LDIzLjVIMTl2MTVoNC41WiIvPjxwYXRoIGNsYXNzPSJjbHMtMyIgZD0iTTI3Ljk2OSwzNC45MzIsMjYuMzU4LDM0LjFsLTEuMDEyLjkyOUwyNC4wNTgsMzMuNzZsLjg4MS0uODgyLS42ODMtMS43NjNMMjMsMzEuMVYyOS4zMTJoMS4yMzlsLjczNi0xLjc3NS0uOTE3LS45MjMsMS4yNjUtMS4yODcuOTU1Ljk1NiwxLjY5MS0uNy0uMDA3LTEuMzc3LDEuODgyLjAwOXYxLjM2OGwxLjY5LjcsMS4wMDgtLjg4MiwxLjIxMywxLjMzOS0uODgyLjg4Mi43LDEuNjksMS4zMzMuMDk0di44NDRoMS41di0uODQ0YTEuNTYzLDEuNTYzLDAsMCwwLTEuNTkzLTEuNTk0SDM0LjhsLjA0MS0uMDM5YTEuNjM0LDEuNjM0LDAsMCwwLC40MjktMS4xMDksMS41MzYsMS41MzYsMCwwLDAtLjQ1Ny0xLjExTDMzLjYsMjQuMzQxYTEuNjMyLDEuNjMyLDAsMCwwLTIuMjQ4LDBsLS4wMTEuMDEydi0uMDA5QTEuNTYxLDEuNTYxLDAsMCwwLDI5Ljc1LDIyLjc1SDI4LjA2M2ExLjU2MSwxLjU2MSwwLDAsMC0xLjU5NCwxLjU5NHYuMDA5bC0uMDEyLS4wMTJhMS42MywxLjYzLDAsMCwwLTIuMjQ3LDBMMjMsMjUuNTU0YTEuNTM2LDEuNTM2LDAsMCwwLS40NTcsMS4xMUExLjY1NiwxLjY1NiwwLDAsMCwyMywyNy44bC4wMTIuMDExSDIzYTEuNTYzLDEuNTYzLDAsMCwwLTEuNTk0LDEuNTk0djEuNjg4YTEuNTksMS41OSwwLDAsMCwuNDQzLDEuMTA5QTEuNTQxLDEuNTQxLDAsMCwwLDIzLDMyLjY4OGguMDA5TDIzLDMyLjdhMS42MSwxLjYxLDAsMCwwLDAsMi4yNDdsMS4yMTMsMS4yMTNhMS42MjIsMS42MjIsMCwwLDAsMi4yNTktLjAxMnYuMDA5YTEuNTksMS41OSwwLDAsMCwuNDQyLDEuMTA5LDEuNTQ0LDEuNTQ0LDAsMCwwLDEuMTUyLjQ4NWguODQzdi0xLjVsLS45MzctLjA5NFoiLz48cGF0aCBjbGFzcz0iY2xzLTMiIGQ9Ik0yOC45MDYsMjguNzVhMS40OCwxLjQ4LDAsMCwxLDEuMjcuNzVIMzEuOGEyLjk5NCwyLjk5NCwwLDEsMC0zLjY0NCwzLjY0M1YzMS41MmExLjQ4MSwxLjQ4MSwwLDAsMS0uNzUtMS4yN0ExLjUsMS41LDAsMCwxLDI4LjkwNiwyOC43NVoiLz48cGF0aCBjbGFzcz0iY2xzLTMiIGQ9Ik0zNS45MzQsMzYuNjM5bC4xMzItLjEzMmEyLjI1NiwyLjI1NiwwLDAsMCwwLTMuMTgzTDM0LjM5LDMxLjY0OGEyLjI1NSwyLjI1NSwwLDAsMC0zLjE4MiwwbC0uMTMzLjEzMkwyOS40OTIsMzAuMmwtLjguOCwxLjU4MywxLjU4My0uMTMyLjEzMmEyLjI1NiwyLjI1NiwwLDAsMCwwLDMuMTgzbDEuNjc2LDEuNjc2YTIuMjU2LDIuMjU2LDAsMCwwLDMuMTgzLDBsLjEzMi0uMTMyTDM3LjcsNDBsLjgtLjhaTTMxLjMyMSwzNS42bC0uMzQ5LS4zNDlhMS4yLDEuMiwwLDAsMSwwLTEuNjlsMS4wODgtMS4wODhhMS4yLDEuMiwwLDAsMSwxLjY5LDBsLjM0OS4zNDlabTMuOTIxLjA1NS0xLjA4OCwxLjA4OGExLjIsMS4yLDAsMCwxLTEuNjksMGwtLjM0OC0uMzQ3TDM0LjksMzMuNjE2bC4zNDcuMzQ4QTEuMiwxLjIsMCwwLDEsMzUuMjQyLDM1LjY1NFoiLz48L3N2Zz4=;fontSize=15;fontColor=#053B70;fontStyle=1;spacingTop=0;" parent="VYL1K3xwnHBBIEN77Z_S-31" vertex="1">
                    <mxGeometry x="330" y="86" width="56" height="56" as="geometry"/>
                </mxCell>
                <mxCell id="VYL1K3xwnHBBIEN77Z_S-39" style="rounded=0;orthogonalLoop=1;jettySize=auto;html=1;fontSize=12;fontColor=#808080;startArrow=none;startFill=0;endArrow=block;endFill=1;strokeWidth=2;strokeColor=#595959;exitX=1;exitY=0.5;exitDx=0;exitDy=0;entryX=0;entryY=0.5;entryDx=0;entryDy=0;endSize=6;jumpSize=6;jumpStyle=gap;" parent="VYL1K3xwnHBBIEN77Z_S-31" source="VYL1K3xwnHBBIEN77Z_S-33" target="VYL1K3xwnHBBIEN77Z_S-36" edge="1">
                    <mxGeometry relative="1" as="geometry">
                        <mxPoint x="163" y="80" as="targetPoint"/>
                        <mxPoint x="-70" y="380" as="sourcePoint"/>
                    </mxGeometry>
                </mxCell>
                <mxCell id="VYL1K3xwnHBBIEN77Z_S-40" style="rounded=0;orthogonalLoop=1;jettySize=auto;html=1;fontSize=12;fontColor=#808080;startArrow=none;startFill=0;endArrow=block;endFill=1;strokeWidth=2;strokeColor=#595959;exitX=1;exitY=0.5;exitDx=0;exitDy=0;entryX=0;entryY=0.5;entryDx=0;entryDy=0;" parent="VYL1K3xwnHBBIEN77Z_S-31" source="VYL1K3xwnHBBIEN77Z_S-36" target="VYL1K3xwnHBBIEN77Z_S-38" edge="1">
                    <mxGeometry relative="1" as="geometry">
                        <mxPoint x="307" y="124.03999999999996" as="targetPoint"/>
                        <mxPoint x="230" y="82" as="sourcePoint"/>
                    </mxGeometry>
                </mxCell>
                <mxCell id="VYL1K3xwnHBBIEN77Z_S-41" value="&lt;span style=&quot;color: rgba(0, 0, 0, 0); font-family: monospace; font-size: 0px; text-align: start;&quot;&gt;%3CmxGraphModel%3E%3Croot%3E%3CmxCell%20id%3D%220%22%2F%3E%3CmxCell%20id%3D%221%22%20parent%3D%220%22%2F%3E%3CmxCell%20id%3D%222%22%20value%3D%22%26lt%3Bb%26gt%3B%26amp%3Bnbsp%3B%26lt%3B%2Fb%26gt%3B%26lt%3Bspan%20style%3D%26quot%3Bfont-weight%3A%20bold%26quot%3B%26gt%3BSubaccount%26lt%3B%2Fspan%26gt%3B%26lt%3Bb%26gt%3B%26lt%3Bbr%26gt%3B%26lt%3B%2Fb%26gt%3B%22%20style%3D%22rounded%3D0%3BwhiteSpace%3Dwrap%3Bhtml%3D1%3BstrokeColor%3D%23074D92%3BstrokeWidth%3D2%3BfillColor%3Dnone%3Balign%3Dleft%3BverticalAlign%3Dtop%3BfontSize%3D11%3BfontFamily%3DArial%3Bcontainer%3D0%3BrecursiveResize%3D0%3Bcollapsible%3D0%3BfontColor%3D%23595959%3B%22%20vertex%3D%221%22%20parent%3D%221%22%3E%3CmxGeometry%20x%3D%22170%22%20y%3D%22186%22%20width%3D%22910%22%20height%3D%22520%22%20as%3D%22geometry%22%2F%3E%3C%2FmxCell%3E%3CmxCell%20id%3D%223%22%20value%3D%22%22%20style%3D%22shape%3Dimage%3BverticalLabelPosition%3Dbottom%3BlabelBackgroundColor%3D%23ffffff%3BverticalAlign%3Dtop%3Baspect%3Dfixed%3BimageAspect%3D0%3Bimage%3Ddata%3Aimage%2Fpng%2CiVBORw0KGgoAAAANSUhEUgAAANYAAAAeCAYAAABQWOD3AAAQuUlEQVR4Ae1cC7RVxXk%2B%2BKiRtDaJbZJiTEmkQC964dx99p7%2FMftw5D4Ag7Y20nfTpImmqzElUZtlUmzq0lRqFKJBDC5RqaJI1NgFwZVYpVpDtEHlYZSHKK%2BgEsFC8BFBd9d33HPdZ9%2B9zzn3wpV11zpnrVmzZ%2Baff2b%2BPd88%2Fv%2Ffp1Bo%2FVoSaEngvZGAMeYjzHw2M88QkQuCIPgLZh6V17ox5oRSqXRGXnl%2F8plZmPl8Zr5CRL5ljDnP9%2F0JzfAQkQkdHR3tzdCWSqUKM5%2BUpg2CgJl5SjKUSqWpvu%2BXPc%2F7eJq%2BUXrUqFHH%2Bb4vfhM%2FVS1NnTr1uEY8gyCYLCI3MPMeEYmY%2BTUiuiMIgumFQuHoRvWJqAPdMcZ49WjPO%2B%2B8Y123S6XSmCxazBXf9yeqqs0qd3mq%2BnFjzOmg9X3%2Fky7fxZ7nDY%2FLy5B1Ikxk5kBEft%2FRNoqNMW14vwkevfyYeSLGr6q%2FlcenWCz%2BLhFV66NPY8aMyaUFjyAISq4tEZnUh2%2BxWGwTkYfCMIzCMFzLzEtF5D%2BttT8VkbdFZIPv%2B53pihj4xIkTo3R%2Bf9LxRN6uqq%2BJyMNEdCczf99a%2B6i1NlLVHR0dHZPr8TTGLFfV2%2BrRuDIi2m2M%2BTuXdrG19nFVfdVai77sSITdkIuI7PZ9f0ahUBjm6tSLsSB1dnZCnk2FIAhG5%2FHzPM8y8y8gDwAqHeL8V0ul0qfzeCBfVd8CrbX24PTp03OB2N7e%2FjHXb1V9NIsnEX2hXC5Xx0ZE87JokOf7%2FqWYI%2BDHzN9N06nquEqlUldGzPwqEV3d3t7%2B4XT9ZFpElro%2Buf4nY5TFsvpxEASfSNbFs%2Bd5x4rILtSJaX%2BSpnFpLBKON2iZ%2BVJXVo2NMX%2BOAiK6vq2t7TdqCuMEEV2gqm8GQXB1shwrbblcPpDM68fzMCL6V2vt28aYy%2FLqEdFlGAB2sTwaZr5bVW%2FOK0%2FmG2O2BUHwmWQenjGBVLVWODER5GKM%2BQeATkRexGqdrp9Oi8gpmDBpEGSlwzB8HfRpHkjjRJAEFDNjsfklMz%2Bnqi8w81uOJ%2BiI6NosPshT1V%2FFtHvrAatYLI5wPFV1RRY%2FIvqsqvaOz%2Ff9M3Po%2Fhn9Ai0zz07TENEfxu%2B3l5drOyN%2BEztSmodLqyrmQS8fPCdDkh%2Fa9DzvNFc3joeJiB9vJlUQ5o1LRHY6fkT00xo%2B2O4AqmKx2FVTkJHwPO%2F3mLlm5zgUYBlj%2FqZcLr%2BB7TmjuZosHKkgIGPM52oK4sThAhYzX5nFP5lHRP%2BDIxgzH5%2FMTz8ngcXMe3FkI6IlOeGOLLDiqJEElarez8w1kwHHVOzyInIALxpyIqKZ6f4gPZjAwm6YtQsQUdPAIqJdxpg5RHSNMQZhgYjg1ISFpwoYtDN%2B%2FPhxOeOrAgsywJwQkcuxILtARDdhYUzw2o0je5oXEc0Cj5hub5rGGHNlgsdBHCFreIjIviAIvlGT2Y%2FEQIEVBMGJqvrrIAjOb7Y5HD3CMNyLe126znsJLLSNnYuIbkn3I5lOAktVNyTLmnlub29%2FPzO%2FEL%2FAt4Mg%2BOI79aJhPHv78Wffs%2BPEM%2BfvHF4oRNWjKe6DzPxr0OMU4Hne2HQ7gwmsuJ%2Bvp%2B8l%2FQEWMz%2BR7jPS48ePPwnXETeZReSpLDq3Y2GzCMPwnCyaQqFwFDO%2FAl6gK5VKQRadMeZ50MQgvd3RYAF0ixgWvSAIprmyamyM%2BbS19pWazH4mBgos3HGstS%2F2pzmsGtZaHH363I%2Fea2AFQTAekxcLRN4YksCy1gJYTd3NHD%2Ff9%2F%2FarZqqegXyOxfuOPGMe3Z854y7tr1%2B1tJd0bQfbD9w5r0v3TxtyfaqMgaLj5t8RHR%2Fus1BBBbux26FfzJ5zOwPsEQkE1gYO3YFZn4D7eCOCCWDk5WLmwRWgZmxw7vd%2Fc9c%2FWTs%2B%2F44VYV%2BAXRvqSqUOMNw102M9fvJOtVnZl5ERIv6FPQjY6DAUlUciW7qR1NVUiK6jplXpuu918DCqofd0%2FO809N9cekMYLmihjEmJjOvcC%2FV87zfNtduOuFTd%2B%2FcOWXxlmjK4ueiqXc%2B%2F05YsiU6a%2BmufVMXbzoFd0ER2Yp6AP6ECRM%2BkGxssIDFzN9R1d1uwuEY59o9XMACPyL6pltsmHm%2Ba8PFzQKLiJbHMsJi8EeufjoWkZluTBifMeZCl2bm%2FW1tbb%2BZroPz9v5Yy9WnrNmMgQALL99a%2BxQR%2FWOz7Tg6qJWxa7m0i48AsLDqbe6jCXIdKhQKSWCp6laouKFFTQciMqBNVIV2arg71jHzRpR13%2FrsnVNufy7quXVT1HPbs9UwedHmaPLtm6Mq2JZsrWqwoITC5MPlHKtuku9gAYuIZp966qknq%2BpBN%2FF83%2F9TtH2YgVXB8Q1tMPN%2FJ8eG5ySwiOhP0uVI447KzNU7G7SVaRml6mCB2%2BTG5GLI1xiTbd7B%2BTBPGZBinpscCLBGjhz5PlV9HseWXMY5BaVSqTsMw13p4iMBLCJahR003ReXTgIrfiHQ3vUJ8QpcYyqArSXOxySqAqZn4XMbu2%2FZGHXfsqEaehZujHr%2B490w7d4XX5i6PDqOmb%2BEurHSw3f9QTyYwAJ%2FTGY3%2BUTkIDMXjTFfR1%2FQpya0grlHQfCHXdMBK8sM4IAVyw5mIyh7%2FisO9%2BOdufsR%2BsnMjyaPrUlZuWfY4ZKa17jev7nyPrGqvnQoigswHAiwYlvBz7CS9elUgwyoeJl5e5rsSABLRH7BzBen%2B%2BLSaWDhZWcFTDpm7r0coz6OGFCrx5N0NfJ6btq4suvG9VHXjU9H3QueeSfctD7qRrh5QzRl0dbNoCOiy9FOvGPVGNgdsFR1X70JBaOsA4iqPujGlIyT6nbsWK5MROYl6u4KguDfDxewYCB3qnmAxbXpYgcs135eDPkw89N9tHmOUSr2fT95BHwZczhF8m7SGPM9Irrv3Zz%2BPw0EWGhFROaLyLL%2BtigidxHRPel6xpi7mrVjEREWlEw7VjPqdrRdqVSOKZfLrxljKN0Xl04CC%2FYmKGyI6Nx0YOYvBkFQY7WP70rr44nxGl7kxOvWnNm9YP2Bzu%2Bti7puQPh5b5i8cHPUteCZc9G2iDyJepiA0Ka5%2FiBm5pfdZMPJIVmWfIaXhKNT1cx7eB6wYq0bdga3MFQ1lfFk7gWgay9lx6q7Y6nqXPAFLxiMHQ8Xp4D1srV2GwIz9x5RjTE7jTHn1Bu%2F4%2BdiY8wfoE20HSuFXFHf2Pf9LhDjJfYtbS5noMCCt0UYhm%2FUcy9J94CZP2St3W%2BM6UmXwXCNCYWXmi5LpuP73etEpMl8PONo0SywiOhvcZ%2Bo1%2F8ksKy169PtNUoz87%2B4SQQNLugnzX3qC53z1h7ovG5N1DlvbdQ5b03UdcPTUdf8p6u7f6lUKjrjJnb29K7EzKvwzgE6Y0zupd0Yc68DBgzjWX2tA6zCqFGjTlDVXnuRG8ehHAWhFk9o6Q5k3Y0csHBchJ20Uql8AAoc3%2Fc%2F54ChqrCdZhqzs8aJPGgEXf2snbJPPVyMYVzsU9BkxiEA63gReYaZFzbZFI4416rqpkKh0Gcbhp8ghOn7%2Fsn1%2BDHzWGvtW7ARpemaBVZbW9tHwzDcn2eEdXxTwBqIuv3kxH3gV84uNemaJ2d3zV0bdV77RNR9%2Fbro9Lmrq%2Fcz2FeYudf2knV5N8Zc4iaIqm72ff%2Bjrr8u9jyvQ0TeBBgg046Ojkxf0XrAAi8oa1S1arRuFlhZdiwsqABJcrfNm9xJYKXtWLjrubFbawGuPourk0E67jewoNmIBw93oVzfMTQEjRzUnclGBwqsmB9j12Lmf0ryzHqGmhM7RD1hiMj%2Fwlcs7%2FwLw6WIbMRxMquNZoAFAEPDx8xQKNSV16ECC300xlzkJgOMotAW9nx7zfu7vrvm5UlzVkVdc1cfKF%2F2WNXnjYh%2B7GhV9ZH0bgV%2B2LFVdZub6CICQ%2Fc3YeTEDkZEV0FbjHIEXP6zZIW8RsCKac5N9An86h4FiWhfSuGwEvJ2%2FYl57UwfcV0f6wELNMxcPUrG49%2BXtes5Xsm438BC5fg8Dd%2Bzx4IgOBsuMjjixF7HWAXhwQxXkT1BEHw%2B2SBcbsrl8kG4O8GdJS%2Fk7SRBEPyxqv4f7luxBgleFZiwR1lrPwhXJhG5FzSxB3ey%2BZrn0aNHn4SXoKoPwFM9HsOx4APXLVVdJyLrRowYMbymYpyIgXU9xu%2FGAUdL3AFE5FNEdDMchYno7qwdL83zcACrUCgcE7db1fIRUdWY2XnVqmVds1dF3desrvqoxbuD07yt9zzvd9L9cWl4rcOtJznh8exCPOkArA3jxo37kKuXjpsBFurAG9%2B11QhYDkDp2PUNc9Tt3On%2BIN0IWLGB9weOP3wui8ViQ%2B%2F5AQELHcKRwFp7NazK8QrxDBH93Fq7GauaiCzI8r6Gnx%2F8%2FVR1i7V2a17AbpIlCOThswRr7SLYp%2BD6Y4x5nJkfF5FnMQGstXfUE2aSL7yfVXUheInIeiJaLSKbYt5z0u42ybrQfllrf5kaAzzdYWnfAYDjbpisU%2B%2BZiEbGstljrf1ZPdoGZUfBe1xVYXupWvo7Z%2F3k6p7ZT0STZq2sKhaYuXrMwcQaO3ZsrjeIayfW%2Bt2mqrsSQAKY3oaixVp7HYzSjj4rJqK%2FgueOqr4C37osGuThBKGqD4vIXmbuo6bG%2By%2BXy%2BCzJyPswtxi5h8x82cqlUquwgVticitWITDMIQnSOYdEh48ULO7tph5TZabXHI8UF7EY91DREuTZU09YyXGNy34xsRaW4HrzmmnnfbBvMr4hggrOoRTL2R9h5PmiZUDOwtWZQRjjMVOmKZrJq2qI7ATM%2FM0fHIRhmGtk2QGE9grssYAgOAynlGlUdYx%2BHQEu1%2Fejt2IQbIcx24i%2BjJW3cqlD83qunJVNOnyR6oe%2FdZafDdX4yCdrJv3jCMVXIOgJTXGwIUqzLp3ZdWHSSAe2ydxD8qicXlY0DzPOyWLDsDD7u5OCS7GnDHGfKwRwF0biHHPRD3IHSeuZFnyGX0HHdoCaBoBFn109M3KJ9le63mISMDOXDFr0hWPRZVLH6rrCDxEhtPqZksCR1YCOMZMLxSOtjNXXHX6ZSsjO%2FOB6lEw%2FVnDke1lq%2FWWBIaABHDcxlElVlCsM177ReElj8wJZz4UlS95eIkUx5xjrV0NnQTuCrFipa49bwgMu9XFlgQGTwJBEPx9GIZQ6uA%2FLuBneFf7KR%2F5sF78wK168YNR%2BPUHfzSiUBiuqrDxwXSxP3Zb6vUuH7zetTi3JDA0JYC%2FLlgMrZ0xBuaG0YXC9KN1xn2fl68u36IX3hfJhfe9JBf88ILKZ1e8Dyp2Zl4LeiLaBkXM0Bx2q9ctCQySBIjoG0mXIGPMVWiqPGPpNZWL7o%2FCGcsi%2B5V3wsSvPRjpV5cvQTk%2B1Yi92qE6fxPGYPg1DlI3W2xbEhhSEhgGUwMz35gwrO4vFosljEK%2B9MNyZcayWeUvL10cfmX5nPD8ZZO9%2BdGx8Y61xRk%2F4TEPA34j%2F8khJZlWZ1sSOFQJwCUJrlMOKLHfID63ubxEpbMC1RCfURDR1%2BKvjV91tPE%2FX2V%2FiHeoHWvVb0lgKEsg9mqp%2BuzheAePdLeDpWMACuUugJ6I1rR2q6E8A1p9HzQJxN4js%2FGJD9Tp8EjBp%2BIOWAAUQIQ7GHwtJ0yYMBK%2BgMz8l42chAet0y3GLQkMVQmICHwg3Q6W%2B0emQ3V8rX63JNCSQEsCNRL4f826WDz1IoxRAAAAAElFTkSuQmCC%3B%22%20vertex%3D%221%22%20parent%3D%221%22%3E%3CmxGeometry%20x%3D%22175.5%22%20y%3D%22211%22%20width%3D%22120%22%20height%3D%2216.82%22%20as%3D%22geometry%22%2F%3E%3C%2FmxCell%3E%3C%2Froot%3E%3C%2FmxGraphModel%3E&lt;/span&gt;" style="edgeLabel;html=1;align=center;verticalAlign=middle;resizable=0;points=[];fontSize=12.5;fontColor=#808080;labelBackgroundColor=none;" parent="VYL1K3xwnHBBIEN77Z_S-31" vertex="1" connectable="0">
                    <mxGeometry x="46.000000000000114" y="1" as="geometry">
                        <mxPoint x="6" y="6" as="offset"/>
                    </mxGeometry>
                </mxCell>
                <mxCell id="ZUMBWIuEBcWCyfkGFqT3-3" value="" style="shape=image;verticalLabelPosition=bottom;labelBackgroundColor=#ffffff;verticalAlign=top;aspect=fixed;imageAspect=0;image=data:image/png,iVBORw0KGgoAAAANSUhEUgAAANYAAAAeCAYAAABQWOD3AAAQuUlEQVR4Ae1cC7RVxXk++KiRtDaJbZJiTEmkQC964dx99p7/Mftw5D4Ag7Y20nfTpImmqzElUZtlUmzq0lRqFKJBDC5RqaJI1NgFwZVYpVpDtEHlYZSHKK+gEsFC8BFBd9d33HPdZ9+9zzn3wpV11zpnrVmzZ+aff2b+Pd88/v/fp1Bo/VoSaEngvZGAMeYjzHw2M88QkQuCIPgLZh6V17ox5oRSqXRGXnl/8plZmPl8Zr5CRL5ljDnP9/0JzfAQkQkdHR3tzdCWSqUKM5+Upg2CgJl5SjKUSqWpvu+XPc/7eJq+UXrUqFHH+b4vfhM/VS1NnTr1uEY8gyCYLCI3MPMeEYmY+TUiuiMIgumFQuHoRvWJqAPdMcZ49WjPO++8Y123S6XSmCxazBXf9yeqqs0qd3mq+nFjzOmg9X3/ky7fxZ7nDY/Ly5B1Ikxk5kBEft/RNoqNMW14vwkevfyYeSLGr6q/lcenWCz+LhFV66NPY8aMyaUFjyAISq4tEZnUh2+xWGwTkYfCMIzCMFzLzEtF5D+ttT8VkbdFZIPv+53pihj4xIkTo3R+f9LxRN6uqq+JyMNEdCczf99a+6i1NlLVHR0dHZPr8TTGLFfV2+rRuDIi2m2M+TuXdrG19nFVfdVai77sSITdkIuI7PZ9f0ahUBjm6tSLsSB1dnZCnk2FIAhG5/HzPM8y8y8gDwAqHeL8V0ul0qfzeCBfVd8CrbX24PTp03OB2N7e/jHXb1V9NIsnEX2hXC5Xx0ZE87JokOf7/qWYI+DHzN9N06nquEqlUldGzPwqEV3d3t7+4XT9ZFpElro+uf4nY5TFsvpxEASfSNbFs+d5x4rILtSJaX+SpnFpLBKON2iZ+VJXVo2NMX+OAiK6vq2t7TdqCuMEEV2gqm8GQXB1shwrbblcPpDM68fzMCL6V2vt28aYy/LqEdFlGAB2sTwaZr5bVW/OK0/mG2O2BUHwmWQenjGBVLVWODER5GKM+QeATkRexGqdrp9Oi8gpmDBpEGSlwzB8HfRpHkjjRJAEFDNjsfklMz+nqi8w81uOJ+iI6NosPshT1V/FtHvrAatYLI5wPFV1RRY/IvqsqvaOz/f9M3Po/hn9Ai0zz07TENEfxu+3l5drOyN+EztSmodLqyrmQS8fPCdDkh/a9DzvNFc3joeJiB9vJlUQ5o1LRHY6fkT00xo+2O4AqmKx2FVTkJHwPO/3mLlm5zgUYBlj/qZcLr+B7TmjuZosHKkgIGPM52oK4sThAhYzX5nFP5lHRP+DIxgzH5/MTz8ngcXMe3FkI6IlOeGOLLDiqJEElarez8w1kwHHVOzyInIALxpyIqKZ6f4gPZjAwm6YtQsQUdPAIqJdxpg5RHSNMQZhgYjg1ISFpwoYtDN+/PhxOeOrAgsywJwQkcuxILtARDdhYUzw2o0je5oXEc0Cj5hub5rGGHNlgsdBHCFreIjIviAIvlGT2Y/EQIEVBMGJqvrrIAjOb7Y5HD3CMNyLe126znsJLLSNnYuIbkn3I5lOAktVNyTLmnlub29/PzO/EL/At4Mg+OI79aJhPHv78Wffs+PEM+fvHF4oRNWjKe6DzPxr0OMU4Hne2HQ7gwmsuJ+vp+8l/QEWMz+R7jPS48ePPwnXETeZReSpLDq3Y2GzCMPwnCyaQqFwFDO/Al6gK5VKQRadMeZ50MQgvd3RYAF0ixgWvSAIprmyamyM+bS19pWazH4mBgos3HGstS/2pzmsGtZaHH363I/ea2AFQTAekxcLRN4YksCy1gJYTd3NHD/f9//arZqqegXyOxfuOPGMe3Z854y7tr1+1tJd0bQfbD9w5r0v3TxtyfaqMgaLj5t8RHR/us1BBBbux26FfzJ5zOwPsEQkE1gYO3YFZn4D7eCOCCWDk5WLmwRWgZmxw7vd/c9c/WTs+/44VYV+AXRvqSqUOMNw102M9fvJOtVnZl5ERIv6FPQjY6DAUlUciW7qR1NVUiK6jplXpuu918DCqofd0/O809N9cekMYLmihjEmJjOvcC/V87zfNtduOuFTd+/cOWXxlmjK4ueiqXc+/05YsiU6a+mufVMXbzoFd0ER2Yp6AP6ECRM+kGxssIDFzN9R1d1uwuEY59o9XMACPyL6pltsmHm+a8PFzQKLiJbHMsJi8EeufjoWkZluTBifMeZCl2bm/W1tbb+ZroPz9v5Yy9WnrNmMgQALL99a+xQR/WOz7Tg6qJWxa7m0i48AsLDqbe6jCXIdKhQKSWCp6laouKFFTQciMqBNVIV2arg71jHzRpR13/rsnVNufy7quXVT1HPbs9UwedHmaPLtm6Mq2JZsrWqwoITC5MPlHKtuku9gAYuIZp966qknq+pBN/F83/9TtH2YgVXB8Q1tMPN/J8eG5ySwiOhP0uVI447KzNU7G7SVaRml6mCB2+TG5GLI1xiTbd7B+TBPGZBinpscCLBGjhz5PlV9HseWXMY5BaVSqTsMw13p4iMBLCJahR003ReXTgIrfiHQ3vUJ8QpcYyqArSXOxySqAqZn4XMbu2/ZGHXfsqEaehZujHr+490w7d4XX5i6PDqOmb+EurHSw3f9QTyYwAJ/TGY3+UTkIDMXjTFfR1/Qpya0grlHQfCHXdMBK8sM4IAVyw5mIyh7/isO9+OdufsR+snMjyaPrUlZuWfY4ZKa17jev7nyPrGqvnQoigswHAiwYlvBz7CS9elUgwyoeJl5e5rsSABLRH7BzBen++LSaWDhZWcFTDpm7r0coz6OGFCrx5N0NfJ6btq4suvG9VHXjU9H3QueeSfctD7qRrh5QzRl0dbNoCOiy9FOvGPVGNgdsFR1X70JBaOsA4iqPujGlIyT6nbsWK5MROYl6u4KguDfDxewYCB3qnmAxbXpYgcs135eDPkw89N9tHmOUSr2fT95BHwZczhF8m7SGPM9Irrv3Zz+Pw0EWGhFROaLyLL+tigidxHRPel6xpi7mrVjEREWlEw7VjPqdrRdqVSOKZfLrxljKN0Xl04CC/YmKGyI6Nx0YOYvBkFQY7WP70rr44nxGl7kxOvWnNm9YP2Bzu+ti7puQPh5b5i8cHPUteCZc9G2iDyJepiA0Ka5/iBm5pfdZMPJIVmWfIaXhKNT1cx7eB6wYq0bdga3MFQ1lfFk7gWgay9lx6q7Y6nqXPAFLxiMHQ8Xp4D1srV2GwIz9x5RjTE7jTHn1Bu/4+diY8wfoE20HSuFXFHf2Pf9LhDjJfYtbS5noMCCt0UYhm/Ucy9J94CZP2St3W+M6UmXwXCNCYWXmi5LpuP73etEpMl8PONo0SywiOhvcZ+o1/8ksKy169PtNUoz87+4SQQNLugnzX3qC53z1h7ovG5N1DlvbdQ5b03UdcPTUdf8p6u7f6lUKjrjJnb29K7EzKvwzgE6Y0zupd0Yc68DBgzjWX2tA6zCqFGjTlDVXnuRG8ehHAWhFk9o6Q5k3Y0csHBchJ20Uql8AAoc3/c/54ChqrCdZhqzs8aJPGgEXf2snbJPPVyMYVzsU9BkxiEA63gReYaZFzbZFI4416rqpkKh0Gcbhp8ghOn7/sn1+DHzWGvtW7ARpemaBVZbW9tHwzDcn2eEdXxTwBqIuv3kxH3gV84uNemaJ2d3zV0bdV77RNR9/bro9Lmrq/cz2FeYudf2knV5N8Zc4iaIqm72ff+jrr8u9jyvQ0TeBBgg046Ojkxf0XrAAi8oa1S1arRuFlhZdiwsqABJcrfNm9xJYKXtWLjrubFbawGuPourk0E67jewoNmIBw93oVzfMTQEjRzUnclGBwqsmB9j12Lmf0ryzHqGmhM7RD1hiMj/wlcs7/wLw6WIbMRxMquNZoAFAEPDx8xQKNSV16ECC300xlzkJgOMotAW9nx7zfu7vrvm5UlzVkVdc1cfKF/2WNXnjYh+7GhV9ZH0bgV+2LFVdZub6CICQ/c3YeTEDkZEV0FbjHIEXP6zZIW8RsCKac5N9An86h4FiWhfSuGwEvJ2/Yl57UwfcV0f6wELNMxcPUrG49+Xtes5Xsm438BC5fg8Dd+zx4IgOBsuMjjixF7HWAXhwQxXkT1BEHw+2SBcbsrl8kG4O8GdJS/k7SRBEPyxqv4f7luxBgleFZiwR1lrPwhXJhG5FzSxB3ey+Zrn0aNHn4SXoKoPwFM9HsOx4APXLVVdJyLrRowYMbymYpyIgXU9xu/GAUdL3AFE5FNEdDMchYno7qwdL83zcACrUCgcE7db1fIRUdWY2XnVqmVds1dF3desrvqoxbuD07yt9zzvd9L9cWl4rcOtJznh8exCPOkArA3jxo37kKuXjpsBFurAG9+11QhYDkDp2PUNc9Tt3On+IN0IWLGB9weOP3wui8ViQ+/5AQELHcKRwFp7NazK8QrxDBH93Fq7GauaiCzI8r6Gnx/8/VR1i7V2a17AbpIlCOThswRr7SLYp+D6Y4x5nJkfF5FnMQGstXfUE2aSL7yfVXUheInIeiJaLSKbYt5z0u42ybrQfllrf5kaAzzdYWnfAYDjbpisU++ZiEbGstljrf1ZPdoGZUfBe1xVYXupWvo7Z/3k6p7ZT0STZq2sKhaYuXrMwcQaO3ZsrjeIayfW+t2mqrsSQAKY3oaixVp7HYzSjj4rJqK/gueOqr4C37osGuThBKGqD4vIXmbuo6bG+y+Xy+CzJyPswtxi5h8x82cqlUquwgVticitWITDMIQnSOYdEh48ULO7tph5TZabXHI8UF7EY91DREuTZU09YyXGNy34xsRaW4HrzmmnnfbBvMr4hggrOoRTL2R9h5PmiZUDOwtWZQRjjMVOmKZrJq2qI7ATM/M0fHIRhmGtk2QGE9grssYAgOAynlGlUdYx+HQEu1/ejt2IQbIcx24i+jJW3cqlD83qunJVNOnyR6oe/dZafDdX4yCdrJv3jCMVXIOgJTXGwIUqzLp3ZdWHSSAe2ydxD8qicXlY0DzPOyWLDsDD7u5OCS7GnDHGfKwRwF0biHHPRD3IHSeuZFnyGX0HHdoCaBoBFn109M3KJ9le63mISMDOXDFr0hWPRZVLH6rrCDxEhtPqZksCR1YCOMZMLxSOtjNXXHX6ZSsjO/OB6lEw/VnDke1lq/WWBIaABHDcxlElVlCsM177ReElj8wJZz4UlS95eIkUx5xjrV0NnQTuCrFipa49bwgMu9XFlgQGTwJBEPx9GIZQ6uA/LuBneFf7KR/5sF78wK168YNR+PUHfzSiUBiuqrDxwXSxP3Zb6vUuH7zetTi3JDA0JYC/LlgMrZ0xBuaG0YXC9KN1xn2fl68u36IX3hfJhfe9JBf88ILKZ1e8Dyp2Zl4LeiLaBkXM0Bx2q9ctCQySBIjoG0mXIGPMVWiqPGPpNZWL7o/CGcsi+5V3wsSvPRjpV5cvQTk+1Yi92qE6fxPGYPg1DlI3W2xbEhhSEhgGUwMz35gwrO4vFosljEK+9MNyZcayWeUvL10cfmX5nPD8ZZO9+dGx8Y61xRk/4TEPA34j/8khJZlWZ1sSOFQJwCUJrlMOKLHfID63ubxEpbMC1RCfURDR1+KvjV91tPE/X2V/iHeoHWvVb0lgKEsg9mqp+uzheAePdLeDpWMACuUugJ6I1rR2q6E8A1p9HzQJxN4js/GJD9Tp8EjBp+IOWAAUQIQ7GHwtJ0yYMBK+gMz8l42chAet0y3GLQkMVQmICHwg3Q6W+0emQ3V8rX63JNCSQEsCNRL4f826WDz1IoxRAAAAAElFTkSuQmCC;" parent="VYL1K3xwnHBBIEN77Z_S-31" vertex="1">
                    <mxGeometry x="13" y="30" width="120" height="16.82" as="geometry"/>
                </mxCell>
                <mxCell id="AMXPUKCULZ7krPQDVFKc-1" value="" style="shape=image;verticalLabelPosition=bottom;labelBackgroundColor=none;verticalAlign=top;aspect=fixed;imageAspect=0;image=data:image/svg+xml,PHN2ZyB4bWxucz0iaHR0cDovL3d3dy53My5vcmcvMjAwMC9zdmciIGlkPSJzYXAtaGFuYS1jbG91ZC1jb25uZWN0b3IiIHZpZXdCb3g9IjAgMCA1NiA1NiI+PGRlZnM+PHN0eWxlPi5jbHMtMXtmaWxsOiMwYTZlZDE7fS5jbHMtMntmaWxsOiMwNTNiNzA7fS5jbHMtM3tmaWxsOiMwNzRkOTI7fTwvc3R5bGU+PC9kZWZzPjx0aXRsZT5zYXAtaGFuYS1jbG91ZC1jb25uZWN0b3JfY2lyY2xlPC90aXRsZT48cGF0aCBjbGFzcz0iY2xzLTEiIGQ9Ik0zNC4zMTIsMzkuMzc1SDI5LjQzOGEuODEzLjgxMywwLDEsMCwwLDEuNjI1aDQuODc0YS44MTMuODEzLDAsMSwwLDAtMS42MjVaIi8+PHBhdGggY2xhc3M9ImNscy0xIiBkPSJNMzguMzcsMjYuMzc1SDI1LjM4YTEuNjMsMS42MywwLDAsMC0xLjYzLDEuNjNWMzYuMTJhMS42MywxLjYzLDAsMCwwLDEuNjMsMS42M0gzOC4zN0ExLjYzLDEuNjMsMCwwLDAsNDAsMzYuMTJWMjguMDA1QTEuNjMsMS42MywwLDAsMCwzOC4zNywyNi4zNzVabTAsOS43NUwyNS4zNzUsMzYuMTJsMC04LjEySDM4LjM3bC4wMDUsMFoiLz48cGF0aCBjbGFzcz0iY2xzLTIiIGQ9Ik0yMi4xODQsMTYuNjI2YTMuNSwzLjUsMCwwLDEsMy4xNzcsMi4xODVsLjcwNywxLjc4MUwyNy43MSwxOS42YTIuMTE0LDIuMTE0LDAsMCwxLDEuMTA2LS4zMiwyLjE1OSwyLjE1OSwwLDAsMSwyLjEyLDEuNzU5bC4xNTYuODI5Ljc2Ny4zNDlhMi45LDIuOSwwLDAsMSwxLjYyNSwyLjUzaDEuNjQxYTQuNTI2LDQuNTI2LDAsMCwwLTIuNTkyLTQuMDA4LDMuNzYsMy43NiwwLDAsMC01LjY2Mi0yLjUzMUE1LjExNyw1LjExNywwLDAsMCwyMi4xNTUsMTVjLTUuNjIzLDAtNS4wMTQsNS43NTMtNS4wMTQsNS43NTNhNC41NDMsNC41NDMsMCwwLDAsMS40MTUsOC44NjRoMy41NjlWMjcuOTkySDE4LjU1NmEyLjkxOCwyLjkxOCwwLDAsMS0uOTA4LTUuNjk1bDEuMjUtLjQxMS0uMTQyLTEuMzA4YTQuMzkyLDQuMzkyLDAsMCwxLC44MTEtMi44NjJBMy41MjIsMy41MjIsMCwwLDEsMjIuMTg0LDE2LjYyNloiLz48cGF0aCBjbGFzcz0iY2xzLTMiIGQ9Ik0yOCw2QTIyLDIyLDAsMSwxLDYsMjgsMjIuMDI1LDIyLjAyNSwwLDAsMSwyOCw2bTAtMkEyNCwyNCwwLDEsMCw1MiwyOCwyNCwyNCwwLDAsMCwyOCw0WiIvPjwvc3ZnPg==;fontFamily=Arial;fontSize=15;fontStyle=1;fontColor=#074D92;" parent="VYL1K3xwnHBBIEN77Z_S-31" vertex="1">
                    <mxGeometry x="436.5" y="10.409999999999997" width="56" height="56" as="geometry"/>
                </mxCell>
                <mxCell id="AMXPUKCULZ7krPQDVFKc-2" style="rounded=0;orthogonalLoop=1;jettySize=auto;html=1;fontSize=12;fontColor=#808080;startArrow=none;startFill=0;endArrow=block;endFill=1;strokeWidth=2;strokeColor=#595959;entryX=0;entryY=0.5;entryDx=0;entryDy=0;" parent="VYL1K3xwnHBBIEN77Z_S-31" target="AMXPUKCULZ7krPQDVFKc-1" edge="1">
                    <mxGeometry relative="1" as="geometry">
                        <mxPoint x="430" y="56" as="targetPoint"/>
                        <mxPoint x="360" y="86" as="sourcePoint"/>
                        <Array as="points">
                            <mxPoint x="360" y="38"/>
                        </Array>
                    </mxGeometry>
                </mxCell>
                <mxCell id="05XHHoTqskMHK0kYxsUc-1" value="&lt;font color=&quot;#053b70&quot;&gt;&lt;span style=&quot;font-size: 15px&quot;&gt;&lt;b&gt;SAP Work Zone, standard edition&lt;/b&gt;&lt;/span&gt;&lt;/font&gt;" style="text;whiteSpace=wrap;html=1;align=center;" parent="VYL1K3xwnHBBIEN77Z_S-31" vertex="1">
                    <mxGeometry x="5" y="140" width="163" height="40" as="geometry"/>
                </mxCell>
                <mxCell id="05XHHoTqskMHK0kYxsUc-3" value="&lt;span style=&quot;color: rgb(5, 59, 112); font-family: Helvetica; font-size: 15px; font-style: normal; font-variant-ligatures: normal; font-variant-caps: normal; font-weight: 700; letter-spacing: normal; orphans: 2; text-indent: 0px; text-transform: none; widows: 2; word-spacing: 0px; -webkit-text-stroke-width: 0px; background-color: rgb(248, 249, 250); text-decoration-thickness: initial; text-decoration-style: initial; text-decoration-color: initial; float: none; display: inline !important;&quot;&gt;Destination&lt;/span&gt;" style="text;whiteSpace=wrap;html=1;align=center;" parent="VYL1K3xwnHBBIEN77Z_S-31" vertex="1">
                    <mxGeometry x="308" y="140" width="128.5" height="40" as="geometry"/>
                </mxCell>
                <mxCell id="05XHHoTqskMHK0kYxsUc-4" value="&lt;span style=&quot;color: rgb(5, 59, 112); font-family: Helvetica; font-size: 15px; font-style: normal; font-variant-ligatures: normal; font-variant-caps: normal; font-weight: 700; letter-spacing: normal; orphans: 2; text-indent: 0px; text-transform: none; widows: 2; word-spacing: 0px; -webkit-text-stroke-width: 0px; background-color: rgb(248, 249, 250); text-decoration-thickness: initial; text-decoration-style: initial; text-decoration-color: initial; float: none; display: inline !important;&quot;&gt;Connectivity&lt;br&gt;&amp;nbsp;Service&lt;/span&gt;" style="text;whiteSpace=wrap;html=1;align=center;" parent="VYL1K3xwnHBBIEN77Z_S-31" vertex="1">
                    <mxGeometry x="408" y="60" width="128.5" height="40" as="geometry"/>
                </mxCell>
                <mxCell id="VYL1K3xwnHBBIEN77Z_S-34" value="" style="group;spacingTop=-10;labelPosition=center;verticalLabelPosition=bottom;align=center;verticalAlign=top;" parent="VYL1K3xwnHBBIEN77Z_S-31" vertex="1" connectable="0">
                    <mxGeometry x="163" y="86" width="145" height="94" as="geometry"/>
                </mxCell>
                <mxCell id="VYL1K3xwnHBBIEN77Z_S-35" value="" style="group" parent="VYL1K3xwnHBBIEN77Z_S-34" vertex="1" connectable="0">
                    <mxGeometry x="10" width="135" height="94" as="geometry"/>
                </mxCell>
                <mxCell id="VYL1K3xwnHBBIEN77Z_S-36" value="" style="shape=image;verticalLabelPosition=bottom;verticalAlign=top;imageAspect=0;image=data:image/png,iVBORw0KGgoAAAANSUhEUgAAAJcAAACXCAYAAAAYn8l5AAAAAXNSR0IArs4c6QAAAHhlWElmTU0AKgAAAAgABAEaAAUAAAABAAAAPgEbAAUAAAABAAAARgEoAAMAAAABAAIAAIdpAAQAAAABAAAATgAAAAAAAAFKAAAAAQAAAUoAAAABAAOgAQADAAAAAQABAACgAgAEAAAAAQAAAJegAwAEAAAAAQAAAJcAAAAAKNMRBQAAAAlwSFlzAAAywAAAMsABKGRa2wAAKSBJREFUeAHtfQmcFMW9f1UfM7O7ICuIF6iIilcEBRQWVh3ihQaP+I/mqUnEJM+nwgKL51MTln/8R+ORBVbxSOLTPH1JvGKiPtSgjGGXUxAPNCFGUQEj17LC7jLT013/b83s7HRPd890z3TPzixb+5nt7qrqql/96lu/+tWvjiakz/VxoI8DfRzo40AfB/o40MeBPg74zQHqdwblln5oSlPYmmaty1+I6MP3vlxneNaH7ev3+yS40gDSwowIZyZBwMKFg4FGKNHeSqcjRPZl8PV6cKWAxAiZQ4gXAEpDx80dJWwuj7/35ZkNbt4r57i9DlxGMPGq6TlAZQPGvgC2XgMuDqqelk7ZwJQ9LNmd9japVtbg8gdQNGIFhJQuldbRUrG8lYy9SaKVHbi8AVQSQEnAJEd/XijeyS45NapEh5wYLOQPPg60cpZmZQOuwkCVGsX1zOgtBbp8wVauICt5cOUHqp4FU6rDtLvmC7Zy6zJLFlzuQZXq6gi6kvIxbKaBRmEqcebKRZKVJLhCU+Y3MOKU2VxKlReg7CDEy83DnJa91EFWUuBKSiu2xI75ev9SZ6ye1nzu3TSwUuVFSYDLeRfYe6SUU8A5BRkHGCE9M2CxK0uPg8sZ8/Y9UGVWmDM+EVJKUqxHwRWc0oQuMLsdqJSYlVnhPfHsBGSlwrMeAZcz3apPWmUDbzmATMxWAD/Ckkwh/2WfNgcVvSb6ct3c+IZFG+3j7dsh8Q2vRuQRkyEcaNieEzTM4/C49nH8Cymq5MrVDZaKOPeP3f6knEuK9RRfiwau3MCik0rG+MkYHThjZf+YWDWaaexIIrABCVhotI1QYQutjK3dEzxlB2mgmj9wcZ9qLoBBwkXQG0xyn3L+b/gOrtxmhuIX2hG7rn9v/8oAu55q9BwmaMP4O5TRz/B/pRpgj+y9f9SnjtIpcqRcIIPKUbRG7Cu4cinuPSWus9X3/te+PSAWkm9lhNyaiAdzOf70jvtwz/8R4vKs3Q8dv0MfWAr3pQIwI9s85EypFNBNkSpmrj+ckPgvKSMX4T05x7txQOxdlahXRBec8o8ccYsenJv//i/n8QVcuSVW8USz01qtunn9wUxRbyCadjtA42wUzQi0M/qcRtQ7ShNgfHWu/XSa312k4JT5TuNlB1bCzFC0Pt8pzTyeFtWGU1WbgSkUZ8DiL6F20LVfjP/DyWXPOH+Pv1sExwdIHEAgNGKVHQcery+rMC/8PJVcuYBV7NGKUwb1u+7dA7UA+XciSHcRDb2dG8eFnKa9KEjanXsaT17v5tVixs02WvdLgnkmucoVWLyC1RA9ClLou4TlYVng71Dsf9TYocUEi9u8kg27uBLMM3BhdDXHusA9bGo4ui5IauuHk9OmDbKmDx2hxgYwRo6GBmUXJYs/f4cOAMYCtpHOvamKnD7rEDLm2qS9zDaivwHZAWZXf/nT5Am4+MjEegK6B4F1et3gQG39lfJB4oMBjT0QlAJj7NgE24IA5Qmjw3zAlUiVEp6CjQt0KkcFNDJbDlU+JE+c9ePQhGlH2ET13dseYCyc7Dq9I6FgcGUb8vaIjnXG7MPk2vobZFWczxjDyI9dySi5AJ3XMHLZZZZKN2VaHOaHTq6h5+kY0bKIPZWOQLqXI/3/A/zeolGpUaqtvzFQM/24PPMr6DX7emHhpKAoKPnul6XuuzxusgErOUrJI9F8Xxl5U5XcX/0OiWvnASPj8DsMSUEaJQEDK/v+ZNvgCvjtycwC8mob5M5qdJDfJEzNDM7+zAUWY18JVO6wjDjmWpkJ5CCAaggiiiDnGEjK4bg/lVCpVp448w0lTp4lK+d/Zfm+T568fqzMFKBtDvRnT864KEhycUKsyp60vBdvk0Swtn6y3D9+N4Ztt6HyLgNNqDyjERT91hhZDXAJYnLByvgn0Jme44YF1w6jRbz2e5XSf1q+W9XvYIDvKITppaYISTkUEhXGWnqzLNF7AjUzOd1Fc2kzhTlLr0wUeYPLrn8u5pROJZRkuXbmDHR5PwGLrkdF8W4mQxoDMEnpMkzTIEEsXOsvxrZRUVtONOVdp/bTRDKJdOPbIJVe7txywmaLpImsxQ+EZDw8GWYCL+c/D7uaCfTOQO3MO8nE+hOt0vHDLwmw5AEpmemDZkvBkRkv27O+NWWLZwjr6penGjzxUDRgQXeSBp57pkbY9YRRGD7pMcg+o6F0V+R7mHH+X8R7RQzQ1erGFTsz6ebPVeOv24sOsR1AmQD9vhLdllW0tB+ABS1rL6W0iQjK/yqPD/k6HZi+04ZNlESNREHdv8AgtAMOcNMMAG8BHPino0IOkoaNj6uDR/6TfLmGx/fV8bVe0ogLwshkWEZGwwpdC9ZdAxkJ2z5ms2dFX57hOj3bjOwCMKwPdKgXa0z7MSp2kiUGKMeZ9h7C1gICr8YE+leydN6/4JkVMf3q1g6Gsn0dwPhd1P+JCbuXSU9HEQWkr6mb0a09T6Ls3s5HTraUWoYiwBQSDEg1GhPOAxnj8BuLhJBYBklJKbsO/o8oSvw5suoh3hgyIhlS9uTBzshaiIHVteSSRkyeilYWziwRJ8LnlaOUhG88QN6rfR+AuR3SZbSJ5bxiCNmIUWJEENnDiiQ9qi5tXE0+X2FS4jPp58+xVY92KKN+9HZApNvxiMEAlzSsH4Amd+ljqGTtM/gvR3mfDgj7Ne558PhteM7tNq/uVD9fuUE7/IxmmcY/g74ahyQLoByDzdihByPBCYIoqvLQms1qzew28uGzvgJMHnEBL9dUc0HoMHXDoifN/rl9ErWRO1oyht3oEJWNXc4zG5ym4zoeusHQ5gOHxmngKuDnFoAKxkgTr3llrQTwnwWo/kAi93FJlbfjKyQYU84UGDkNk9MHIF2IGdYJ4L4N3e316EOjsBICanm+DgZVuaLiYhRjKtI5Fb9+lmUi9BH0v79R2qo/JOsbYvlm5+Q9r+vXFbiCUxZYMNNnQymG8oHK4DFElX7AqHYTKsEobRO6D9sMECzHQP9uZWk1upQG73WVhgaBNHifbnBC3VEaFW5GuSZBOo7gipzJUfLfhAkLFXnnOhJ5Yq8p3EMPu+4xH5XHWFFZiEwq8TScGQWt+UnfNgCEG6QAVY5jVJiJfKebgJUghv4NXdXDChNu11rmfUFIxKJ2MqnO4zniT7rqF6tataPOf5WqHVvR1WJgwrjCb2z0lI6CeWCgQEKfacOP20Y2rnM5u+68vHbdI1f63XaPjsDltbh0VFR0hcE90nAcO3QdRno34B0jw7GqD17viiqZHVs+/ymyaYVvDHdEbyGRNkY09sXKD6TDa5YCXKOg6B+I5AwmFQDveHSh1SKp+FgbPHKrXyNJrjfb7CrC6PGCt9zo1RnDd3cc8lHPohVfHjqEqcI1YCgklsFxydSJ30pBI5fvXdG42BBaxg+xlsb1IaXyEmhyiyG82lAUnRTGEIDSS7G859pAqGoEuuiC6i4bm+zqFcTMyfZeZlhOArNJrczEPHs+bdpAhQhXojCzkKZeunJmd4D5b8oCuSy6vPFjz/IskYR2r7p7R6yf+G8g5wX8WoEvXuakS9zSH8JvasXi1qEpbz+ukJSTzOnyuUfniwtzgsucQdLHDt128R37h6eGZClwEWWsHu/wuUC964T/khijP+hYOu9LfUCvun/9/nZFJdOgCLyIrt8IMHhA/5quMKw/O3lWtV/lTm7zM6//AtLnOM0zK7iKL7UaBFGtngz2QWJRrnfonYIW+3Ys0HkNWd5oaWXXRy77++WNnYpKp6Mv/BOsIBnWfyGEipslV5JLCAY9fpUVSu5cc9rOpVdWcJkTTvr4JbXkCbtGolleBYaONKgbCWMmfU/ShCtJ5DFu4Nw3HAcYk2diSVALChxNFxqyiwqHQrL9KKi0WnRf6ZiF3BUqvWzBlZzmMa964AbTQgi2fbemvgLTKZcCXFjzlFYzuuJ/iF3P13Yub8w9zWKbQZkGtNy7O8Ci14D69w0l4DyitFbDKpCK2pmHG8I8fKAFSC9bcEFYhK1o9E1qYT5PIPQHnGPpfBO3n0C5/JmydN7atP++dbdn2SNbYXnBqg/2gYE9HGCMXqFo9Dt+caQQ6WULLqu1Wn5JLbm2bhQV2MWMsiOM3SHbBWa+hCH6M34xr1zSVVoefBtW+och1T9DA9SRTfuhOV4SnDjzHJ2np7fIba45QRY2+xl9LMGVtMYbI/Inv6QWY9K3NEbP0lt1krmz1RUq+b9mSvZNH2XIgF9DircAYLo5xoQKUYMppCmEbwTxwSWllznhXGYJS3CZk+FtxR9di7c4pM0PmurfnS/vGSlZi5UtD3y9L4wMuwue4+bZhhgmzu8Db1YZukduzdfYpMDu+EU5Uigg2L1ZwhJcVl1iAVRlfRUrDs4Gs0YbIjF0hxpbEj2+802Df98DUZY1YrWs9hyk10YDOyg5HgOic8mYG7GCw3uXT9doAlcxu0TsgDkbQn0iusO0OE/o8+wdImlPk8ceg22rzxk5QJkiBf8AvgFkhuqTIM1OkyviFxjje/Nkp9hn6xoN1HEyzF/l8q9LROvDbhtyor74EPtb0AJfU4RBxqG3PtK+fo+1apSyF7BT6UOjco+NKRo9k0y8Ja1ieMir1Jfb9EkC5HP0z/p7E7gAr7A+Ar/3Q5GXa+pOgagdi/wGdOcHqYW9pWsFJrxMIg3xbv++GxMHlGjgdZghIL3AxW7HQrg9WSTRSd1ent4IEXNyZryk4hjAZdclpiJ7eWVU5Aw4Fi0vzR3GtkOSLY/JA/7uZV49mtaF11aSM6YfSbBZ11M6VmOlLaWvQXphPZvOUTIcDfRMnY9nt267RgO4rKjwZZSIDayYgB6KbpFvJN2dyDeJsXc0UY30GqmFVbTirspzJVV8QFK160m4ztOVDKKo/BW8W9ule2H1LWsFT3dg5f9gvsLVqj798LPrGg2Tnl3fA/Qjf2OaHdE4q6LPYWnyUuxGhn5A+zOmVUKafaSqgd6ha3FghfqdL2jajSjfeDBgrKyIFWTCrCeVZfPWGRmS39Pe9tgmKVj5GwiAtwGsDtjA9mDHUocmsF0yC+7WTUbml4HFW+hm5gJMYYsgk1e6S0KQ1Rr5fNZOm3LJ5cHPcNg0NECq4xpZ1OQHT3JR4HE4VnfUtl4gMHorEq7BL7UmbRvu/4TZiKbY0vnveZIpQEyGH0pxIAB0VO/X+FvRaIUTvv4r09jaLbmSy2sykzIbzjJjePL87LMq0uGrS3uDwwkQbefi5GdILAOweNkGo9v6NlOZINfOWKg0L1hTcIHXwFxTeCouyeC4sFfkU4ll1bmshp6pF/uu1hyQaurPgz7JJVYtfimJlY5M6SDoSJeiq5wt1cyYkA4o7zsrvasbXFb2rfIubvGpl06vPxN2Tb6v8gzk3t0rWFBSDTPCJYIg3IqzLsZZhJe0F9e7nBCoY4CVmBMiThLpiwMk1c6shcS6ExJpIqazuhttFt5UorXzlQx8xHxFlnhlG5SVCZkKWtmW0mfC5QmzTsaHWhogscLQReyPrzTSAWzxzSZ0k9G79J+scWEWTgnJlVx1ysvqv6ue9U51pyoNkhirjMtiZzS+eytpGgdbF9aglqELTJyG6SuG4Tnlo8IEPx0Ug5d1JyTck7Hmedht7ZG76d2qUFwbjOXgfI2XwjR1556m0XyE6oMzK/UcR3rgdTFDC6NyMwjwdqTYr279CXFBPSAWV78hCtpozB8eJMaV7ZUktILOeO/jOHt/YzQa/Zw8NrZsJqsrxtUNxcDvHpTlbDCPT704dIlFkM8ozfP4iLIwh/2LoW0XHSbJ9Mi4Qg4XiHgqTtA8HE21HZtr3+03/Z2VONhuV/uBuz4gDZNgriies21pno0Up34aqqxsP4nR+N0wmp5BpKCMlo4S8h8ATelUpipEEtjvhFDwwc5bmt8n99ZCkpW4C998cDwe+ykUc668uwEWrOg4LEWunlFwCeuXVVRtDxzNJGmaprEfCqIsw9SBMSo2cCQSF67Aca8QquydftsH3ixf+/aa1sfG8s22BTuODyQcNibEhRSJpPyy6lypSPlfGa3sv+ssIqqvYbfKWUhHxul9WJ6PBqTBtMWvABZ3sM5fQanWVBHdbzKp+0cw4Vmq/2pv219Woj9Dy7gSJO7ngkxsEROfVwLV0wqe4mpYIlWpIRxUF1iAs1n+A7TICV5285bzl/MWclUQRuPkwhejocB3veOtEMksd6bFISG5rKd9zC9nJpbruf/0NceqVH4K8TD0xtRXNseZIkijqabcWEXa2yDTX88W3XUYP49+aGh/shsZXdh/Z94n1oQbQnJs1xzYqq6EeKh0QQdOLWR/xk7yOwoGFjKt3DVwJCTHrUQUwzm/+gHeIy6m2diCSrFzK4an2Gzrv/NVcsUF+VcoEArl0CUAJo9DK/uP/v/50SCHb+WOho2j0oGBcbIS/x85FL+HvL77MEyVuC/7+XVBWWmbCkPDj5GpC2CxvdAAXlBEbTZZdv/W3ATniMG/M6TRaYh1Tk5gdSeV6CgDmNR+uNvL5xv3DHZIUNX0j07ChCpGUBnnaeV6nx/VzciIeEf07FxRnYUzCkCcTAX1J6jgSSDnRzLV5pJaftaCC4BBcZbbpKt56wd9Vc7yTsRSYG54lSrsfrK0yZORW8Whx46FVoVPymQOwnJShRfY4Mq6tT/MGdODCL6Bi9HotwEs9yQmN8Qeiy+0ch2tYBcaX38EqJgLQJydUHZ590zJ1RIRHgqc0XYimJ2bSEysy4tbcW48ewgEYUDi2KlI/CVk8dPYSo8mqpG1oNEwGq71QXE5SQMiqejjRo40AV3gYuG0V/JOb6/IDHP0LFCcM5UPuvhbgoyuZxDBaMhRXnaRoB/FBdKIVn6eIQoADGv6FBZnvxbH1002hJkeILE2DR0DcC5HkGQKzuKBjugV5HR3bHnj+1miuQ7CMqXjALGDuIh379CYKD8DrDBnjQ8jjnyTXGixOIElt1AorIjZ3w4obU+hnX4LsUTLmJScJojS3WJtPaSspaNkwp4DcJQAP2vVXWEoXSYS4VGlpdHzNQv4QloQ5ORfd/lg0pI92T3zJzB7umhUfGdwkUphQUtg4swXkDsHVo5ujI0UGPulVDtrdkYylNTOPAwnL2/K8M/+mMRgC9K8K3rOfq8isudMwOYMLAdXO7MTYh8KabrXPtS7EP/ARckGjrC8SNW0vXj1S9I4IS8GyhPrnwEDz0X+DoybCTTAos1ux3d4ukZS6Dq+WTdcZvy81Vzg1JWQJ8XYJxplC6Ny9V/yNnfokrS8pZwu+q88ewYMxrGptgjON3CptPP3rrsSXmBeQZSsx4+3+jwdOwQvOgBWd/LgAx2I3+WYhH6UhG85SI5KqxHqXOdLAUsjd6pS2wte2LK6qcu80dhyTO986ranTiWDDy0U085FI6mMU9dsmx1TcbJd986r2Yj2/zyaMqyjLhxUCYi7f3TsH3/TxVuGqIqgXoo03oBn0vxvCLV94DrV/gD1VbKiQMdi+9vGNAUkJNbXIPxnKqEv+n2cd0fTqHWaQNZg38EeEynZPTSU76POgc//KXu03KHW+DDiyDfJlSAv2l6P62b8nHWPAjYNq1oEBx80kYaxfJ1Tfg72pDiJX4OXX8DPTTocYFX4HY6fQ8dfQSVTOksJxJ7DqYd5deUOM+uKhuPgNOFRHMC7GLMaDl/lDQDfKtLEq3zrrjMo8RVcnY9M2Aw2XIxiQf/C/4R6k0EBf+T+HFha/C3siv357oEB7GYp0LU8uEWi7BZw9Dn80MKRh+eOl4m14zcD3+l5nkQWupUkeVMUHfSNTykV5xJVfTEBMNvBI6eRVzP7CnOM320f9JynZpFsBfAVXDzj9qbR78LofiWMfvMBtO0JRsCMRfgPn9TpanlfMhbH6S3CjPbOaAtpODGWjWinYZ3N8z8XqTAXmfwKtq6vvAcYBDIjsxSFPU9WNmFSuoiugWrt1Vs/UOPsNgBsDgj5mAiwuCR4muYtRpZtOCLhaSZKF3W0bV9cLKnFOeFUphbEtY6HRq0NTVu7Q5LFP+N7OpUCFY7AOLIfY+pOxuh2URBbVZV93N500mZk5KwLdUjR3ubGT0ITbpwfpwA2Y1MhJY/xKAu+rmWaEg0+S9b8orjASpUd67OihPy9aub7j2pEfROrYQdBxR1EBWEw1fj+ReEL9AR7pJj2+e4FI9F7eOm0cGZjzVymlQCXk7U5hZK196HRnyEN/iMD61bspwSkQCWVO7/q98dOv1vT3mUPfIbDOZ6QBCUKk8O1AFieUyddXODduMZmKqr6dI8Bq4sUfmmffxKkMsEPQ6j6TaH+wldVkkSU1nvGfI2yetpYddnmvO2SXEIEhEG0pl3m2px0SOF3O5vGJ1p6UVcEtty7JV5T/3sZu5FRBz9GqxufrwSDhfxGfEHtCbLy3qIWITfnAaRG0gmikoOKX+R+w88YvutcfhLvOm2cBq3I9HmqMbCd/SVTrDtJjzHhtni04xGCU5adxO+tcayFDxdSaZcAl5NJyPQrZX4XmbcrFtz1qiCwBzDIeB2lcdhtQDsk7OfxwM75ZM1jbswbZc4wO/KNk9Q8ViaOskoua0OZXWZl5I9vFkbFtrc0mD0wTcSt1WoO6nHcu3B/TFbu9ttAmoOOsgrWgctoXS2rUuRDLAAWP2vAUhwKchckEje22s0k8C/QPhHTcIJeEe1Y+RSpWO9YCx0zfroUejuy+HAzvZvDLlZ+/uhlLrtcIJ/sj0OUYiLpqKoilZUw0LTvKVol4suvmB9aGzi9DlYjka/ywiI63WQ3TXwS5Q8BKXaH0rywCJZ3l5zkJ9xIwYrEWztA69D3VTJ4cLKbTx7u4jJBp9FzmyF4St3gwuB6LqgK65O3Vtr0MfK/lyfUj6JfDjmeBfGB8liFzGSs/4op6H0q3oIIac4/ZfdvxpY2fRisqb8Di/C49LoQP77uPwbF/y+ySm5pb16IYX7puWCFfKSm0YlMEAfSg9R2Ej85RrZoKgxwn6AgS/2i2HpDjzm3bnCZg7iPWWmzjpeXbw1ExU2YkhjOVWqAm//bTYlaQc6vW13sc7r4txsrwnW3xhWRzw5MwaB+DSTZT9pXzitJYME2KGiLW3HMOr0ZvBuWWA+ZkFnCTtTbYyiDb+CywoXVubndOldS0zf3m9b9K0gv0OGElzfAlPWwmkOZ5lxJIKw/LqfKX0snFZh8Xq93Rpo2KZhOwYTwb7DU/navTgDMi5gcL4UWtw3Dxo+zAK5h4CFid/82YBrtjRyv5x3s5tzcbnDZ5QaS59iFFeIfbf7lBmyVWI30d3SnAybheTQU7IsI32fYE27l/K9izY23KStK+UNWDYLKtAvArVOSwOpmVAcYuDbe2f5Wt08RblBfc62yMYALksQyktWLnvhpCen1AdICprocpQfg4ZvSwYFTU159VyMHghNbj8EM1BRIqCONIQQNli6BHc7NOraMJLI/utHDDeDKNIIls/FP74ov/+UyjBn/CjC1dRcpIeLJWCy/+SEZ0+Bi42l3Cr37Bht8oQtezTQ61iC1EiNbtkINxApYweuEdWY8WOlbPCUDuJJJF0/v4vlBv1kEIpYn8079p0HM5o8PVLRekvLpuyY5IGmtE9AgzwJ/Bhl4wsj7lAmv+mnGsda3zHhJ0WUCV+ayCR4RkmVO6gWvr8rSxlUaI4uRx7Z02ngiwvEQwdNCZ9yUKfrT0fa1u3F1+wkqvQMT76cZpBYmqrH44dXYssaCly9nY6lVl2iFl1QaJnChUiOpwPTV+Uez0+84v4sH1GegQ7xkmEjmO6MZO0VVlbsIPxuhzxFJFO8AV0brVVTOM+jKS3H2/CI/WZS0GjjvEjktJnDZmST8lF4EJgDYlV7BcuH3DQDD7hswLixvaZnhJ+PKIW18l/Ii8OLbgNIBRnrZVka0P8b/umCZ0d/rJ26VNzq7UWIqlglcPACFmJuKkL6aUZsOK/wu1jLvjxhaP4lWaZhmgfJ6KLqB64On33he4bmUZwqBCTO+oVF6FyrGtIoWy+N/W0mVP/hdMtSDa9XIElzWo0ZsBMSZlz4WguFwkD+iK3wqQ3rhkR2tMfU+uWb2KT7mX5JJV9TUD8Eu1kfBlxMMBEKPwNr419BNvtjW/HCrIczjB2tFPvfX7CzBlaTNPArwtWtEpljv/ilayO/BtbcwjNSxiHOSnIDjXR4PTKw/URfQu29r6gfGBfYEJPcYtDCd3gneMO3v+OD84/GDN6/oCSbk6hI5TbbgAvlzzUT7q9gjPxZvq27GMpiHsMHgHxkSjDP3BHSdvwrWzh5hpq2X+QBYAao9iVLxU6KDhtJRfmAvWaBWBV4hvq5+4L3V/IZ8ukROry24ekSx5xStb4jFJGURbDkPAGvpqSEeRkgAvzGapv2O6yEJn174j58SDWD9N77/PQnFMxqSYSzFmtj7FEl6hrx+P073LL7jUsvOcKqnxhZcPFIPSS+sIFu4RxE0fkrNPSDDoODjOQDCRuEA36dDE2dz5vcqh7VlJ8Ql8RkdsFAN3Q5nnLBGicWeJpEHMhtedySvbgqRWpyGrODqMenFKVu6YHs8Jj8FgP0UT5kAQxfJTlKJ9jAODrmekIas5eDJlYPj5gamib9D2U4DvRX46YEFb/JrItLf7h2ydRPCwJriO6dSi1OWs1J6THphiEhW3/dVXOYAS2x7ywBYQuM/FkNxHH20a2G/CTcdWHxWe5Rj+IZ+OB/sDo1RqAJkpFF5T+SB+Wj2KyKoC2PtHR/7rWfxHAuVWjwNY8vgPhYuOKVpCRpK2BhEI9GX6yYZ/Xx5ouTUmw+SAsr3AKc7MXLCB9f1jZYXgfF9kOsEov0ieuiXi8F8vuDPO1e3dnClqEkdHZhgf6yAA1IyKcJZq9Kmw8YJVP1P2LHGwECKo5/0ZUu8gHNV2X1cYiWA5eOKBz15Vh/s5OFuPu7qCFzcvgXpAYAZnRsRaXzT7RPU+9NnHCAT8TuQZ7dj9MK/j21MhB+2wbR1+LcEesnjsSFfflRICw9d984wGqAXCoSeDv0HSjUWQWssChPJDlCzKNSpLC7gaxQ0dNr0YdCtrsLE/RQUhHeDGXWBR4wKufKO06ef6jxky+ZCymNkVvYnO6nltr4zCmSfqbX04hwxf37WPpUCQybe0l9msUuQ6TTkPM7UynlPyTBMJ+RtDgBR0V6Krhz4T+hksDU6dPg4U5VCL8aUCj5iQE+EeWmYIR987wR5rwejNzCq3dfRqa5z9b2iidMPlTVpMqxWl2LCfjTAdYi5oSSqZQMonq9IwjNdyntGa3JYnjyiWUktt8Di2ToGl530QhLF6h6TbMKHBsSvxW/iiLjvIe/L8cM+gAy+J0H2BRjyNkKWAiBvKtLOv+fac1g969PqmPr1FZAY03H6zglE45jMSDvBNbAN6ADO3sChET/tZF+uIU0X4EwQG4ddOkEpNEyTxDPw0tmIdTJOpDkO9xYvgGqi/QW5/katkl8utrnBTmq56Q5ThdJZfVNe1tf4hkUb5RGTOVfDGTGGySMueIuHZ/j78/jxKpV9MfkT6fDY39AzbhcoPRJdVbVFZgOwUhPLdgjsYew4gQWHSUMmtKqbVmy1iEvI1CUhUab4lg79OfCKg0pUy2jdngAGFaTh6IKHBMXqVbEVD2/vDtPdhMbPQvcqXs4E4UfwvgwbUs4ADzH5nAnaRDvfASn2MIZZj6qHbnmdvPRre8Dq8vDq1g5YXGrFN7wacZtPztGiPsGk4cxqWogt8XneUU8G7hu0WEvj+jij92J+rQGFfxFVZT54DehDlQ1B13MRdLXzNEm1HVH2HzDwCKQxAxILu5FyACtFTeJzMtJkLa5dXnXDqoNT3vqrJovQ14QagBZSlhyd7AIzgYXjNSmf8iJzKoXY/4s3z28uln6lp9XOEu/EYKpPJ3WPLsWdQ2XNBWvCmW/Bbw78Ipn+vj7jiEgsFn9Crq17B5W3Djr3eZAKmNzWbWzlBHDln9JVcSpyPcbsGpigbn9/OJGkbzn/lk5XMrxro+x7qhh8Ez7/ykw8FottkiTxb5BwmUF4phjVsr9Bb30NI8bX9i5d8EabRaxieHXp1KasuNQyeTr0cCW5eJp2hlUwKczFqsN8PY2mNDe9G29eMBeF+RnoeASJr8YvY2pE+Izs2M9yD2L/LWsGUpF9AwB0TxcHlyAejYNNYCKxcOcP2oMtYBx0u9Oh+NAUYdiYwn6Lyvt5rGXAbRxY6fDi3iXrjYUzc+XAyldq8bRcg4u/lLRvWXWPdE5PASxBV8u8RUrLhJvwAbi78PwEwMIX0HFdaBuU81ayfo7lrhitKnAIBEvYWsHmKedw/LhIaGCWsXBkAEaVmwAkfvx5G1SttYj3ND6Acbcik5tjLfOxFsvFaNYyk/w97fQsnmIhwOLvu+4W+Uvc2XePHGBNEbs1Ycm3/fx/uaq2kD+rY65dJFVUTkSlnoNupxKfWEGXCM3LwuFb0CG0Mxz5aBls8UamV3aJJzINHz6ASYGxw3BcTkQlu5eQ5sd1kiwzveI8d1kA5ljlBp5NsvJ345c3uDh4gHroX+YViqgiTnDEDSGex4UlGwYpTkOEhGdVk92d0G+sncCETticcNoxQJIPvnKAMrqVbCIDOh8ttXO9uurJxJRkdzgjYgpw6ZG9yTlIzF6sFtn+5YBWuyj9ML3DTQX4MuPdrhV6niimL2DvurCj6ZRX7PIoNX97o3hhepa+nNZ6gj5Gjns78wQ4Hk4WIEcCJRC8p2n0NlXTluOb0A5tEDqioWphHLABS5F7aqCnI8bZrR2woDZAnZnZ4CyV3LEKBhfPAuJvrnVWPTeCtKbH3lei4g4o2bDmu2QJTt/V+IdBK4T19qmXTkhywGUeGXIK7esxP/pdctI6E65/2SmAXCdLFsj63VLx3bNg1AdMxXFETMPcpGNtAXYItlzQWKTtnpG+bpLwgk/2KgwvsfdzxJ6Aixe8NwCsY08/AIx9H6M6nBaT00yvQNNap4ry1e0PjsR+y9J22YHF9ay6iNcl4AYaz1yW+UfkQcN8bjKfOSrPCMyV0Lr5ceVbD38cUFr/DLvYyWjOQ/BKcvzI/2MYhceESR63v5Uk+fsdjSduzpVsT4d36b5Trego1FBqlWbKz7H8T73g5JqtlaCGiruKwgnBNnEq6tcNwdkMx+EchgOwrioE1X0XpnG+CqrSB9sWnmiey7RJpye97ZX3RFspyAKfq1y+gItnmh1gvGDe9/G5CrsvhScNpNzeaKe8e2dysOOrp92iPhPe/dks0UlFm1ry3WSK0jK7dlnel4DsYVak+9kV6vPzDVw8k9wAKwM9TM+tMrhP9hjkv+xITfYYM56wC/fS37duUU+kriXpvXX3NAJCfBmx6DLp1be5ukFe+GKrIkUBV6pWsymXycL7rwekaOlN11z6LR9E9UTjLSq4eIXmYkSx9IHeAC4n0ooDq0hbAE0sLTq4nACMx+kDmamuDB65Gmkp8LBHwMUL7qzV9YHMgCjHfOuZbjCT1h4DV4oQpy0Qi/l6cAFiitqeu5ZjY+xxcPHqcgIwHo93lfzq5bIQnl4pO6eg4roVKrOkRtwlAa5U5faBLMUJ52oDf6NU9dOSAleKtU5BVsqMTZXFzZVLKR4fs+O20zbG9EpPWunpK0lwcQLdAIzHL+cu03nXx0vKXWmDKkkjr5MSd25BxotTDkBzD6hEySKosJLSq7LBp+TBlSKeg4zfW+02SsWxvvJWrr3Fw3pyIJAGE6fEeqUCD7F25SGpMmkvG3ClCM8fZKkU0mBL+nhr4kjpTdgNFE5/K8ctmPS0lo+kSlGdupYduFKE82s+Xab+ffN9ehd5StqZ4yR90sBJxcgXQKn3U9cU+L0FfSr1Yl7LGlwpRiWlBZcU5g26qTilfy3Pri8bX3sFuPQFTHebwpnudRt9Sn7fJ6UkKqBsFHS3HOl14MpkQOmArfeDKZP3vR5cmQVOdaHcP603eaUv8VRTIOIjVCHCffzYtsXTLXW3z4ErW4WkR3o8lvn7gsZ3k8DR++2rINLzoO++jwN9HOjjQHlz4P8DiEIsbpxvwWgAAAAASUVORK5CYII=;strokeColor=#0F828F;aspect=fixed;" parent="VYL1K3xwnHBBIEN77Z_S-35" vertex="1">
                    <mxGeometry x="33" width="56" height="56" as="geometry"/>
                </mxCell>
                <mxCell id="05XHHoTqskMHK0kYxsUc-2" value="&lt;span style=&quot;color: rgb(5, 59, 112); font-family: Helvetica; font-size: 15px; font-style: normal; font-variant-ligatures: normal; font-variant-caps: normal; font-weight: 700; letter-spacing: normal; orphans: 2; text-indent: 0px; text-transform: none; widows: 2; word-spacing: 0px; -webkit-text-stroke-width: 0px; background-color: rgb(248, 249, 250); text-decoration-thickness: initial; text-decoration-style: initial; text-decoration-color: initial; float: none; display: inline !important;&quot;&gt;SAP Task Center&lt;/span&gt;" style="text;whiteSpace=wrap;html=1;align=center;" parent="VYL1K3xwnHBBIEN77Z_S-35" vertex="1">
                    <mxGeometry x="-1.75" y="54" width="128.5" height="40" as="geometry"/>
                </mxCell>
                <mxCell id="VYL1K3xwnHBBIEN77Z_S-45" value="SAP Cloud Identity Services" style="shape=image;verticalLabelPosition=bottom;verticalAlign=top;imageAspect=0;aspect=fixed;image=data:image/svg+xml,PHN2ZyB4bWxucz0iaHR0cDovL3d3dy53My5vcmcvMjAwMC9zdmciIGlkPSJzYXAtY2xvdWQtaWRlbnRpdHktc2VydmljZSIgdmlld0JveD0iMCAwIDU2IDU2Ij48ZGVmcz48c3R5bGU+LmNscy0xe2ZpbGw6IzBhNmVkMTt9LmNscy0ye2ZpbGw6IzA1M2I3MDt9LmNscy0ze2ZpbGw6IzA3NGQ5Mjt9PC9zdHlsZT48L2RlZnM+PHRpdGxlPnNhcC1jbG91ZC1pZGVudGl0eS1zZXJ2aWNlX2NpcmNsZTwvdGl0bGU+PHBhdGggY2xhc3M9ImNscy0xIiBkPSJNMjYuOTIyLDI5LjQwOWEyLjIwOSwyLjIwOSwwLDAsMC0uNy0uNDcsMi4xNTcsMi4xNTcsMCwwLDAtLjg0Ni0uMTcxSDIzLjE4OGEyLjEzNywyLjEzNywwLDAsMC0uODU1LjE3MSwyLjIyNiwyLjIyNiwwLDAsMC0uNjkyLjQ3LDIuMTkzLDIuMTkzLDAsMCwwLS40Ny43LDIuMTM5LDIuMTM5LDAsMCwwLS4xNzEuODQ2djIuMTg3aDYuNTYyVjMwLjk1NmEyLjE1NiwyLjE1NiwwLDAsMC0uMTctLjg0NkEyLjIwOSwyLjIwOSwwLDAsMCwyNi45MjIsMjkuNDA5WiIvPjxwYXRoIGNsYXNzPSJjbHMtMSIgZD0iTTI1LjgyOCwyOC4xMjhhMi4yMzEsMi4yMzEsMCwwLDAsLjQ3LS42OTMsMi4xMTUsMi4xMTUsMCwwLDAsLjE3MS0uODU0LDIuMTM5LDIuMTM5LDAsMCwwLS4xNzEtLjg0NiwyLjE4LDIuMTgsMCwwLDAtMS4xNzEtMS4xNzEsMi4xNTcsMi4xNTcsMCwwLDAtLjg0Ni0uMTcxLDIuMTM1LDIuMTM1LDAsMCwwLS44NTQuMTcxLDIuMjI2LDIuMjI2LDAsMCwwLS42OTIuNDcsMi4xNzYsMi4xNzYsMCwwLDAtLjQ3LjcsMi4xMzksMi4xMzksMCwwLDAtLjE3MS44NDYsMi4xMTUsMi4xMTUsMCwwLDAsLjE3MS44NTQsMi4yLDIuMiwwLDAsMCwuNDcuNjkzLDIuMjI2LDIuMjI2LDAsMCwwLC42OTIuNDcsMi4yMSwyLjIxLDAsMCwwLDEuNywwQTIuMjA5LDIuMjA5LDAsMCwwLDI1LjgyOCwyOC4xMjhaIi8+PHBhdGggY2xhc3M9ImNscy0xIiBkPSJNMzQuODI5LDMwLjExYTIuMTgsMi4xOCwwLDAsMC0xLjE3MS0xLjE3MSwyLjE1LDIuMTUsMCwwLDAtLjg0Ni0uMTcxSDMwLjYyNWEyLjEzMiwyLjEzMiwwLDAsMC0uODU0LjE3MSwyLjIsMi4yLDAsMCwwLTEuMTYzLDEuMTcxLDIuMTM4LDIuMTM4LDAsMCwwLS4xNy44NDZ2Mi4xODdIMzVWMzAuOTU2QTIuMTM5LDIuMTM5LDAsMCwwLDM0LjgyOSwzMC4xMVoiLz48cGF0aCBjbGFzcz0iY2xzLTEiIGQ9Ik0zMy4yNjUsMjguMTI4YTIuMjE0LDIuMjE0LDAsMCwwLC40Ny0uNjkzLDIuMTE1LDIuMTE1LDAsMCwwLC4xNzEtLjg1NCwyLjEzOSwyLjEzOSwwLDAsMC0uMTcxLS44NDYsMi4xODMsMi4xODMsMCwwLDAtMS4xNy0xLjE3MSwyLjIsMi4yLDAsMCwwLTEuNywwQTIuMiwyLjIsMCwwLDAsMjkuNywyNS43MzVhMi4xMzksMi4xMzksMCwwLDAtLjE3MS44NDYsMi4xMTUsMi4xMTUsMCwwLDAsLjE3MS44NTRBMi4yMjYsMi4yMjYsMCwwLDAsMzAuODY0LDI4LjZhMi4yMTIsMi4yMTIsMCwwLDAsMS43LDBBMi4yLDIuMiwwLDAsMCwzMy4yNjUsMjguMTI4WiIvPjxwYXRoIGNsYXNzPSJjbHMtMiIgZD0iTTM4LjQwNywyNC45NTVhNC45NTEsNC45NTEsMCwwLDAtNy40NTctMy4zMzMsNi43NDMsNi43NDMsMCwwLDAtNi4yMTEtNC4yMjljLTYuODY0LDAtNi42LDcuNTc3LTYuNiw3LjU3N0E1Ljk4Myw1Ljk4MywwLDAsMCwyMCwzNi42NDNIMzUuODc1YTYuMTE2LDYuMTE2LDAsMCwwLDIuNTMyLTExLjY4OFptLTIuNTMyLDkuOTM4SDIwYTQuMjMzLDQuMjMzLDAsMCwxLTEuMzE3LTguMjYxbDEuMzMtLjQ0OC0uMTM1LTEuMzk0YTYuMTI2LDYuMTI2LDAsMCwxLDEuMTcyLTQuMDksNS4xLDUuMSwwLDAsMSwzLjcyMi0xLjU1Niw1LjM3Miw1LjM3MiwwLDAsMSw0LjY2MywzLjExNWwuNjg3LDEuNjc1LDEuNDEzLS43NjlhNC40MzIsNC40MzIsMCwwLDEsMS45NzgtLjUyMiwzLjIzNSwzLjIzNSwwLDAsMSwzLjE3NSwyLjYzNmwuMTY4Ljg5MS44MjUuMzc3YTQuMzY2LDQuMzY2LDAsMCwxLTEuOCw4LjM0NloiLz48cGF0aCBjbGFzcz0iY2xzLTMiIGQ9Ik0yOCw2LjAxOGEyMiwyMiwwLDEsMS0yMiwyMiwyMi4wMjUsMjIuMDI1LDAsMCwxLDIyLTIybTAtMmEyNCwyNCwwLDEsMCwyNCwyNCwyNCwyNCwwLDAsMC0yNC0yNFoiLz48L3N2Zz4=;fontSize=15;fontStyle=1;fontColor=#053B70;spacingTop=-10;" parent="VYL1K3xwnHBBIEN77Z_S-30" vertex="1">
                    <mxGeometry x="214.51" y="340" width="56" height="56" as="geometry"/>
                </mxCell>
                <mxCell id="ZUMBWIuEBcWCyfkGFqT3-11" style="rounded=0;orthogonalLoop=1;jettySize=auto;html=1;fontColor=#FFFFFF;endArrow=block;endFill=1;strokeWidth=2;labelBackgroundColor=#ffffff;endSize=6;startSize=6;jumpSize=3;strokeColor=#C0399F;startArrow=block;startFill=1;entryX=0.5;entryY=0;entryDx=0;entryDy=0;" parent="VYL1K3xwnHBBIEN77Z_S-30" target="VYL1K3xwnHBBIEN77Z_S-45" edge="1">
                    <mxGeometry relative="1" as="geometry">
                        <mxPoint x="226.51" y="299" as="targetPoint"/>
                        <mxPoint x="243" y="260" as="sourcePoint"/>
                    </mxGeometry>
                </mxCell>
                <mxCell id="ZUMBWIuEBcWCyfkGFqT3-20" value="&lt;font style=&quot;font-size: 11px;&quot;&gt;&lt;font style=&quot;font-size: 11px;&quot;&gt;trust&lt;/font&gt;&lt;br style=&quot;font-size: 11px;&quot;&gt;&lt;/font&gt;" style="rounded=1;whiteSpace=wrap;html=1;arcSize=50;fontColor=#FFFFFF;fontFamily=Helvetica;fontSize=11;strokeWidth=2;autosize=1;absoluteArcSize=1;labelBackgroundColor=none;fillColor=#C0399F;strokeColor=#C0399F;" parent="VYL1K3xwnHBBIEN77Z_S-30" vertex="1">
                    <mxGeometry x="222.51" y="290" width="40" height="20" as="geometry"/>
                </mxCell>
                <mxCell id="A_n5J84A5oDOwfL37RB6-10" value="SAP&lt;font size=&quot;1&quot;&gt; &lt;/font&gt;Business Technology Platform" style="text;html=1;strokeColor=none;fillColor=none;align=left;verticalAlign=middle;whiteSpace=wrap;rounded=0;fontStyle=1;fontSize=15;" parent="VYL1K3xwnHBBIEN77Z_S-30" vertex="1">
                    <mxGeometry x="58.00999999999999" y="10" width="268" height="30" as="geometry"/>
                </mxCell>
                <mxCell id="YhIY3sclmvbSK24XRUh3-1" value="" style="shape=image;verticalLabelPosition=bottom;verticalAlign=top;imageAspect=0;aspect=fixed;image=data:image/png,iVBORw0KGgoAAAANSUhEUgAABrcAAANTCAYAAAAE5kbVAAAACXBIWXMAAC4jAAAuIwF4pT92AAAgAElEQVR4nOzda3SV930v+B9iSxuEtDfmZjAgsAEnNog0TpteLLlOeklriZxzepnEgM9MZ85pAvZMz1xOTOw3fdM6Tl+e+NbLmlmrsZO0s9ZpYjuH9Ewb1+AkvSQpYDuuHbdF2DEGjC2BMZJAzAsJAkZgSey9/8/z7M9nra5ishx9sxB6nv18n9/vPyt2Dv5uAAAAAAAAQPY9NSt2Dp5JnQIAAAAAAADew56IuLUldQoAAAAAAAB4D3si4tYzH6u8VQpzWwAAAAAAAGTXeLH1K5W3IiJMbgEAAAAAAJBVFxRbEcotAAAAAAAAsumiYisiohT2EgIAAAAAAJAtE8VW9a13/wcmtwAAAAAAAMiSSxZbEcotAAAAAAAAsuOyxVaEcgsAAAAAAIBseM9iKyKiNMuRWwAAAAAAAKS1JyJuHfvVyxdbESa3AAAAAAAASGvKxVaEcgsAAAAAAIB0plVsRSi3AAAAAAAASGPaxVaEcgsAAAAAAIDGm1GxFaHcAgAAAAAAoLFmXGxFRJTizJka5wEAAAAAAIBJjRdbt82fUbEVYXILAAAAAACAxrjiYitCuQUAAAAAAED91aTYilBuAQAAAAAAUF81K7YilFsAAAAAAADUT02LrQjlFgAAAAAAAPVR82IrQrkFAAAAAABA7dWl2IqIKMWZWv9XAgAAAAAA0MTGi62+2hdbESa3AAAAAAAAqJ26FlsRyi0AAAAAAABqo+7FVkREKewlBAAAAAAA4MpMFFtX1bXYijC5BQAAAAAAwJVpWLEVodwCAAAAAABg5hpabEUotwAAAAAAAJiZhhdbERGlWY7cAgAAAAAAYHr2RMStp/sbW2xFmNwCAAAAAABgepIVWxHKLQAAAAAAAKYuabEVEVEKawkBAAAAAAB4b+PF1qZ0xVaEyS0AAAAAAADeWyaKrQjlFgAAAAAAAJeXmWIrIqIU9hICAAAAAAAwuYlia0Emiq0Ik1sAAAAAAABMLnPFVoRyCwAAAAAAgItlstiKUG4BAAAAAABwocwWWxERJUduAQAAAAAAMGG82Pp4NoutCJNbAAAAAAAAjMt8sRWh3AIAAAAAACAnxVaEcgsAAAAAAKDZ5abYilBuAQAAAAAANLNcFVsRyi0AAAAAAIBmlbtiKyKiNOvMmdQZAAAAAAAAaKw9EXHrqX+zMFfFVoTJLQAAAAAAgGaT22IrQrkFAAAAAADQTHJdbEUotwAAAAAAAJpF7outCOUWAAAAAABAMyhEsRWh3AIAAAAAACi6whRbEcotAAAAAACAIitUsRURUYozqSMAAAAAAABQB+PF1r8tTrEVYXILAAAAAACgiApZbEUotwAAAAAAAIqmsMVWREQp7CUEAAAAAAAoiolia1Ehi60Ik1sAAAAAAABFUfhiK0K5BQAAAAAAUARNUWxFKLcAAAAAAADyrmmKrYiIkiO3AAAAAAAAcmu82Pp3zVFsRZjcAgAAAAAAyKumK7YilFsAAAAAAAB51JTFVkREaVbqBAAAAAAAAEzHnoi4dbQJi60Ik1sAAAAAAAB50tTFVoRyCwAAAAAAIC+avtiKiCjFmTOpMwAAAAAAAHB548XWry1u6mIrwuQWAAAAAABA1im2zqPcAgAAAAAAyC7F1rsotwAAAAAAALJJsTUJ5RYAAAAAAED2KLYuQbkFAAAAAACQLYqty1BuAQAAAAAAZIdi6z2U4kzqCAAAAAAAAMTZYuvXFVuXY3ILAAAAAAAgPcXWFCm3AAAAAAAA0lJsTUMpzthLCAAAAAAAkMh4sfUbSxRbU2RyCwAAAAAAIA3F1gwotwAAAAAAABpPsTVDyi0AAAAAAIDGUmxdAeUWAAAAAABA4yi2rpByCwAAAAAAoDEUWzWg3AIAAAAAAKg/xVaNlGadSR0BAAAAAACg0PZExK0jv6nYqgWTWwAAAAAAAPWj2Kox5RYAAAAAAEB9KLbqoBRhLyEAAAAAAECNTRRbVyu2aszkFgAAAAAAQG0ptupIuQUAAAAAAFA7iq06U24BAAAAAADUhmKrAUqO3AIAAAAAALhi48XW/6DYqjeTWwAAAAAAAFdGsdVAyi0AAAAAAICZU2w1mHILAAAAAABgZhRbCSi3AAAAAAAApk+xlYhyCwAAAAAAYHoUWwmV4syZ1BkAAAAAAADyYrzY+sRSxVYiJrcAAAAAAACmRrGVAcotAAAAAACA96bYygjlFgAAAAAAwOUptjJEuQUAAAAAAHBpiq2MUW4BAAAAAABMTrGVQcotAAAAAACAiym2Mqo060zqCAAAAAAAAJmyJyJuHf6kYiuLTG4BAAAAAAD8mGIr45RbAAAAAAAA4xRbOaDcAgAAAAAAUGzlhnILAAAAAABodoqtHFFuAQAAAAAAzUyxlTPKLQAAAAAAoFkptnKoFGfOpM4AAAAAAADQaOPF1u3LFFs5Y3ILAAAAAABoNoqtHFNuAQAAAAAAzUSxlXPKLQAAAAAAoFkotgpAuQUAAAAAADQDxVZBKLcAAAAAAICiU2wVSCnOpI4AAAAAAABQN+PF1mbFVlGY3AIAAAAAAIpKsVVAyi0AAAAAAKCIFFsFpdwCAAAAAACKRrFVYKVZDt0CAAAAAACKY09E3Hpy8zWKrYIyuQUAAAAAABSFYqsJKLcAAAAAAIAiUGw1iZKthAAAAAAAQM6NF1tbFFvNwOQWAAAAAACQZ4qtJqPcAgAAAAAA8kqx1YSUWwAAAAAAQB4ptpqUcgsAAAAAAMgbxVYTU24BAAAAAAB5othqcsotAAAAAAAgLxRbRCnOnEmdAQAAAAAA4L2MF1tblyu2mpzJLQAAAAAAIOsUW5yj3AIAAAAAALJMscUFlFsAAAAAAEBWKba4iHILAAAAAADIIsUWk1JuAQAAAAAAWaPY4pJKcSZ1BAAAAAAAgHPGi607FFtMzuQWAAAAAACQFYot3pNyCwAAAAAAyALFFlOi3AIAAAAAAFJTbDFlpVkO3QIAAAAAANLZExG3vnPHCsUWU2JyCwAAAAAASEWxxbQptwAAAAAAgBQUW8xIyVZCAAAAAACgwcaLrX+v2GL6TG4BAAAAAACNpNjiiii3AAAAAACARlFsccWUWwAAAAAAQCMotqgJ5RYAAAAAAFBvii1qRrkFAAAAAADUk2KLmlJuAQAAAAAA9aLYouZKcSZ1BAAAAAAAoIDGi63/UbFFbZVSB4Aiq7a1xAcWtF70+6s6SrGqY3Zdvuaeo6MxODI25d8HAAAAAKgDxRZ1o9yCKdq4oDXmt41v8rxlafnc75//61XzStFVp9Kq1gZHxmLvm6Pn/nn/8dOx//ipc//89MHhSX8NAAAAAPAeFFvU1aw5/8+AxYQ0vbPF1cYFbTG/rSVWdcyOVR2lqLa2xMZJJq+a1fmF2J6jIzE4cibeGhmLvUdHIkIJBgAAAACcLbZWKraoG+UWTeOWpeWJNYFt58qrjVe1RnViGova2Xt0NAZHx2L/8VPnJsLO/zUAAAAAUEiKLRpCuUXh3LK0PHGmVWn81/NmR1eHDZxZcrb8Ojvp9fTBkxMTYKPv8W8CAAAAABml2KJhZs35v5Vb5NN4gTU7blk6JzYuaI0PLGhVYhXA3qOjMTgyXnydnfjaM/F7AAAAAEAmjRdb/5Nii8ZQbpEL4+sEW+OWpXPilqXl2LjAOsFmMzgx2bXn6EjsP3469h4dUXoBAAAAQHqKLRpOuUUmbZwossYLrbKJLC5pYOIsr6cPDk8UX6esNwQAAACAxlBskYRyi0y4ZWnZVBY1tWtireGeo6Ox9+jIufO9AAAAAICaUGyRzKy5yi0SODuZtalrbvQuLaeOQ5PYN7HWcK/CC3LnDz48PzYuaEsdgwL47d1HY//xU6ljUAB3rJ0XW9fOSx3jPbnfYaZ2HTx52f/cinAAaHp7IuLWE4otErHrjYZY1VGKW5aWY1PX3LhlaTkqJrNIoHtBa3QvaL3g93YdHI69E4XX0xPTXkC2rOooxZ03dqaOQUFsXTsvfu8fB1PHoAC6Okq5eEkrDxnJqsqM/q19R0fjrXeVXu8uWc8vzt6aOFsXAMgVxRbJKbeomx+XWXMuKhQgK3qXli946DM0MhZ7JoquXQdPetsZMmBT19zUESiQO9a2K7cA6miyz34Xl6yXLs52nXf/ff69+NlCbP/x015IA4C0FFtkQinO2EpIbVTbWsYLrVXt8fGuuaazyKVKW8t5hdf4h+59EysMn37tZOw9OurDNDTYXTd2pI5AgXR1lGLjVa2x9+hI6ijkns9RUA/nF2EXlmIXF2Jni7D9x0/F/uOnYnBkLPa+MToxDebnPADUwXix9Vtdii2SM7nFFam2tcTHV82NTV3t0e/Negqqe0FbdC9oO7cWbeD4qR9Pdr1mlSHU08YFbdHV4XaF2rprfWf89q43UscA4AqdLb9649LrN88WYE8fPKn8AoAro9giUzwtYtoUWjS7ro5SbF1bOneIvLIL6ueu9c7aovY+3jU3fjt1CAAa4lwBNsn5cwPHT8X+46dj79GR2H/8VOx9Y/TcFBgAcAHFFpmj3GJKFFpwacouqJ+Pu+ZQB5W2lrhj3bz405feTh0FgIS6OkrR1VGatPjadXD4XNG167VhpRcAzUyxRSYpt7isTV1znaEF0/Tusuv8M7uePjgcgyNjiRNCPtyxbp5rD3WzqatduQXAJfUuLf943eFP/Pj3dx0cvmDS6+mDJ9MEBIDGUGyRWcotLrKqoxRb182LO9bOc84J1MC7z+zadXA4Hh84EU+/NmzXP1zGpq721BEosP6uuVFta/HCAQDT0ru0fNGk176jI7Hn6GjsPTqi8AKgSBRbZJrmgnPuWDcvtq7tmHQlA1A7538gHhoZi68NvBO7Dp6Mr+1/x0NWmLCqo2QNLnV3x7p58YXnjqWOAUDOnX2ZLWLeud87W3jtOngy9rwx6qU2APJGsUXmzZr7J/vPpA5BOqs6SnHX+k6rnyAjdh0cjsf3m+qCu9Z3xud/+qrUMSi4fUdH4qf/4mDqGOTUvR+sxr0frKaOAeTE0MhY7Dk6Gk+/djJ2TawsB4CMGi+2/mfFFtlmcqtJbVo1N+5aXzGlBRlz/lTXwPFT8fj+d+Lpgyfj8f3vJE4GjXXX+s7UEWgC3QvaYlVHKfYfP5U6CgAFV2lruWil4dmSS9kFQIYotsgN5VYTqba1xB3r5sVd6zudpQU50NVRijvXd8ad6zvH1xfut76Q5rBxQZvrFA1z1/rO+M9/+2bqGAA0IWUXABmj2CJXZs39k3+1lrDgxlcPVqwehAJ5YuDE+FTXaydNHFA4f9i7MLau60gdgyYxcPxUvP/PXk0dgxy694PzrSUE6mZoZCyePngynn5tfG25e34A6myi2Fql2CI3lFsFtnFBW9y1vtMDQii4fUdH4k9fetuHXgrj4NaVXsagoT7xV4fj8f0nUscgZ5RbQCNduLLcNQuAmlJskUvKrQK6ZdmcuPeD1ehdOid1FKDBFF3k3R3rOuKR3oWpY9BkvvjS8fjtXW+kjkHOKLeAVMZXlp+IXQeH42v7T1hZDsCVUGyRW7Pm/rFyqyhuWTYn7r1JqQWM23d0JP70RUUX+fJnv7g4+le1p45BkxkaGYv3feVVDweZlntvUm4B2fDE/vGV5YouAKZpvNj6XxRb5JNyqwCUWsB72XXwZHzxxbd94CXTVnWU4gefWJ46Bk3qU0+/EX/60vHUMcgR5RaQRYouAKZIsUXulVIHYOaUWsBU9S6dE71L58QjsfDcB14PccmaTSa2SGjr9fP8XAQg9/pXtUf/qvYL7vsVXQC8i2KLQjC5lUNKLaAWzu7q/+JLb8fTr51MHQfihU8sj64O792Qzg1fedUaV6bM5BaQJ1986Xg8vv+deHz/idRRAEhLsUVhlGalTsCUreooxed/5ipnkQA1UWlria3rOmLruo4YOH4qvvjS2/HFF497sEsSvcvmKLZI7uOr2uMLzw2ljkFO+BwF5Mn59/2P738nHnh2yH0/QPPZExG3vq3YoiBmtZvcyrxqW0v8wc9cFVvWdaSOAjSBs+dzPW59CQ30h7csdJ0juYHjp+KGr7yaOgY5ce9N8+Mek1tAjp297/+itbwAzUCxReEotzLu3pvmx13rO6PS1pI6CtBkhkbG4vH9J+ILzx2LvW+MpI5DgVXbWuKFTyx3rSMTfvYvXvMzjylRbgFFMTQyFn/60tumuQCKS7FFIc1u3fSffjd1CC62aVV7fPVXlkT/qvYoz7b0BGi88uxZsXFhW/yH93fGx1e3x5zZLfFPb43G8GnvRFBbv7lmXvzGdfNSx4CIiBg+FfHfX3kndQxy4JZlc6J3mTNwgfwrz54VH15Sjjs3VOKWZXNicPhMvPjWaOpYANTGeLH1HxRbFI9XpDNmVWcpdvZdHV/+pcXOHgEyo3tBW9z/M1fFj/79yvjDn18YGxe2pY5EgWxdp9giO+643vcjAM2rd9mc+PIvLY4ffHJ5bL2+I6om6wHyTLFFoblLyYhqW0vce9P8eP4Ty70BCmTalnUd8e1/tyy+82vLfODliq3qLLnukSmVtpbYtKo9dQwASKqroxSP3LIwXvjk8rj3pvmxqtPLtwA5o9ii8Ga3fvx3fjd1iGbXu2xOfPVXr45+D1KAHLl67uzYtKo9/uMNnXH13Nnx4uBoDI6MpY5Fzty1oaLcInPmlGbF//vPb6eOQcZZSwg0g/LsWdG7bE7cuaESqztLsffoiHt+gOybKLZWK7YoNK/bJ1Rta4mv/NKS2Nm31ApCILcqbS1x54ZKPP+JFbGzb6mJB6Zl6/UdqSPARfpXtZtKBYB32bKuI57/xIr4w59fZJILILsUWzQNn9oT2Xp9R7zwyRWmtYBCGd/RvyR+8MkVVhbynnqXzfFyB5m1abV7NACYjJILILMUWzQVTx0bbFVnKXb2LY1HblkUFQ99gYIa39G/KF745Ir4/M8s8KGXSd1haosMu2tDJXUEAMg0JRdApii2aDqz2v/wX86kDtEstl7fEX/wswuUWkBTevTF4/GFZ4di7xsjqaOQAdW2lnjh9hWuiWTajV9+JfYfO5U6Bhl174fmxz03zU8dAyAzHn3xePze995y7QRovPFi6z8qtmgunig1QLWtJb7yy0vikZ83rQU0ry3Xd8S3f+2a2Nm/NHqXzUkdh8Q2rW53TSTz7jS9BQBTtuX6jnj+kyvi3g/Nt54coHEUWzQtdxt1tml1e7xwu7O1AM7qXTYndvYvje/82jWx1Vq6puXPnjxw7hYATN89N82PF25fYcUvQP0ptmhqyq06qba1xOd/dkF8+ZeWeDMdYBLdC9vikZ9fFD+4fYWio8ms6iyZ3iMXujp8rwLATFTaWuL+n10QP7h9hWspQH0otmh6Wpc62LiwLb7Rv9QqG4Ap6OooKbmajD9n8uQO368AMGNdHaXY2b80dvYvjVWdpdRxAIpCsQWh3Kq5rdd3xDf6l0b3wrbUUQByRcnVPPz5kidWEwLAletdNsd5XAC1odiCCbNb+3/nd1OHKIJqW0v8l95Fcc+H5kd59qzUcQByq9rWEptWt8cd7+uIweHTsfeNkdSRqKHea+bEnRuqqWPAlJVnz4qBY6N+FnGRW5bNjd5rrNoCmI7eZXPiN9fOi71vDMfAsVOp4wDkzXix9dvXKrYgTG7VxKrOUnxj07LY4k10gJrp6ijFLdfMTR2DGrvj+s7UEWDaNq2elzoCABTG+KrCZfGVX77aFBfA1Cm24F3cRVyhTavb4zu/vtwaQoAaGxoZi9/77pupY1BDZ6fyIG/6V7c7JwQAaqx/dXu8sHml+0OA96bYgkkot67AvR+6Kr78y1dHxZtGADX3hX1Dsd+qkkLZtLrdNZPc8uANAGqv0tYSX/7lq01xAVyaYgsuoeR0qOmrtrXE539uoTWEAHUycPxUPLBvMFyjiuWO91lJSH5tvb4zHtg3lDoGABTS2SmuTz11OB7/1xOp4wBkxZ6IuPW4Ygsm5bWYaaq2tcRO52sB1NXd33ojBkfGUseghlZ1lqJn2ZzUMWDGuhe2xUZrqAGgbiptLfGlX746Pv9zC01xASi24D25W5iGjQvb4gebVzpfC6COdr920tuaBbTlelNb5N9W04cAUHfbN1Ri56ZlXioBmpliC6agFGdSR8iHTavb45GPLHZWCECdfeaZN8K1qXi2mnimALZe3zH+MwoAqKvuhW3xrV9fHnd/6w1rgYFmM15sfUqxBe9FUzMFW9/XEV/62NWKLYA6e/TF47H3jZHUMaix3mvmRFdnKXUMuGKVtpbYtLo9dQwAaBr3/9zC+PLHrramEGgWii2YBncH7+Gen7wqHr51ceoYAIU3NDJmIqKgrHKjSPqvnZc6AgA0lf7V7fHt31huTSFQdIotmKaS3U+X9shHFjsjBKBBvrBvMAZHTqeOQY1VTbpQMFuu74jPPHMkBkfGUkchOZ+jABqlq7MUOz++LD7zrTfii/90LHUcgFqbKLauU2zBNJjcugTFFkDjDBw7Fb//D2+mjkEdbLp2nrW+FM4m01sA0HCVtpZ4+NbF8fmfW5g6CkAtKbZghjxtepdqW0t8+WNXK7YAGujub1lHWFRWElJEd3ZXU0cAgKa1vbvqHC6gKBRbcAXcCZyn2tYSOz9+TfSv9jYuQKPsfu1kPP6vb6eOQR2s6ixFz7I5qWNAzXUvbItVnaXUMQCgafWvnhc7P36N6zGQZ4otuEIlq+LHVcvjxVa3A0oBGuozzxxxbElBmYKmyLZc32mdarNz7QJIqnthW3z7N1bEr3ztR7H3yEjqOADTMV5sfVqxBVfC5FYotgBSefSfjvkgWmBWElJkvr8BIL3KxAYe52ECOaLYghpp+nJLsQWQxtDIWHzGWVuF1XvN3OiyJoYC6+osxcZF7h8BILVKW0t86WNXe/EEyAPFFtRQU5dbii2AdH7vH96MweGx1DGok63v60gdAeruzu5q6ggAwISHP7JYwQVkmWILaqypy63P/9xCxRZAAgPHTsUDewdTx6BOquUWq2FoCr7PASBbHv7I4njkI4tTxwB4N8UW1EHTlluPfGRxbPFGD0ASn/rm4dQRqKNNq+dFpa1pbzFoIpW2Fm+IA0DGbHlfp4ILyBLFFtRJKc6kjtB4j3xUsQWQyu4fnYxdr76TOgZ15GE/zaR/dXt88YVjqWMAAOc5+8znU3/tpTogqfFia5tiC+qh6V6rvnNjVbEFkNCn/vpQ6gjU0arOUvRcMyd1DGiY/mvnRbXcdLfUAJB5W97XGY981AQXkIxiC+qsqT6Jb31/Z9x/88LUMQCa1oN7B2P/sVOpY1BHW97vBRKaj2lFAMgmBReQiGILGqBpyq2Ni9riYTuXAZIZGhmL3/uHN1PHoM485KcZbVXqAkBmKbiABlNsQYOUogkO3dq4qBw7/801qWMANLXf+/ujMTh8OnUM6qj3mrnR1VlKHQMarnthW2xc1BZ7jwynjgIATGLL+zpj75HheGDvYOooQLFNFFtrFFvQAIWf3KqWW+KRjy6JSlvh/6cCZNbAsVM+SDYB0ys0M1OLAJBt99+8yP0qUE+KLWiwwjc+X/mVpdG9sC11DICm9qm/PpQ6AnVWLbfEpmvnpY4ByfT7/geAzHv4I0sUXEA9KLYggdKsAm8lvL9nUfRcMzd1DICmtvtH78TuV9+JWamDUFebVs8zJU1T6+osxabV8+KJf3k7dRQapMifowCK7OGPLIl9h0esEwZqZU9E3Hpsu2ILGq2wT6G2vL8ztm+spo4B0PQ+9VemtpqBN2Ahov8601sAkAf/7d9eExsXlVPHAPJPsQUJFbLc2rioHJ/vWZQ6BkDTu+/v34yBY6dSx6DOujpLJqUhIjZdOy+q5ULeXgNAoVTaWuLhjy5x3QauhGILEivcVbxaHr9BsRoJIK2hkbF4YK97vGaw9f2V1BEgEyptLc7eAoCc6F7UFl/+1aWpYwD5pNiCDChcA/TIR5dE96K21DEAmt5ndh+JweGx1DFogC1WEsI5VnQCQH70XDM3Hv6FJaljAPmi2IKMKFS5teX9ndHnbVmA5PYdGYlHXziWOgYN0Lt8bnR1llLHgMzoucbfCQDIky3v6/SyFjBVii3IkMKUW87ZAsiOu585kjoCDeJBAFxs03VetgKAPHn4o0ti46Jy6hhAtim2IGMKU245ZwsgG578l7dj16vvpI5BA1TLLbHJxDRcZPvG+akjAADT9KVfXRrVsudKwKQUW5BBhbhq39+zyDlbABnxmd2mtppF/7XzvFgCk+jqLHn7GwBypquzFI981PlbwEUUW5BRuX8i1bt8bmzfWE0dA4CIuO/v34yBY6dSx6BBtlpJCJe0/QPuTwEgb/qunRd3uoYDP6bYggwrxZkzqTPMWLXcEg97qwYgE4ZGxuKBPW9Gnq8rTF1XZ2v0XDM3dQzIrE3XzotP+3lYcP58AYroczcvil2vvBN7jwynjgKkNV5s3blWsQUZlevJrXt+akF0dZZSxwAgIj6z60gMDo+ljkGDbL3B1BZcTqWtJfqvcyYdAOTRl25b5vwtaG6KLciB3F6pe5fPje0fcFg3QBbsOzIcj74wlDoGDbTl/ZXUESDztvp7AgC51NVZint+akHqGEAaii3IidyWW/f3LEodAYAJd+8+kjoCDdS7fK7JaZiCvmvneesbAHJq+wfmm8KG5qPYghzJ5aftez68ILoXlVPHACAinvyXt2PXq++kjkEDmdqCqeu/tiN1BABghh75hau9qALNQ7EFOZO7K3RXZ2t81mg4QCYMjYzFZ3aZ2mom1XJLbPIGK0zZnR+opo4AAMxQpa0lHvmFq1PHAOpPsQU5lLty65FfXJI6AgATHtjzVgwcG00dgwbqv7YjKm25u32AZLoXlaOrszV1DABghvqunWc9IRSbYgtyqhRnUkeYuv7r5kXPNXNTxwAgIkk/3bIAACAASURBVAaOnYoH/vGtyNN1hCu39f2dqSNA7tz5gWrcbcq1eFz/AJrG/T2LY9cr78Tg8FjqKEBtjRdbdym2II9y9er1/b2LU0cAYMLv/91RH+6aTFelNXqWe8kEpqv/OuduAUCedXWW4p4POyIDCkaxBTmXm3Lrng8viK7OUuoYAETE7lffiUd/MJQ6Bg1magtmpquzFL2KYQDIte0fmB8bF5VTxwBqQ7EFBVCalYN9GtVyS9z5E/NTxwBgwn1/90bk4fpBbW29oZI6AuTW1hs6Y/erJ1LHAACuwP29i+K2//pK6hjAldkTEbcO3bVOsQU5l4vJrXs+vNDh9QAZ8dgLQ7Hr1XdSx6DBepfPjZUmqGHG+q/riGrZ/SwA5FnP8rmxxQtfkGeKLSiQzH/C7qq0xrYPmNoCyIKhkbH4/b87mjoGCfgQD1em0tbi7C0AKID7exd7YQXySbEFBVPK+lape37KgZ0AWfHAP74VA4OjqWPQYNWyh/JQC/3XdsSjzzuvEADyrNLWEts/cFXc97dvpI4CTN14sfW/KragSDL9qklXpTU2e1McIBMOHDsVD/7jm6ljkED/dR3WA0MN9F03L7oqraljAABX6M6fmO+aDvmh2IKCyvSTqns+bGoLICt+/2/fiMHhsdQxSMBKQqid/uvmpY4AAFyhSluLZ1aQD4otKLDMllumtgCyY/er78SjP7BKqxl1VVqjZ/nc1DGgMJTFAFAMm2+omN6CbFNsQcFlttzyBgxAduzYdTh1BBLxIB5qq3tROTYuLqeOAQDUwMO/eHXqCMDkFFvQBDJZbpnaAsiOx34wFHsPD6eOQSJbXY+h5pTGAFAMPcvnRq8tB5A1ii1oEpkst0xtAWTD0MhY3G1qq2n1Lp8bKztLqWNA4Si3AKA4PvvTC1NHAH5MsQVNpBRnUke4kKktgOx44PtvxeDJsdQxSMQDeKiPSltL9F/XEU+8fDx1FK5Exj5HAZDG2emtXa+8kzoKNLvxYut/U2xBs8jc5JYHaQDZcODYqbjvb99IHYNEquWW6F/TkToGFFb/dfNSRwAAasT0FiSn2IImlKlyq1puiTs/OD91DAAi4u6nrSNsZv3XdUSlLVO3CVAom2+oRLXs7xgAFEHP8rmxcXE5dQxoVootaFKlLO3T6L9ungdpABmw+9V34omXj6WOQUJbbjRJDfXWf928ePQHQ6ljMGPZ+RwFQHrbf2J+fPq/H0wdA5rNRLF1vWILmlCmmqR7fsYYN0AW7Hj6UOoIJNRVaY2e5XNTx4DC2/7Bq1JHAABqZPMNleiqtKaOAc1EsQVNLjPlVu+K9ljZ6SYAILXHfjAUew8Pp45BQs6/hMboXlT2EAwACuQeZ29Boyi2gOyUWx6kAaQ3NDIWd5vaanpbrSSEhnEPDADF0b+mw5maUH+KLSAiIkpZWBVfLbfEZh/sAZJ74PtvxuDJsdQxSMgkNTTW1hsrcd933kgdAwCogUpbS2y5oRoPfv/N1FGgqMaLrd9RbAEZmdzacmM1dQSApnfg2KgHrMQWU1vQUCs7W2Pj4nLqGABAjdz5wfmpI0BRKbaAC2Sk3PIgDSC1u//mcOoIJFYtt0T/dR2pY0DT2f7Bq1JHAABqZGVna/SvcU8NNabYAi6SvNzauLgc3Yu8rQqQ0u5X34knXj6eOgaJ9a/piIozAqDhlMoAUCxe4oaaUmwBk0r+BMsFHyC9T//lwdQRyABrgiGNSrnFPTEAFEjfdR3RVXGOLdSAYgu4pFLqAEa1IWLfkeEYHB6b9r+3qlKKlZ1umLkyD/3jmzEwNJo6Bol1VVqjZ/nc1DGgafWv6YhHnx9KHQMAqJEtN1acaQxXRrEFXFZpVpxJ9sW7F5c9mKeQDhwbjf1DozE4PBb7Dg9HRMSuV06c+893n/frWuuqtF7whtj8ckt0L55z7p+r5ZboPu/g+o2L5lhD1sSGhsfivu8ciZTXArJhq6kRSKrvuo6YX541o5ddSGNW6gAAZNrWGyvxue8cSR0D8mpPRNw6+DvvU2wBl5R0csv6I/Lu2SPDsX9oNPYdHo59h0+e+3VKA0OjF03hTPUspe7F5aiWZ0fE+Hl41fLsC8qwnuXttQ1Lcvf97REPUokIa4IhC7bcWI0Hv/9m6hgAQA2s7GyN/jUdzjaG6VNsAVOStNyykpA8OXBsNPYeHo7dr5w49/+L5vxi7nL/+86WYGcLsJ4V46vMlF/5cuDYqIeoREREz4p2k9SQAcotACiWPuUWTJdiC5iyZOWWlYRk3dDwWDzxz8di9yvvxK5XTjiT6DxnS7DJCrCzaxE3Li5HV6U1uheXrT7MqE//5cHUEcgIU1uQDRsWlaN7cTn5FDgAUBubb6jGjr85ZFsGTI1iC5iWUqpjVrbcYCUh2XNgaDSeePl4PPr8oAdLMzQwOBoDg6Ox+8CFxVd14uyv3hXt0b24HKsqrbHhvLO/aKzdr5y46M+I5lQtt0T/dZ2pYwATttxQjR2HDqWOwVQ4rhKAKei/rjMefX4wdQzIuvFi6z8ptoCpSza51bvC+jKyQaHVGIPDY+OFynnTXu8uvDYuLsfKionORthmaosJ/Ws6TVZChvSv6Ygdf6PcgqJ69vBw3J3xv+PzJ+7RJ3P+ebwREasqre7f4T30relQbsHlKbaAGUlSbnWZ2CADnnz5eDz2/KD91wlNVnh1VVrPlV29K9r9rKiDh77/pjWbnLPZSkLIlJUVh89Dkb01fDoXZ/fO5GfQ2fXkET9+mXX8rN6W6PFyK02sb01HVMstVhPC5BRbwIwlKbf613Sk+LIQQ8Nj8eD334xHnx/0cD+jBoZGL3irrVpuid4V7dGzol3ZVQNDw2Nx33eOpI5BRnRVWj1sggxy+DyQRwNDo+c+Y01W4J3d2rBqogTrWTHX5BdNo3+N1YQwCcUWcEWSlFsepNFoZ0utB79/1NtSOTM4PBZPvHz83EO+arkl+td0Rs+KudG7ot2H4Wm67ztH/B3gnC03Ov8Ssqh/TWfsKDt8HiiWc1sb3vX7715V3rui3cpkCsdqQriIYgu4YknKLedt0ShKreIZHB6LR58fPPfB4OwH4L41HYrz9/Ds4eF48Ptvpo5BhmyxkhAyqTLxIoeHYEAzuNyqci+0URRWE8IFFFtATZTiTGO/YI+3sGiQx54fjB1Peeu56PYdGo59h4bjwe+9eW6FYd/ajuhf0+lnzbvc/dShaPTPfLKrx4MiyLTNN1bi0eeUW1BI7sfe08DgaDw6OHju52D34nL0rvRCG/nWv6bTtR3OFlv/u2ILuHINn9zqXelGlPo6MDQan/7GwVwc1Extnb/CcFscjJ4V7dG/tiP613Q0/UP8J18+7u8EF9iy3tQWZFnPivboqrQ6IxQgIvYdHo59h3/8Qlv/2s7oW9MRfc7zJkd6VsxVbtHsFFtATTV8rKFnxdxGf0mayEPffzM2/Mk/e4hPRIwfZL3jqUOx4U/+OXq++K/x0PffjANN+pBwx1OHUkcgQ86eXQdkW/9aD20B3m1weCwefW4wNn/t1eh68KXY/pdebCQf3H/T5BRbQM0lKLdMblF7Q8Nj0ffnBzzA55L2HR5u2qLrc995w5v/XKB/rbWdkAfbP3hV6ggAmXa26Or78wPR/Sf/HA99/80YspaejKqUWzwTo1kptoC6KDVy4Xf34jkN+1o0j2cPD8ftX3vFw3umbN/hk7HjqZOx46nXo3vxnNiyvhpbbqwW8mH/0PBYPPi9o+FwB863+UYrCSEPVlZao3txOfYdPpk6CpNybWWmfO/Uw8DQSOx46vXY8dTrsWV9NbZ/cEFsWFxOHQsu0L+2I3a/8nbqGNBIE8XW+xVbQM019Emu87aotceeH4zb/nxAscWMjRddr8fKB1+MLV97NR57frBQb3vu+JvXY3D4dOoYZEhXpdUbo5Aj228yvQUwXY8+Nxg3f/Ffou/PB6wsJFN63YfTXBRbQF01tNzyMI1aeuz5wdj2jdc8uKdmnnj5WGz7xmux4U9eju1/+VruPwg/e3jYgcVcZMv6auoIwDQ4nwNg5na/ciL6/nxAyUVmbFhcjq5Ka+oY0AiKLaDuSo3ciLDRSgBq5LHnB2PbztdSx6CgBk+ejkefHYxHnx2Mrkrr+NrC9dVYmbMPIXc/9bqtN1xky43KLciTSrkl+td0xhM/PJY6Cu/mGstM+d5puN0HTkTfgYHoWdkeD39sWe7u6ymW3hXtXkKk6MaLrf9DsQXUV8Mmt6rl2W4gqQnFFo00MDQa9337SGz445fPrS3MgydfPh67D3g7lQv1rGx3LYYc2mziEqAmdh84ERv++OX47FOHCrWKnHzpcWQHxabYAhqmYeVW9xJTW1y5Zw8Px45vHkodgyb1xA+Pxbadr0XXAy/FZ586FAcyfNbbjm++njoCGWQlIeRT35qOqJZnp44BUBgPfu9obPjjl+PJl4+njkITcu4WBabYAhqqNKtBX8jFmys1NDwWm7/6SgwNn45Gfd/CZIaGT8dD3zsaD33vaPSsbI8t66txe4ZWvX3u20fiwNCovydcoFqe7eweyLH+tR3xmBVGkHuzJv6P9IaGT8eWr74SfWs746GPLYtKuaFHktPEVlZaY1WlNQYy/LIkzMCeiLj1LcUW0EANu3tbVbUGiSuz7Ruvufkjc3YfOBHbdr4Wqx546VyplNLQ8Fg89L03k2Ygm/rWdnhoAzm2/aYFqSMAFNKTPzwW3X/8cnzdFBcNZDUhBaPYApJo2FOuLmd8cAW+/vLxeNJB6mTY4PDp+Ny3j0T3xNlcz7yS5ryrHU+9HoPDp5N8bbLNSkLItw2Ly+6nAepkcPh0bP7qK/HZp6zApzF6lVsUh2ILSKZh5dbN1hIyQ0PDY7Ft52upY8CUPfnDY9H3ZwOx8Y9fji89P9iww6qfeeWElVVMqqvS6joMBWB6C6C+Hvre0ej9039t2P07zavHvTnFoNgCkirFmfp/EW+ZciUe/N7RGDxpEoX8GRgcjW3/7bWolg/F5g3V2H7TVbGyjj8P7/vWkWjEz3TyZ7OpLSiEvrUdseObr6eOAVwp92uZtu/Qyej+o5fjyU90xYbF5dRxKKiVldaots22dYM8Gy+2/k/FFpBOQya3upy3xQwNDY/FQ991fhD5Njh8Oh767tHo/qOXY/vO1+qysvBLzw3G7gNpViGSfVYSQjGsrLQ6owOgAQaHT0ffVwaSrRqnObimk2OKLSATGlJuuWAzU489N+hNJgrlsecGo+8rA9H/ZwPxpRqtEBwaHhuf2oJJ9Kxsr+vEINBYymqAxjhbcNXqnh3erXuJyUBySbEFZEapETsR5pcbdrQXBfPoc2+FvR0U0e4Db8fuA2/Hfd86HNs/tCA2r58flRn+rHzwe0djYGikxgkpCg/CoVj61nZGtfy6l38g13y+yZNtO38UERG3u6eixnpXtsfn/DwgXyaKrRsUW0AmNKR16l4ypxFfhoI5MDQa+w6dTB0D6mpgaDR2fPP16P6jH8bnvn0kDgyNTuvfPzA0Gg9992id0pF31fLs6FvbmToGUEOVckv0re1IHQOgqWzb+SMTXNRc92LPysgVxRaQOQ0pt6omt5iBJ394LHUEaJjB4dPxuW8dju4/+mFs3/mjKZdc933rsLf3uaS+tR0znggEsqtfaQ3QcNt2/sgZXNRUpdwSXdaHkw+KLSCTGvLEa4O3UZiBXQd8cKA5PfbcYHT/0Q9jy1dfuewH6GdeORGPeYOUy9iyYX7qCEAd3La208MwgAQ2/8Ur8exh20WoHZuOyAHFFpBZXucms6wkpNk9+cNj0feV/dH/Z/snLbnu+9bhBKnIi65Ka9y8oj11DKBO+taZ3gJotMHh07H5L16JoeGx1FEoCOUWGafYAjKt7uVWz0oP1piZgWmePQRFtfvAiXMl19ld/196bjB2m27kMjab2oJC237TgtQRAJrSwNBobP7qgdQxKIhez8zILsUWkHkmt8gkqx7gYrsPnIhtO38UG//oh7Hjm6+njkPGbVlfTR0BqKOVlVZvewMksvvAifjct4+kjkEBWDNMRim2gFwoxZn6fgEXamZi8ORY1Pt7E/JqYNBUI5fXs7I9Vrr+QuFtWV+NHa97ISgZ96rMxJnwvVMQn3vmcPSuaI+bTd5wBVZWWqPaNjsGh0+njgJnjRdb/5diC8i+uk9udVXa6v0lAIDzbLGSEJrC5vX+rgOktG3nj5y/xRXrXlJOHQHOUmwBuWItIQAUSLU8O/rWdqaOATRApdzi7ztAQgODo3Hftw6njkHOWTNMRii2gNype7k1f47+jOmz2gFgZvrWdUSl7NoLzaJ/nXILIKWHvns0njlwInUMcqxanp06Aii2gFyq+9Ov7sXeQGFmuqrOiwGYri3WlEFTuX191UMxgMR2fPP11BHIsV4v95KWYgvILa92k1k9bvAApqWr2mryFZpQ37qO1BEAmtq+QyfjS88Npo5BTnmxl4QUW0CuleLMmdQZYFK9K9rjsX2urwBTtXl9NXUEIIHtNy1wz5SEz1HMkM/ghXTfM4fidvdizMDKSqufC6QwXmz95xvdRAK5ZXKLzOpbV0kdASBXtmywkhCa0YYlc7z1DZDYwOBofOlZz4iZme4ljvSgoRRbQCHUvdyqOtSeGaqUW2KzB7UAU9Kzct74W59AU3LPBJDefd86nDoCOeX8TBpIsQUURt2bpw3ePuEKbP/QgtQRAHJhywZrcKCZmdwESM/0FjPVvaScOgLNQbEFFEppVuoEcBkblsyJ3pXzYveBt1NHAcisanm2Va7Q5FZWWt0zNZjPUcyU751ie+i7R+N2LxwwTfPnzPazgXrbExG3vqnYAgrEzkAy78HbrkkdASDT+tZ1RsUaYGh6m01wAiS379DJePbQydQxyBlnblFnii2gkDwJI/NWVlpjx82LU8cAyCxn7QARYYITICMe+u7R1BHIGWduUUeKLaCwSnEmdQR4b9s+tDCefPFY7PMGHMAFuqqtcfPK9tQxgAyolFti8/r58ZjzXhrD5yhmyvdO4T354rF44FdTpyBPupfM8bOBehgvtj6j2AKKyeQWuVApt1hPCDAJU1vA+frWdaaOAND0BodPx9dfOpY6BjlixTh1oNgCCs/Vk9zYsGSOggvgXTZ3K7eAH7ttXafVRgAZ8KRyi2nqqramjkBxKLaApqDcIldu3zDflALAhJ6uebGy4kMwcKHN3dXUEQCannKL6eqqtqWOQDEotoCmodwidx647RoFF0BEbN7gATZwMfdJAOkNDp+OZw6cSB0DaC6KLaCpKLfIpQduu2b8wFWAJlUtz46+dZXUMYAM2rBkjvskgAzYPfB26gjkSPeScuoI5JtiC2g6yi1y64nbV3twAzStvnWdDp4GLsl5fADp7Ta5xTQ4M5MroNgCmlIp4kzqDDAjlXJLPHH7qtjyXw94Iw5oOs7UAS6nb11nfPavXksdA7jImfAZvHnsHjieOgK54+cD0zZRbK1XbAFNxyvf5FqlPDse/+RqZ0sATaWr2ho3r5yXOgaQYSsrrdG3rjN1DICm98wBL2IyNT1d7akjkD+KLaCp1b3cevbQyXp/CYgHblse235yYeoYAA2xecNVqSMAOeBcPoD09nkmAtSHYgtoeqV6TzwPDp+u7xeACb//0aXRvWRObH/y1dRRAOrKWTrAVNy+YX589v876H4cssbWsaay73XlFtPg5wNTM15s3a3YApqbtYQUyu0b5seu31rjIFagsHq65sXKSmvqGEBO9F1vNSFASsotpqqr2pY6Avmg2AKYoNyicDYsmRN7t62Lni7n0QDFY2oLmA4/MwDSspaQqfICG1Og2AI4j3KLQqqUZ8fjt6+OHT1LUkcBqJlqeXb0rTOFwcXuf+awA+uZ1M0r50VX1cMygJQODI2mjgDkn2IL4F3qXm4NDLqJI527b14cT2xe7aEOUAh913dGxdpVJvHQ378Rj+3zOZfJ9a2rpI4A0NQGBkdSRwDyTbEFMAnlFoV388p5seu31ljLA+Sen2NM5pkDb8fg8Ol48sVjqaOQUdt+amHqCABNzblbTJUXc5mEYgvgEqwlpClUyrPjgduWx6O/1hVVUw9ADnVVW+Pmlc4S5GJnS63B4dPx9ZcUXFxsZaU1upfMSR0DoGkNDo+ljkBOdFXbUkcgWxRbAJdRijNn6voFBk+equt/P0zHbes6Y++2dfG53Yfiob9/I3UcgCnbvMHUFpN78sWhOHs/t3vgeNzmXDYmse0nF8b2J19JHaNY6vw5ioI6E753mpDnIkzZmTN+RnDWeLG1Y4NiC+AS6j65ZfyerKmUZ8fv/8KyeGLztd6KAnJjc/dVqSOQQc8eOnnBOR5WE3IpfdcrPQFS8VwEmCbFFsAUWEtI07q5a17s2XZ97OhZEtU5VhUC2dXTNS9W2r/PJB7b9+YF/zwwOBLPHvIAjYtVyrOj7/pK6hgAAFyeYgtgikqz6vwFDgyO1vkrwJW5u2dJbO6+Ku7ffeiih4QAWWBqi0v5+ovH4t33ck++OBQbnK/EJDZ3z4+vvziUOgY0vXp/Bid7/JkzVbPC90uT2xMRtx5VbAFMSd0nt85flQNZtbLaGl/oWx6Pb742errmpY4DcE51zmzrxJjUgcHRSe+zvv6S8oLJ3bauYlodIIEBL/0yRa7TTU2xBTBNDVlLODR8uhFfBq7YzV3z4mubr40H+lY4jwvIhL51laiUfcjlYk9eosTa9/pJk/Nc0ubu+akjADQdL/0yVabvm5ZiC2AGGlJuOTyVvLm9e37847br427ncQGJ3e5BNJfwpcus0r1U8QW3W3MKAJAlii2AGWpIuQV5dXfPktij5AIS6aq2xc1WpTKJA4Ojl315yLlKXMqGJXNMpwMAZINiC+AKNKTc2j3wdiO+DNRFpTxbyQUkYWqLS3mvyazdA29bC80lffqnFqaOAADQ7BRbAFfImVswRUouoNE2Wx/GJTwzhReHnnzxWAOSkEd96yqpIwAANLP/n717D4+6vvP+/9KJyYTDTCacIRMQOSeICmpNtNJ2V5O49dB2JbH3Vnf3RuxB3d+Ftfe9Hro92G3FvVuL3VXc3d6t3RKsPWjXJLutvbWaaCuowAwCyjEhCQKZzADJhHWu/P4IYRFJMjOZmc/38Hxc11yXJ5I3OJn5zvf1eb/fBFsAkAF56s/+N9nayc4tOMdgyPX5Syfon14/osdfP6JonAAXQGZdWTpWQf95psuABcX6Enp+x8hjBxt2xuj+w1kF/efpyuBYpisApuTgMzgAG+M1wukGgq3/TbAFAKOVk86t/dH/ysW3AXLqVCfXF+bpK1fRyQUgs+oupGsLZ5dsRxbBBYbDawwAAEDOEWwBQAblKNw6kYtvAxhxesj1gz8rYUk7gFHzez26bt5402XAohp2jty1JUnReEINI+zmgntdN288B3MAIEf4jAhABFsAkHF5uep3bt5/XJWlY3PyvQATfAUe1S0uUt3iIq3fGtHjrx/W1oOM5ASQuuvmjZevgJvO+LBYX0LP74wm/d837Iyphv1KOAtfwUCI/tMtEdOlAC7EzDG3KfXnmS4BtsJrhAOdDLYWE2wBQAblpHNLonsL7lK3OKCX/mqufv3Z2bpuHjcVAaSmbjHjwnB2qY4afD7JLi+4Uw3XKAAAANlGsAUAWZLDcIu9W3CfytKxeurTM7X5Cwv0+UsnMv4HwIhK/fl0OmNIyY4kHBSNJxR6jy5inF3NXB+jsgAAALKHYAsAsigvV93OzfuOSVdOzs03Aywm6D9PD/3JNH3lqsl6fmdM3/n9e3QzAjgrurYwnOd3xFKeVLN+S0QP/cm07BQE27tunk//9MfDpsuwJ6ZGIV08d1yHgwRIWr94jXCOgWDrbwm2ACBbcta5xe4hYHAvV0BvfXG+fv0/ZuuWC7mJDeCDeF3AUBp2xhSNJ1L+dc/vYDQhhnbHpRNNlwAAjhck3ALchmALAHIgZ+FWNJ5QK6MJgVMqS8fqsT8r0eYvLtBXrprCaT4AunLmWAX955kuAxaV6kjCQfujJxhNiCEF/edp8RSv6TIAAACcgmALAHIkZ+GWJG092JvLbwfYQtB/nr5y1WS99cX5+slnZuo6lrsDrlVH1xaG8cq+46P4tccyWAmchtceAMiuK2eyTxVwCYItAMihnIZbzfvTvykDuEHNPJ+e+sxMurkAF/J7PYTbGFLovfiodjWu3xLJYDVwGsahAgAAjBrBFgDkGJ1bgAWd3s3Fbi7AHa6b55OvwGO6DFjUaMOprQfjjIfGkHwFhOsAkE2VpXRuITmxvtT3q8ISCLYAwICchlujGacDuNXgbq69qxfpB58sYS8G4FCMBcNwnt+R3r6t072yn9GEGFrNfMItAMgGpnEgFRwKtyWCLQAwJE/9uf2GzfuPc2oJSIOvwKO6xQHVLQ6oNfpf+umWiNZvjoxqTBUAayj15/PeiCGFDsa1v3v0r/UNO2KqW0yIirOrWxzQ3/5nh6JxTowDWZfjz+Awq9R/nukSYCf94jXCXgaCrfsItgDAhJx2bkl0bwGZcGps4Zfm6/f/c65uuTAgv5dxZoBd1S0hcMDQnt85+q4taaD7i1E3GA6jCQEg8ypnjjNdAoDsINgCAMNyHm4172MkDpBJ5VO8euyTJdqzepF+8ucz2c8F2BA/txhOw45oxr5WJsYbwrnuuGyi6RIAwHEYKw84EsEWAFgAnVuAg9TM8+mxT5Zo7z0D+7muY38GYHlXzhyrIONqMITW6H9p68F4xr5eM9dhGEb5FC+7YQAgwxZPKTRdAoDMItgCAIvIebglSQ0ZGq8D4Ox8BR7VXRjQU5+ZSdAFWFwdXVsYxvMZ7NqSMjfiEM7FmFQAyBy/18MhJqQkk4eakBUEWwBgIUbCLU4NA7lD0AVYl9/r4ecRw1q/JZLRrxeNJzhkhGExJhUAMufKeVjMbgAAIABJREFUmWNNlwCbicbZj2phBFsAYDFGwi32PQBmEHQB1nLdPJ98BR7TZcCiYn2JrJze5ZARhhP0n8fNWADIkMpSXk8BhyDYAgALyjtH/Tn/pq3RPoUOxlXOYlXAmMGgq+7CgGJ9CTXsiOn5nVE1ED4DOcP4LwynYUdM2bhOa9gR1UN/Oi3jXxfOccuFATXvO2a6DMsz8TkKzsBzxz04SIhU8fpgSZslLT9y34UEWwBgMXmmvnHzvmOEW4BF+Ao8qr0woNrTgq5X9h1Tw84YYxGALCn153OaF8N6fmdm920N2h89wSEjDKtmvk/6tekqAMDeSv35CvrzTZcBGwmxb8uKCLYAwMKMjCWUMr9DAkBmDAZdj30yqN2ry/STP5+lugsD8nsZnQZkEl1bGM7gQYNsWb+lK2tfG/Y32N0NAEhfDV1bSFG0j4OlFkOwBQAWl2eq43lrZ69aoyc4yQRYXPU8n6rnDXwwa9wZ0/M7omred1z7u08YrgywN24cYzgNO2LK5jVa8172bmF41833a/1mDqMNi8lRSEe/eO64RN2FxaZLgN3w+mAlA8HW/QRbAGBlxsYSSgM3blZdNtFkCQBScHrQFToY1/rNXWrYGSPoAlJUOXMchzswrOd3ZGck4aCtBzlkhOFVz/PJ7/UwnhgA0lBalM/4X6QsdLDXdAkYQLAFADZhbCyhJE6DAjZWPsWrh66Zrje/tEAvrZynOy6bqNIibpICybiFkYQYQfO+7HdWZXPsIZyBDlMASA+vn0gHB0osgWALAGzEaLg1eGoYgL0RdAHJ83s97GDAsBp3xnJyc+N5wi2MoG4JI7UAIB3sVkU6CLeMI9gCAJsxGm5J0uN/OGy6BAAZRNAFDK9mvk++Ao/pMmBh2R5JOKh53zHFWFyOYZRP8WrxlELTZQCArdTM9zH2F2nZejBuugQ3I9gCABsyHm417OTUMOBUBF3Ah7FcHCPJ5bhARhNiJHQfAEBqbqHrFbAbgi0AsCnj4db+7hNqJOACHI+gCxhYLl45c6zpMmBhzfuO53QkTa66xGBfjFEFgOSVFuWreh6vm0hP6GCv6RLciGALAGwsT/2mS5Ce3x7lAhBwkcGg66Frpit0MK71m7vUsCOm/d3s4IOzsVwcI2nYEVUur80atnPACMML+vNVM89Hlx+QSRb4DI7s+MpVU0yXABuL9jIuOscGgq0HCLYAwK6Md25J0vrNEXY+AC51qqPrzgV67nMXqG5JQH4v+4jgTIz3wkhMBAiNhBYYwXXz/aZLAADLKy3KVy3XekhTiH1buUawBQAOYIlwS5Ie/8Nh0yUAMKxy5lg9dn1Qu79cpp/cPIsgAI5SOXMcy8UxrNDBuJEOVkYTYiS1HDwBgBF95aN0bSF9uRxLDYItAHCKPKvMRFi/uUv3cjEI4KTq+T5Vz/fpW9dOV8P2qJ7fERsY1wXY1C1LikyXAItbv7lLJq7LBl5bgzn/vrCXmvm+k89RAKPTL6t8BkfmLJ5aSNcWRmVg3xavDTlwMthaQrAFAA5gmc6t/d0nVM8HZgBn8BV4VLukWE/dPEtv3bVQ37p2hhZPLTRdFpASv9ejmgWM9cLwmvcdM/J9o/EEC8wxIrqpAWBoD10z3XQJsDk6t3KCYAsAHMYy4ZYk/XRzxHQJACws6M/Xqssm6sWV8/TS7fN0x+WTGJMEW6iZ75evgOcqhtYaPaGtneYCpvVcg2EElTPHqbSI0aoAcKa6JcWqnDnOdBmwuVf2mjnk5CIEWwDgQJYKt5r3HTN2ahmAvZRPKdRD10zX7i+X6yc3z1INy+5hYXQ8YCQNO2KGvz9jXzEy3msB4IP8Xo++dS1dWxi9WB+dW1lEsAUADmWpcEuSvvPSQdMlALCZ6vl+PXXzLO25t1zfunYGJ8thKaVF+ZzmxYhM7zLa332C0YQY0R2XTzRdAgBYyg+uD9Kdj4ww2cHvcARbAOBglgu36N4CkC5fgUerLpuoN+9cqJdun6e6JcWMLYRxdUuKTZcAizM9knBQ877jpkuAxQX9+ey9BICT6pYUq5qOVmQAB4yyhmALABzOcuGWxN4HAKNXPqVQj10f1Ft3LdQPrg9yMw7GMJIQIzE9knCQ6e4x2MMdl9G9BQCLpxYyjhAZE40zkjALCLYAwAXy1G+6hA9b/1aX7rh8osqncDMawOj4CjyqXVKs2iXFCh3s1eOvHVbDjigfIJATlbPGKehnTCaG98reY7LC9djWjl61Rk/wnMWwahb4pWdbTZdhDRb4uYVN8dyxNb/Xo8cYR4gMat57nNeFzBoIth4k2AIAp7Nk55Yk/e1/tJsuAYDDlE8p1GM3BPXW3Qv1gxvo5kL23ULXFkYQ60uoYXvUdBmnNGy3RhcZrMtX4BkIuADApb517XQO4iKjtjKWMJMItgDARSwbbjXvZfcWgOwY7OZ68fZ5eu7WC9iJhKzwe7kBjJFZKdiSpFe49kISCO4BuNW3rp2hWj47IMNau0+YLsEpCLYAwGXyzjFdwTAefumgnv3cONNlAHCwypnjVDlznL5VNV2Pv3ZY9Zu7tJ8PF8iA6+b7GVeDETXsiMlK12KN26OK9SV47mJY1fP9KvJ6GPELpOGckw/YT92SYq26nL2DyLxQZy+vC6O3WdLywwRbAOAqlu3ckga6txp3WOtEMwBn8hV4dO/VU/TGXQv12A1BVc4iWMfo1F1EZwNGZrXOLcmaNcF66HoG4CZ1S4q19oag6TLgQC10zWcCwRYAuJSlwy1Juo/dWwByrHZJsZ793AWMLETaSovyVTGTgBTDs+oBnua9x02XABsgwAfgFgRbyCamhowawRYAuFie1G+6hmHt7+7Twy916t6rp5ouBYDLVMwcp4qZ43Tv8il64rVDWr+5ixFMSEot+2iQhIEOKetdhzXs6NZacRMPwyubUqjSovNcflPOej+/sAueO3ZBsIVsC3X2iteEtJ0Mti4i2AIAl7J855YkPfGHQ4r1cUMZgBlBf76+ee0MvXn3It179VSVFuWbLgkWV3cRHX8YWYNFO7ei8YRlu8pgLasun2S6BADImnuvnqq1N5SaLgMO9wpjCdNFsAUAsEe4FY0ndF/TAdNlAHC5gb1cU/XGXYv02A2lhFw4q8pZ4xT089zA8Bp3RC3dCcreLSSjZoHfdAkAkBWP3VDK9BjkxEDnFlJEsAUAkGSTcEuS1m/uYtEmAMuoXVJ8KuQqn1pouhxYCHvakAyrh0fNXHMhCUF/vipnsV8QgHP4vR69tGq+armeQw5wjystBFsAgFPy7DTa90u/2q837l5kugwAOKV2SbFqlxSrZd8xfefFTjXv5QOKm/m9HjoZkJTmvccsvV5hf+SEwgd7VTaF8B7Dq1tSrOY9vPcBKbHw67+bVc4ap6dqz5evwGO6FLjE1s5eXg9SMxBsfZVgCwAwwDadW5K0v/uEHn6p03QZAPAhFTPH6dlb5+i52+Zwit3Fahb4uSGCEYUP9mp/9wnTZYxo/VtdpkuADdQs8Mvv5XUPgL3du3yqnr11DtdxyCkORqaEYAsA8CG2Crck6eEXOxU+yExiANZEyOVudRcxwgYjs0to9Ao3XJAEXwEdqwDsq3xqoV66Yz77tWAE4VbSCLYAAGdlu3BLkr74q/2mSwCAYRFyuU9pUb4qZvL/GiOz+r6tQaHOXrVGrd9hBvMItwDYjd/r0b3Lp+rFVfMZwQsjwgd7FY0nTJdhBwRbAIAh2TLcCnX2Mp4QgC2cHnKVFuWbLgdZVEvXFpJgl5GEg+wSxMGs6vl+3uMA2EbNAr9epFsLhtEhnxSCLQDAsGwZbkkD4wlb9nExAMAeKmaO0xt3L9JjN5ZyA9ChGEmIZNjtRoZdRijCPLq3AFhd5axxeu62OfrxivMV9HM9DrMYSTgigi0AwIjy1G+6hPR96Zf79eId8+VjiTUAm6hdUqzaJcV64rVDevjFTkZROETlrHHcJEFS1r/ZJTtde4U6ehWLJ7jWwohWXT5Jj796yHQZuWWjn2VYSL947uRYaVG+HqqaoWpCeFhI855jvBYMbSDY+juCLQDA8GzbuSVJ+7tP6Evs3wJgQ6s+Mklv/s0i3bt8qvzcNLY9uraQjNbuEwp19pouI2WMJkQygkX5Kp/K3hoA1jHYqfXG3ywi2IKlhDvZtzUMgi0AQNJsHW5JAzdcnnjNZadEATiCb3CR9R3zCUdszO/1MI4LSbFrSGTXupF7vJcBsIK6i4r13G1z9Oxtc1Qxa5zpcoAPsduY6hwi2AIApMT24ZYk3dd0QGEbnoQGAGngtPvaG0v13G1zVMkHcNupWeBnZBuSYtf9VYRbSBbhFgBTBkcP7v5fi7X2xlJCLVga11ZnRbAFAEhZnlOG/P5F/W69eMcCbjACsK2KWeP07G1zVP9Wl+5ramNUhU1wMxfJiMUTCnX2mC4jbY3bo4x0woh8Xo9qFvi4aQeMyBmfwU0b7J6/4yOTVcZYVNhELJ5Q896jpsuwmpPB1sUEWwCAlDiic0sa2L/1F/W7TZcBAKNWe1Gx3vybMt3xkcmmS8EISovyORmMpNj9Zn/Ddu41IDl1F00wXQIABystylfdRcV6qna2dv2vC7X2xpkEW7CVZkYSnolgCwCQtjzTBWRS895jur/pgL5ZNcN0KQAwKj6vR9+smqG6i4r1t01tfAiyqFpu4iJJdg+HGrZHtdZ0EbCF6gV++b0euo8BZEzlrHGqnDVe1y3wE2TB9ux+TZhhBFsAgFFxVLglSY+/9p7KpxaqljFRABygbGqhnr1tLqMKLYqRhEhGLJ6wfedWNJ5Qy95jdCoiKTUL/LbdMQfAvMEwa/HUQlXOGsfqATiK3a8JM4hgCwAwao4LtyTpvqY2LZ5ayKkuAI5Re1Gxahb49aVf7eMDkUVUzhqnYFG+6TJgA075mW3YHiXcQlLu+Mhkwi0ASamcNU6lRfkqnzpGi6cW8j4DRwt39nJYcQDBFgAgIxwZbkXjCV3/f9/Ri3cs4MYjAMfweT36ce1stew9pi/9ap/2d58wXZKrsVcGyXLK0vCG7d2MfkZSyqYWqrQon/cpAJIkv9ej8pOvC8GiAi0++dccRoXbcPBDEsEWACCD8tRvuoTsiPYm9Bfrd+u5v5zLGAMAjlIxa5xevGOBHn6xU4+/+p7pclzJ7/WoZoHfdBmwiYa3o3LC9db+yAmFO3u5GYmk1F40QQ//vw7TZQDW5ID3hEGVp3VaLZ42Rj6vR36vR4unFsrv9fCeAZym4e1uR/38p2Eg2PoawRYAIDMc2bk1KNTZq+t/+A4BFwDH8Xk9+mbVjIFRhb+kiyvXahb6eV9BUhq3Rx01fuaVvce4UYmk1F1UTLgFnEWwKF/3fmya6TLOqrQoX6UjTD5hbCCQnnBnr9s/sxFsAQAyztHhljQQcN3X1Ka1N840XQoAZFzFrHF68fN0ceUaIwmRrIbtzvr8vv7NI1r1kUmmy4ANBIvyVTlrnJr3HjNdCmApwaJ83bt8qukyAOSYy0cSEmwBALLiXNMF5ML6N7t056/2mS4DALJisIvrqbrZ8tNNlHWlRfmcWkbSGt6Omi4ho0KdvWp196ljpKDuYg4CAAAgnRxJ6E4EWwCArDn3HElueNQTcAFwuOoFfr35/5XpugV+46+5Tn5wsxbJatl7TLF4wvhzNtOPxu3OCuyQPTUueD8CAGAk4ZOHg0y/Zxl4bD6HYAsAkEWu6NwaRMAFwOl8Xo9+VDdbD1WXmC7FsWovKjZdAmyiwaEhUPOeo6ZLgE34vB7VXsxrJgDA3R5/zZXj4zdLWn6IYAsAkEWuCrekgYBrzYudpssAgKy6/SOT9OLnF6h8aqHpUhylctY4BUdYtA4Mcur4mYbtUcXiCdNlwCZqFhSZLgEAAKMaHTamOgkEWwCAnMhTf7/pGnLu4d+1K1h0nmovYrQUAOcqm1qoZ/9yru5rbFP9m0dMl+MIdCAgWeHOXrVG+kyXkTUN27u5jkJSqhf4FfSf58xdbS78HAUASE39W0cU7X3fdBm5NBBsff0Sgi0AQNa5rnNr0J2/2Kc7f8mIQgDO5vN6tPammVr7qZmmS7E9v9dDBwKStt7hgXLznmOmS4CN1CzktRMA4E4u69oi2AIA5JRrwy1Jqn/zCAEXAFeovWiCXvzCQkbqjUL1wiL5vB7TZcAmnL6XqtGhIxeRHXUX0+UHAHCf1u4Tjh1TfRYEWwCAnHN1uCURcAFwj7KphXrxCwtVef5406XYEjdnkazW7hMKdfaaLiOrovGEGre76iQyRqFsaiE7IAEAruOi0fAEWwAAI1wfbkkEXADcw+f16Fd/OVe1BDUpCRblq2LWONNlwCbc0tXkopPIyAAOCAAA3MbpY6pPItgCABhDuHVS/ZtHdOv63YrFE6ZLAYCsYw9Xargpi1S45EaG40cvIrOq2bsFAHCRxu1RtXafMF1GthFsAQCMItw6TcPb3brhX3cScAFwhcE9XH72SI2ITjckyw0jCQe1dp9Q2CW/V4xesChfNQRcAACXeOLV90yXkG0EWwAA4wi3zhDq7NUN/7qTmzUAXKFsaqGe/at57EIZRuX54xUsyjddBmyiea+7upnc0qWGzKhe6DddAgAAWdfafcLpHe4EWwAASyDcOgsCLgBuQsA1vNqLi02XABtpfDtquoScYu8WUlF70QS6hQEAjvfw/+swXUI2EWwBACyDcGsI0XhCy//xbdW/xYlkAM7n83r07F/NY/zeGfxej2oWMEYLyYnFE64Le1q7T7hhnwQyiN1bAAAni8UTanTu9SDBFgDAUs5Vv8Rj6MedP9+n+xvbRvFHDAD24PN6tPammaq9aILx116rPKoXFMlHlwGS1PB2t/HnrImHg2/gIAvqLnbQewwAAGd44tX3FO1NmH+Pyvxjs/oJtgAA1kLnVhKeaHlPt/50t2LxhOlSACDr1n5qJh1cJ9Vdwp8Dkue2kYSD2LuFVFTMGsceQwCAYz3R8p7pErJhoGPrGwRbAABrIdxKUsPb3ezhAuAaaz81Uw/VlJguw6hgUb4qZo0zXQZsxG0jCQeFOno5AISUcHAAAOBE9W8eUdR510QEWwAAyyLcSkGoo1c3/MtO157MBuAut18xWWs/NdN0GcZw8xWpcPu1gVuDPaSH7mAAgBM9/LsO0yVkGsEWAMDSCLdSFI0n9Lmf7mIPFwBXqL14gmsDLm6+IhVuD3fcHu4hNcGifJVPKzRdBgAAGVP/5hG1dp8wXUYmEWwBACyPcCtNT7S8pxv/9R3G8ABwPDcGXJXnj2cnDFLS6PJwq+Htbq6JkJJVV0w2XQIAABnjsK4tgi0AgC0Qbo1C856juuQfQmrZe8x0KQCQVW4LuGovLjZdAmyk8e2oE/crpKx5D9dDSF7NwiLTJQAAkBEO69oi2AIA2Ma5Ur94pP+Ixt/XDf+yQ/c3tqbxxw8A9vHfAZf5195sPvzec7npipQ0743J9PPWCo+GtyOj/rOEe/i8HtUs9Mv083Z0DwAApId/1y7z70kZeWyW+gm2AAC2QedWhjzR8p4+9o9vO+m0DgB8SO3FExy/i6p6YZF8Xo/pMmAjDdv4/C8xmhGpc/r7CQDA+RzUtXWyY2spF3QAANsg3MqgUEePPvaDbap/84jpUgAga9Z+apajb0jWXeLc3xsyL9zZ65QbGqMWjSfUsveo6TJgI9ULi+TnMAEAwKZi8cTJri3bI9gCANjSuea7np31iPYmdOfP9+rWf9vFYnUAjnUq4LLA624mH8GifFXMGp/hPy042fo3Dht/3lrpQRcbUmX79xIAgGs90fKeWiMnzL8Xje6xWf0EWwAAe6JzK0sa3u7WJY9sZUQPAMd6qCao8mljTJeRUXUXTzRdAmymgff5D+DPA6mqu4TXXQCA/cTiCT3RctB0GaM10LH1TYItAIA9EW5lUTSe0Of+bRddXAAcyef16Nm/nueogKuWkYRIQbizd+C0Lk5pjZxQuLPXdBmwkbKphQoG8k2XAQBASh7+Xbui9r7PQ7AFALC9c8+RxCO7j8a3u7X0ka1q4jQzAIfxeT167NOzVOT1GH+tHe3jyvPHK1jEDVYkr3nPUePPWys+GE2IVN1RMcX48zadBwDAndq6T2hdy3vG34dG8dh8DsEWAMAB6NzKEbq4ADhV2dRC/eizF5guY9To2kKq6t84YroES2IkM1JVs7DIdAkAACTtzp/vNV3CaGyWtPw9gi0AgAMQbuXYYBfXhje5IQbAOSrOH6+1n55luoy0+b0eVXNzFSlo6z6hUEeP6TIsKdTRo7ZuxjUieSVF+bwGAwBsoentbjXvOWq6jHQRbAEAHIVwy4BoPKE7f75XN/3LTm7+AHCMFRdPsG33U/WiIvm8HtNlwEYa6E4aFn8+SFXNIsItAIC1xeIJ3dfQarqMdBFsAQAch3DLoOY9R/Wxx7Zpze86TJcCABnx/U/NUvm0MabLSFntxfYM5WBOI3ulhtW827YnmmFI9cIi+TlkAACwsCda3lNrxJYHlAm2AACORLhlWDSe0JrftWvpP2xVi31b2wHglB9/9gJb3aAMBvJVcf5402XARmLxhJ3H0eRE49vd7BhFSnxej6rp3gIAWFS4s1drftduuox0EGwBAByLcMsiWiMndOO/7NSt/7aLUYUAbK2kKN9W+7dqL55ougTYTCMj95LCnxNSVcPeLQCARd3/vC3HERJsAQAcLU/9/aZrwGkat0XUsjum2yun6Msfn266HABIS9XCIq26YrKeaDloupQR1dl0TxjMadgWEddPI2vYFtEKRn4iBVULixQsyldrpM90KUnidQAA3GBdy0E1746ZLiNVA8HWQ8sItgAAjkXnlgVF4wmteaFdSx/ZqiZOPQOwqW9cF7T8/q3K88erpCjfdBmwkVg8wb6tJLWwdwtpoHsLAGAlbd0ntOYF240jJNgCALgC4ZaFtUb69LmfvKub/nmHwh09pssBgJSt/fQsS+/fqr2EkYRIDcFW8qLxBId0kLJVlVNMlwAAwCl3PrNHUXvtESXYAgC4BuGWDTTvOaqPPbZNd/18L/u4ANhK2bQx+vInrDli1e/1qHoRHQJITfMeupFS0UAYiBSVFOVbvusXAOAO61oO2u3aj2ALAOAqhFs2Uv/GYX1sbVhrfteumL1ODgFwsdsrpqjy/PGmy/iQ6kUB+SzcVQZratwWMV2CrdjshhAsopZdiAAAw2w4jpBgCwDgOoRbNnNqH9eaLVrXctB0OQCQlLWfOd9y4wm5eYpUNb3dbbexNMa1RvoYrYyUMTIWAGDa537yrp2u+wi2AACuRLhlU9F4Qvc/36qlj2zVhjeOmC4HAIZVUpRvqfGEwUCBKizYTQZrY8Reeuq5TkGKfIyNBQAYtOZ37QrZ53AOwRYAwLXOVb/Ew76P1q4+3fnMHi1dQ8gFwNpOjSe0wGtn7cV0bSF1jeGI8eeuHR+EgkhH3cUTjT93k3oAABylZc9Rrfltu/n3l+Qem9VPsAUAcC86txyiNTIQct30zzvUwn4LABb1zeuCpkuQJNUtZeQVUhPu6LHTaBpLaY30qa37hOkyYDNVi4osN84WAOBssXhCtz71rukykjXQsfUtgi0AgHsRbjlM8+6juvHJHYRcACypbNoY4+MJK2ePV0lRvtEaYD+M1hudhm0R0yXAhqoXBUyXAABwkVvts2eLYAsAABFuORYhFwCrWlU5RcFAgbHvX3sJXVtIHaP1Rqd+E+EgUreqcrLpEgAALrHmhXY177bFvROCLQAATiLccjhCLgBW4/N6dK+h7i2/16PqRUVGvjfsK9zRo9ZIn+kybC3U0cNoQqSsbNoYo4chAADu0LStW2teaDddRjIItgAAOA3hlksMhlxL12zVBkYrATBsxSUTVDl7fM6/b/WigHzscEGKGEmYGTY5DQ2Lqb1kgukSAAAO1tZ9Qnc+s8d0Gckg2AIA4AyEWy7TGunTnc/sIeQCYJyJ3Vu1S7lJitQRymQGe7eQjrqljJIFAGRHLJ7Q556yxZ4tgi0AAM6CcMulTg+51rzQrpj1L+YAOEzF+eNzOiIwGChQxfm57xaDvbV1n1Coo8d0GY7QuK2b6w2krKQo30inLwDA+e58Zo8drvMItgAAGALhlsu1Rvq05oV2LX14i9a80M4+DAA59dCflebsezHaCumg2yizWuiCQxpqL6F7CwCQWQ8836rGbZbPiwi2AAAYBuEWJEnReEJrXmjXJQ9v0V3P7FXY+qeXADhASVF+zm5aMtoK6ajfxAjfTGqw/k0kWFAuu3wBAM634Y0jeqL5oOkyRkKwBQDACPLU32+6BlhM/aZDqt90SJWzx2tV5VRVcUMBQBbd+yfTVb/pUFa/R+Xs8Sopys/q94DztHWfUKj9uOkyHKUx3CV9ZpbpMmAzPq9HtZdMUP2mw6ZLAQDYXMueo7rzZ7tNlzGSgWDr7y8l2AIAYBh0bmFIzbuP6nNPvaOlD2/RuuaD7MkAkBUlRfmqzXJXVba/PpypeXfMdAmOE40n1ET3FtJQsyhgugQAgM2FO3p064/fMV3GSAi2AABIEuEWRtQa6dP9/75fS7+zWXc9s4e9XAAy7t4/mZG1r+33elTNTVGkoSHMPYVsIDREOqoWFSkYKDBdBgDAptq6T+jGddsVtfahXYItAABScO45knjwSOYRiye0YdNhLf3OZt305HZOXgPImJKifNUtnZiV166asoB8Xk9Ofz+wv1g8oaZtEePvvU582GB5OyyqZlGR8efvmQ8AgPXF4gnd+uN3FIsnjL9vDPPYfA7BFgAAKaFzC2lp2X1Utz71jpY9vEWPvNDOyEIAo3Z75ZSsfN0VjCREGhq3RUyX4FitkT6FO3pMlwEbYsQsACBVsXhCN63brpC1rz02S1p+kGALAICUEG5hVFojfVrz2wOa+7U3dPcze9Sy56jpkgDYVNm0MaqYPT6jXzMYKFA21QLsAAAgAElEQVTF+Zn9mnCHRkYSZhXdW0hH2bQxKp82xnQZAACbINgCAMDZCLeQMfWbDuumddu17OEterL5IN1cAFK2qnJqRr8ep/yRrhb2QmVVY5jOOKSH13UAQDIItgAAcD7CLWRca6RP9//7/lPdXOzmApCsqkVFCgYKMvb1uAmKdDRt67b6snHbC3X0qK37hOkyYEPVZQHTJQAAbOCBf99PsAUAgMMRbiGr6jcd/sBuLm5kARjJqgzt3qqYPV4lRfkZ+VpwF/Zt5QbdW0hHSVG+qhcRcAEAhnb3M3tUv+mw6TKGQ7AFAEAGEG4hJwZ3cy39zmbd9OR2bXjD0heaAAxakaFuK7q2kC5Cl9xoIEREmqrLikyXAACwoFg8oZue3E6wBQCAS5yrfokHj1w+WnYd1V1P79G8r72hu3+2R2FrjwoAkGM+r0e1l0wc1euM3+vhZD/S0rStW9HehPH3Sjc8WnYdZT8n0rLikonyez3Gn8Pqz/7vFQCQnMEdWy27jpp/bxj6sVn9BFsAAGQKnVswJtqbUP2mw/r4o2Et+84WPfLbdrVFGFsIYPTdW9WLAvJ5PRmqBm7SvDtmugRXoUsO6eIAAwBg0GCwFWq39MHZgY6tbxNsAQCQKYRbsITTxxZ+4vthbdh0mNPcgItVzB6vYKAg7V+fqdGGcJ/GMPcbcqlxG3/eSA+v8wAAiWALAAA3I9yC5YTae3TXz/Zo7t+9odueelcbrD0vG0CWpLszKxgoUMXs8RmuBm4Q7uhRa6TPdBmu0kKnHNI02kMQAAD7C3f06OOPhgm2AABwKcItWFpjOKK7fvbf+7maOOENuEa64daqK6dkuBK4hcWXjztStDfBezvSlu77BADA/sIdPbpp3XarH0wi2AIAIIsIt2ALg/u5bv3xO6eCrnCHpU9nARilkkC+yqePSfnXsYcF6WIkoRns3UK6CLcAwJ02bDqsm9ZtV7TX0qsMCLYAAMiyPKnfdA1ASqK976t+0yHVbzqkYKBA1WUB1S6dqLJpqd8EB2BttUsn6P7240n/99VlAZUE8rNYEZyqLdKn1kjcdBmu1LitS4/qfNNlwIYGDkEUGhxHxecoAMi1J5s7df+v95suYyQng63LCLYAAMgiOrdga62RPq17pVMffzSkZd/ZrAf+fT8dXYCDpNqFRdcW0tW4je4hU6K9Cd67kbbbK6eaLgEAkCN3/2w3wRYAADiFcAuOQdAFOE9JoCDp0YT+Qo9WMKIKaWLflln8+SNd1WUcagAAp4vFE/rE90N2uF4g2AIAIIcIt+BIZwu6WnYfNV0WgDQk241F1xbS1RbpMzjWDBJ7t5A+n9dDwAUADhbu6NHHHw3Z4VqNYAsAgBzLY1Q8nK61q0/rXu7Uupc75S8cuAFSXRZQFTfCAVuoLgtozW8OjPjf3X4lo6mQnsZwhNU5hrV29akt0qeSQIHpUmBDtUsnqjFEQAoATrNh02E98Ot9ivYmTJcykoFg6zsEWwAA5FKe6QKAXIr2JlS/8bDqNx4+FXRVzPapuiwgn9djujwAZ1E2bYz8hZ5hP9QGAwUqm5bc+ELgTA1h7kNYQWM4opWE1EhD1aLAiO8TAAB7eeDX+7XulU7TZSSDYAsAAEMYSwjXGgy67np6t+Z+dZNu+/E72rDpsNoifaZLA3CGkUZOrbpySo4qgdPE4gm17I6ZLgNi7xZGZ8XSSaZLAABkQFukT594NESwBQAARkS4BZzUGI7orqd3a+m3N+sTj4b05CudBF2ARVTM9g3779m3gnSx68k6Qu09vO8ibbXLJpouAQAwSk3bInbZryURbAEAYBxjCYGzCLX36P72/br/1/sVDBSouiyg2mUTGXsGGFI5e/yQ/666LMCeHqSNcMtamncf1Yql/DwjdWXTxigYKFArASkA2E4sntCa3xywS7eWRLAFAIAl0LkFjKA10qd1r3Tq498Ladm3N+vun+1W0zZuhgK5VBIoUHCIAIuuLaQrFk8QblkM/z8wGoyoBQD7CXf06KYn3ibYAgAAKSPcAlLQGulT/cbDuvVH72je323S3T/brQ2bDisWZ4E5kG2VF3y4e8tf6NGKpYyiQnrYtWU9jeEI76lIG4cdAMBeHvntAX38e7YZQygRbAEAYCmEW0Caor0J1W88rLue3q25X92k2378DkEXkEVn27vFjUyMBl1C1kToiHSVnBwlDQCwtrZInz7xaEhrfnPAdCmpINgCAMBi2LkFZEhjOHLqRml1WUDVZQFVzh7PLiAgQ862d+v2K6caqAROQbhlTY3hiKoWEVAgPdVlAX62AcDCnnylU2t+e0DRXlsdCiXYAgDAggi3gCw4Pegqnz5GtUsnqrosQNAFjEJJoED+Qs+pD8LBQIHKpo0xXBXsqmlbxG43VVyjMRzRo39uugrYVXVZ4APvFQAAawh39Oiup3fbaQThIIItAAAsKk/9pksAnC10oEf3H9iv+5/bPxB0LSPoAtJVNm2sWnYNjCxbdeUUw9XAzhpDEXENZE3RnoSawhFVMV4OafB5PapeFFD9xsPZ/2a8hgDAiGLxhNa93Gm3EYSDBoKthwm2AACwInZuATkUau/R/c/t19K/36xPfC/Eji4gRaePJmSvCkaDsWXW1rz7qOkSYGMrlk0yXQIAQFLL7qP6+Hdtt1trEMEWAAAWx1hCwJBQe4/u2rBb0skdXeUDe7p8Xo/hygDrKp8+MIaQ7keMRrijh5FlFtcYiugbnyw1XQZsqmL2eAUDBWqN9JkuBQBcqS3Sp/uf22/nw0QEWwAA2EDeOczTAIxrCnepKdyluzVw2ri6LMA4JuAsyqeP0TnqV005Px9I34aNh8T1j7W1ReIKd/SwVw9pqykv0rqXO02XAQCu88hvDujJVzoU7U3oHNPFpGezpOWdD19OsAUAgMUxlhCwmA0bD+m2H+3U/K9u1N1P71a4w3YLd4GsKQkUyF/o0c1LJ5ouBTbWGLLtKWJX2bDxkOkSYGO3XznVdAkA4CpN4Ygu/fu39Mhv2uzcIU+wBQCAjTCWELCoaG9CGzYe0oaNhxQMFOj2q6Yyig2Q9I3rZ5kuATb3jetnasPGQ3YelQNgBCWBApVPH6NQO4eEACCbXt0d05rfHFDLrpjpUkaLYAsAAJs5Z8qXX2MuD2Aj1WUBrVg2ibGFADBKsXhCTeGIGkNdBF0WMbCDslhV7KBEBjz5SqceeG5f1r7+PX9aonv+dEbWvj4AWFlbpE9rfnPAKZ3WBFsAANgQ4RZgU/5Cj1Ysm6Tbr5xKNxcAjBJBlxn+Qo8qZvsItJAVsXhC8x7cmLWvT7gFwI0cFmpJBFsAANgW4RbgAHRzAUDmxOIJteyKqTEcUcuumFojfaZLcpRgoEDV5QFVzPbxvoWs+8sf7cxaYE24BcBNYvGEHvlNm9a93Gm6lEwi2AIAwMbYuQU4QGM4osZw5NRurhXLJnH6HQDS5PN6VFUWOBW8hDt61LIrNvDYHbPzknQjgoECVVzgU+UFPlXMHk+3MXJqxbJJdGMCwCjE4gmte7lTT77S4bRrIIItAABs7pwp99C5BTiNv9CjqrJiffmaGdxEBIAMC7f3nAq6Qgd66Ow6Q/n0MSqbPnYgzLqAMAvmzX9wY1ZuyN5zDZ1bAJyrLdKnNf/pqPGDpxsIttYQbAEAYGd0bgEOFO1NaMPGQ9qw8ZBWLJuk2ksn6orZPtNlAYAjlE0fo7LpY7TyqqmSBm7+hNp7FDoZeoXbjzvtZPOQBoOsYHGBKi8Yz3sNLKmqrNipN2cBIOMcHmpJBFsAADgGnVuAS1Rc4NOXr5nBjUcAyIFYPKFw+/FTnV2h9h61dvXZtsurfPoY+QrzVHGBT6WBAgWL83k/gW2E23v0ie9uzfjXpXMLgJO8ujumNf95QC27YqZLySaCLQAAHITOLcAlWnbFdNM/xQi5ACAHfF6PrpjtO+trbbi9R7H4+wod6FH0ZAgW7U0o1vu+Qu09Oa/VX+hR2fSxkv47xBoMsIKBAsYKwvbKpo9RMFBg23AZALLp6Y2Hte7lDiPXIDlGsAUAgMMQbgEuQ8gFAGaVTR8jSSO+/r66+4Mnp5t3HU37e/q9HpXPGHPq733evFN1AG5w+1VT9cBz+0yXAQCW0BbpU/3Gw3ry5Q63jFIm2AIAwIEItwCXGgy5qssD+sb1MzmZDwAWc2b4xWEEIH3V5QHCLQCu1xSOaMPGQ2oMRUyXkksEWwAAOBThFuByjaGIGkMR3X7VVN1zTYl8Xo/pkgAAADKqJFCgigt8Tt8lAwAfMtilteH1Q24cz0qwBQCAgxFuAZAkrXu5Uxs2HtI3rp+lm5dNNF0OAABARtUum0S4BcA1nt54WI3hLrd1aZ2OYAsAAIcj3AJwSrQ3obs27FL9xkP6/orZjCoEAACOUVUekDaYrgIAsufV3THVv35YTeEut+zSGgrBFgAALkC4BeBDWnbFtOxbb+mea0p0z5/OMF0OAADAqPm8Hq1YNkkbNh4yXQoAZEy4vefUHi0Xjh08G4ItAABcIk/9/aZrAGBRj/xHq5q2dun//uU8urgAAIDtVZcHtOH19zLzxfgcBcCQcHuPNrx+SI3hLrV2EWidZiDYeuQjBFsAALgAnVsAhhVqP65P/J+t+sYNM3XzskmmywEAAEhbVVlAweICbgYDsJ1Xd8XUGIoQaA2NYAsAAJch3AIwomjv+7qrfpdCB3r09Rtmmi4HAAAgbdVlxVr3cofpMgBgWLF4Qk2hLjXviqkpFFG0933TJVkZwRYAAC5EuAUgaete7lDLrph+8YVF8nk9pssBAABI2YpLJxFuAbCkcHuPWnbF1BjqUsuumOly7IJgCwAAlyLcApCSUPtxfeoft+nR2gtUNn2M6XIAAABSUjZ9jMqnj1Wo/bjpUgC4XFukTy27YnRnpY9gCwAAFyPcApCyUPtxfeqftukXn19EwAUAAGxnxaWTFHqWcAtAbp0eZrXsirE7a3QItgAAcDnCLQBpifa+T8AFAABsacWlk/TAs3tNlwHA4QbHDLbsiinUfpwwK3MItgAAAOEWgPQRcAEAADvyeT2qLi9WY6jLdCkAHKIt0qdQe49a3h0IstiZlTUEWwAAQBLhFoBRiva+r7vrd+kXX1gkn9djuhwAAICkVJcHCLcApCXc3qNw+3Ht7xoYMxhu72FfVm4QbAEAgFMItwCMWqj9uG774Q794vOLTJcCAACQlJuXTdIDz+7jhjSAIbVF+tTa1afmXTG1RvoUPtCjUDv7+gwh2AIAAB+Qp37TJQBwgpZ3Y3rw2X36+g0zTZcCAACQlKqygDa8fsh0GQAMisUTCh8Y2Ie1/2SA1RrpU+gAIZaFDARb/0CwBQAA/hudWwAyZt3vO1RdHtAVF/hMlwIAADCi2ksnEW4BDjcYXkV7E6e6rlreHdiHxV4sWyDYAgAAZ0W4BSCj7qrfpRdWX8j+LQAAYHlXXOBTsLhArV19pksBkKJXTwummk/+daw3carjij1YjkCwBQAAhpR3jukKADhKW1efnvx9h1ZfU2K6FAAAgBHVXjpJj/xHW8q/js9RQHJeTaI7KtTeo9gZQVRrV98HgufWSF/KQTQ/p7a2WdLyDoItAAAwBDq3AGTcut93auVHp9G9BQAALG9FmuEWkI5Xd8X0qX/cZroMwOoItgAAwIjONV0AAOeJ9b6vJ3/fYboMAACAEZUEClQ2Y6zpMgAAAwi2AABAUvKkftM1AHCgdb/voHsLAADYwu1XTdXd9e+aLgOuwWdwYAgng60rCLYAAMCI6NwCkBWx3vfVtLXLdBkAAAAjqlpcbLoEAHA7gi0AAJASwi0AWdMYItwCAADW5/N6tOLSSabLAAC3ItgCAAApI9wCkDVNoS7F4gnTZQAAAIyoqpzuLQAwgGALAACkJY9x3wCyKXzguK64wGe6DAAAgGFVlRfL581TrPf95H4Bn6OQLp47wKCBYOv/EGwBAIDU0bkFIKta3o2ZLgEAACApjCYEgJwh2AIAAKNCuAUgq0Ltx02XAAAAkJQVlxFuAUAOEGwBAIBRI9wCkFVJj/YBAAAwrGz6WAWLC0yXAQBORrAFAAAygnALQFaFDvSYLgEAACBpKz86zXQJAOBUBFsAACBjCLcAZBWdWwAAwE6qFxebLgEAnIhgCwAAZBThFgAAAACcVBIoUBUBFwBkEsEWAADIOMItAAAAADhNdTnhFgBkCMEWAADICsItAFnFUnYAAGA3VYuL5SvMM10GANgdwRYAAMgawi0AWUW4BQAA7Mbn9ai6PGC6DACwM4ItAACQVYRbKXq0bo7KZow1XQZgG5x6BgAAdrTissmmSwAAuyLYAgAAWUe4lYIVl07SzZdO0m9XX6iv3ziLm/ZAEsqnEwYDAAD7ueICHx3oAJA6gi0AAJAThFspuKcqeOqvV350ml5/4BKt/Og0gxUB1sdNIQAAYFdV5cWmSwAAOyHYAgAAOZOn/n7TNdjCissmqyTwwZv0Pq9HX79xllZcNkkP/nKvWt6NGqoOsK6yGWNMlwAAAJCW26+epidfah/i3/I5CmniMzicaSDY+m4FwRYAAMgJOreSdHrX1pnKpo/Vz79Yph/+9QK6VIDT+ArzVMZYQgAAYFMlgQL27QLAyAi2AABAzhFuJeFsXVtnU1VerD8+sFRfv+l89nEBkirm+EyXAAAAMCorLptsugQAsDKCLQAAYAThVhKG69o6m5UfnabXH1yqlVezjwvuVjHHb7oEAACAUSHcAoAhEWwBAABjCLdGkGzX1pkG9nGdr9cfXKqqxSyihjtV89wHAAA25/N6uJ4HgA8j2AIAAEYRbo0g1a6tM5UECvTDv1qgX3ypnC4WuErZjLFpBcMAAABWQ/cWAHwAwRYAADCOcGsY6XZtnc0VF/j08y+W6Yd/vUDBYm74w/m4CQQAAJyiqryYnboAMIBgCwAAWALh1jBG27V1NlXlxfrjA0v16C1zCLngaIRbAADASRi3DAAEWwAAwDoIt4aQya6ts7n50sn64wNLdU9VkFOgcJwVl02Wz+sxXQYAAEDGrLx6mukSAMAkgi0AAGAphFtDyEbX1tmsvjao1x8k5IKz5OrnBwAAIFfKpo9l8gIAtyLYAgAAlpOnftMlWE+2u7bO5PN6tPraoFZePV1PvtiudS91KNb7fs6+P5BJuf75AQAAyJWVH52uB3+5Z+Bv+ByFdPSL5w7sZiDY+h7BFgAAsBY6t87CVNeJz+vR6qqgXv8qnVywL7q2AACAU7F3C4DLEGwBAADLItw6w4rLJqvE8LgRQi7Y1cqrpxn/+QEAAMiWkuICVczxmy4DAHKBYAsAAFha3jmmK7AYK3WdDIZcK5cPjCt8knGFsDBfYZ7uqS41XQYAAEBWrbhskl59N2q6DNgYn8FhA5slLW8n2AIAABZG59ZprNC1dTaDIdcfv7pUq+nkgkU9essc+bwe02UAAABkVdWFE0yXAADZRLAFAABsgXDrNKst1LV1NqeHXN+7ZY6CFgzi4E5Vi4t1LTsoAACAC/i8Hq24bLLpMgAgGwi2AACAbRBunWTVrq2z8Xk9uvmyyfrDg4RcMC9YXKDvfXau6TIAAABypopDPQCch2ALAADYCvPtTrJ619ZQbr5ssm6+bLJefTemf2hqVQvz/5FDvsI8/fCvFzCOEAAAuMq1i4sVZRcuAOcg2AIAALZD55bs1bU1lCvm+PTMl8r0xweXMiYFOfPoLXO0aMZY02UAAADkHLu3ADgEwRYAALAlwi3Zt2vrbEqKC/TdW+Zo+7cv1+qqICMLkTXfu2UOe7YAAIBr0bkOwAEItgAAgG3lqb/fdA1Grbjc/l1bZ+PzerS6KqjVVUE9/cf39PQf3mNkITLme5+dq5vpEAQAAABS1C+3fwaHZQwEW49WEmwBAABbcv3OrdVVpaZLyLrBvVxtXX168qV2bfjDe4qxIwBpItgCAAAAAFsj2AIAALbn6rGETu3aGkpJcYG+dtP52v7ty/W9z85VxRy/6ZJgMwRbAAAAAGBrBFsAAMARXN255YauraGc2c3VtOWIWrv6TJcFi/IV5ukXd5Zr0YyxpksBAAAAAKSHYAsAADiGazu33Na1NZTBbq4/fHWZfvg/F2rF5XTl4IPKZozVb++9iGALAAAAAOyLYAsAADiKazu33Ny1NZRrFxfr2sXF+tpNs9W09YiatnSpaesR02XBoNXVpVpdFTRdBgAAAAAgfQRbAADAcVwZbq2uLqVraxi+Qs+psYWx3gRBlwuVzRirRz87l24tAAAAALA3gi0AAOBIrgu3fIV5Wnn1dNNl2AZBl7v4CvO0cvl0urUAAAAAwP4ItgAAgGO5LtxauXy6fIUe02XY0plB16vvRtW09Ygat3Qp1vu+6fIwSisun6yv3TSbnw8AAAAAsD+CLQAA4GiuCrfo2socX6Hn1I6u794ibTtwXI1bu9S05YjCB46bLg8pWHH5ZK2uYlQnAAAAADgEwRYAAHA8V4VbdG1lz6IZY7Voxlitrgp+oKur5Z2oWrv6TJeHMwSLC3Tz5VO08mp+JgAAAADAQQi2AACAK7gm3KJrK3dO7+qSpLauPrW8G9Wr70YVajtOZ5dBVYsnaMXlk0/9vwEAAAAAOAbBFgAAcA3XhFt0bZlTUlxwaleXJMV6EwofOKaWd2N69Z2oQgeOs7Mri6oWT1DVhcWqWjyBnwEAAAAAcCaCLQAA4Cp56jddQvbRtWUtvkKPrpjj1xVz/FJVUNJAd1f4wHGF2o7r1Xejaj0SZ5xhmspmjFXFXL8q5g78GRNoAQAAABbigs/gyLmBYOv7BFsAAMA9XNG5RdeW9ZUUF6ikuODkuLyBwGuwwyvcdlzRk3u8CL0+rGKu/1SgRZgFAAAAAK5CsAUAAFzJ8eGWrzBPK5fTtWVHH+jwkjQYeknStgPHFe19/1TwFT452tCp4ZevME/lJWMVLC5QSbFX5SVjVTZjrEqKC0yXBgAAAAAwg2ALAAC4luPDLbq2nGnRjLGSdFrw9UGDXV+S1NrVp9YjfSf/+fsKHzh+6r+L9nzw73MtWFyg4ATvqb8f/P34Cz0qKxn+9wgAAAAAcC2CLQAA4GqODrfo2nKvwa4vSboijV/f1tWn1q54RmsqmzGOoBUAAAAAMFoEWwAAwPUcHW7RtYV0De4AAwAAAADAQgi2AAAAJJ1ruoBsoWsLAAAAAAA4CMEWAADASXlSv+kasmLl8ml0bQEAAAAALMaZn8GRdSeDrSsJtgAAAOTQzi26tgAAAAAAgEMQbAEAAJzBkeHWwK4tR68TAwAAAAAAzkewBQAAcBaOC7fo2gIAAAAAAA5AsAUAADAEx4VbdG0BAAAAAACbI9gCAAAYhqPCLbq2AAAAAACAzRFsAQAAjMBR4RZdWwAAAAAAwMYItgAAAJKQd06/6RIyw1eYp9vp2gIAAAAAWJhTPoMjKzZLWn5gLcEWAADASBzTubXyY9M1nq4tAAAAAABgPwRbAAAAKXBEuMWuLQAAAAAAYFMEWwAAAClyRLhF1xYAAAAAALAhgi0AAIA02D7comsLAAAAAADYEMEWAABAmmwfbtG1BQAAAAAAbIZgCwAAYBRsHW7RtQUAAAAAAGyGYAsAAGCUbB1u0bUFAAAAAABshGALAAAgA2wbbtG1BQAAAAAAbIRgCwAAIENsG27RtQUAAAAAAGyCYAsAACCD8tRvuoTU0bUFAAAAALCd/pMPuM1AsPUYwRYAAECm2LJzi64tAAAAAABgAwRbAAAAWWC7cMtXmKeVH6NrCwAAAAAAWBrBFgAAQJbk2W0mAl1bAAAAAAD7stdncKTtZLB1FcEWAABAFtiqc4uuLQAAAAAAYHEEWwAAAFlmq3Br5cdm0LUFAAAAAACsimALAAAgB2wTbgUneOnaAgAAAAAAVkWwBQAAkCO2CbdW15TStQUAAAAAAKyIYAsAACCHbBFuBSd49eeXTzFdBgAASNE/v3hA13z7Df3ziwfU1tVnuhwgLTx3AQAjINgCAADIMVu0Qq2uKTVdAgAASMPTrx1UuO24vvrMbn31md0qKxmrmz8yRRVzi7RoxljT5QFD2nbguJo2H1HTlsMKtx3Xb/73JTxnAQBnQ7AFAABggOXDLbq2AACwp7auPoXbjn/gnw0GXdLAe3zVhRN07YUTdMVcv4kSgQ/4jy1H9Oo7UTVtOaLWI/EP/LunXzuov/v0bEOVAQAsimALAADAEMuHW3RtAQBgT01bDg/77///9u4nNs77PPD442KAUIqtECYBCwiJ7GFNo/EC5i0aHXbzZ2Fpuzn0IPEaoHHvtXKLCziH9FjuqY13be/GOZJHawEySBz0EFIqYIQjZASLdgG5M0IpLEelSEqk0Sm4h+FQFEVS/DPvvP8+H8CQAcqcHwzOcPh++Txvo7UZ7//uXrz/u3tx7kwlLr76jbj8xlBUXx2MkZe/1qdTUmbNB1/F/OcrMVNrxdznD2N1o33g35251RK3ANhN2AIASFGm45apLQDIr6kb94/8d1c32jFzqxUzt1oREfH6yNfj4quDprroqbWNdsx9/vDA6azDNFqbcfveI6sJAYgQtgAAUleJrbSPcLCf/DdTWwCQR80HX0W98ej5f/EA9cajqDcexfuf3IuIiOqr34iLY4NRffUbYhfHMr8ds+YWV2L+84en+lxT8/fjZ1dMbwGnlOGfwTmSTtj6O2ELACBNmZ3cGh0aiKsXTG0BQB7N1A5fSXhc3UDRJXaxn53JrMWH8cfm+qlj1l4zt1riFkC5CVsAABmR2bjlXlsAkF/HWUl4EntjV3eN4esjX4/qmHt2lcXte4+i3liPuc8fRr25HvXmyacFj6LR2ozmg698fQGUk7AFAJAhmYxbprYAIL+aD75KPDLsVW8+euoxz52pdILXWCd4vT7yoiCRc92QVW8+SmQq66hmasvx1ve+mcpjA5AaYQsAIJbR4qIAABdySURBVGMyGbdMbQFAfvV6JeFJrG60n5nu2h28Rl/+WowMDVhpmFHz25NYzdZXqYas/UzduC9uAZSLsAUAkEGZi1umtgAg35JeSXhS+wWviM5Kw3NnKqJXn61ttOOPzUdRb67H6sa/x9ziSjQffBWN1mbaRztUvfnIakKA8hC2AAAyKnNxy9QWAOTX2ka77ysJT6t73r3RqzvpNTo0EKNDAzsR7D+NfD1eOpO5t1CZ1I1VzdZmNB58FfXmejx83M7UJNZJWE0IUArCFgBAhmXqyoypLQDIt5laK+0j9MxBk15d3djVjV8RsTPxNTo0UPjJntv3HsXDx+2IeBIGu/EqDxNYp2E1IUDhCVsAABmXqbhlagsA8m3mVnHi1vMcNPG1VzeCRcRTIWzvx7r6uRKxuxpwt+6UVVc3WEVE4aPVUdWbj2Jto22CD6CYhC0AgBzIzE/kprYAIN/WNtqFmtzqld1rGk+7jq+7KvE48r4CMKtmai3vXQGKR9gCAMiJSsRW2meICFNbAJB3nbCVjfcVRbW68W8x/7nrbVkwc2tZ3AJOyPfKjNoOW//ZN1oAgBz4k7QPEGFqCwCKYObWctpHgL6ZqbVibaOd9jEA6A1hCwAgZzIRt37yZ99K+wgAwClYSUgZ+ZoHKARhCwAghyovpLwRwdQWAOTfTK0Vab+ngH6brVlNCBzPCxG+X2ZLLSK+2/x7YQsAIG9Sn9y69t9NbQFA3s3WrCSkfExuAeSasAUAkGOpxi1TWwCQf1YSUmazt3ztA+SQsAUAkHOpxi1TWwCQf8IWZTa7YGoRIGeELQCAAkgtbpnaAoBisJKQMhN3AXJF2AIAKIjU4papLQDIPysJKbvVjbbVhAD5IGwBABRIKnHL1BYAFIOwBVYTAuSAsAUAUDCpxC1TWwBQDFYSgsgLkHHCFgBAAfU9bpnaAoBisJIQOlY32nG7+SjtYwDwLGELAKCg+h63TG0BQDEIW/DE1I2ltI8AwNOELQCAAutr3DK1BQDFYSUhPDEr9gJkibAFAFBwfY1bprYAoBisJISnNVqbVhMCZIOwBQBQAn2LW6a2AKA45j5/mPYRIHOsJgRInbAFAFASfYtbprYAoDhmF6wkhL2sJgRIlbAFAFAildhK/kFMbQFAscwstKIf7yEgTxrLm9F8sBkjLw+kfRQgy3z/TEInbP1C2AIAKIu+TG5d+6GpLYB+aj7YTPsIFNhsrRWrG+20jwGZNLtgegugz4QtAIASSjxumdoC6K/pG/djftH9kEjObM1KQjjI1Pz9tI8AUCbCFgBASSUet/7Hj15L+iEA2HbtV3fi3al/istvDKV9FApsxmQKHKjeXDc9C9AfwhYAQIklHrfmFr3PBEja2kY73nqvHlPz9+Py+FC8dKaS9pEoKCsJ4fmsJgRInLAFAFByicetyetfRvWv/zGmb1jRApCE5oPNuDJ5K2ZqnYupE9XzKZ+IIrOSEJ7PakKARAlbAABEJWIr8QdptDbi7Y8+i6n5pfjJD78VF14dTPwxAcrgxucr8Re/qO9M0owODcSFV7+R8qkospmF5ejHewfIs3pzLdY22qZogX1she+jp7Idtv6LsAUAUHKJT27tNr+4Elcma/HWe3X3IgA4pQ8/uRdXJmtPrYi7amqLBM3Wlq0khCPqTtMC0DNfhrAFAMC2vsatrpnaclx452Zc+9UdkQvgmNY22nHtV3fi3ekvnvnYRPWVFE5EWcy6WA9HNrtghSdADz2MiD8XtgAA6EolbnVNzS/Fmz//NCb/75ex5jfBAZ7rdnM9rkzWYmp+6ZmPVccGY+TlgRRORVnMuFgPRzZTW/b+FqA3HkZnYmsh7YMAAJAdqcatiIjVjXZMXr8b33nnpsgFcIjpG/fjymQt6s31fT8+YSUhCbKSEI7PakKAUxO2AADYV+pxq2t35Jq+cT/t4wBkRncN4dsffXZgXDh3phKX3xjq88koEysJ4fisJgQ4FWELAIADZSZuda1utOPtjz6L6l+LXACHrSHc7fL4cLx0ptKnU1FGVhLC8c3UPG8ATkjYAgDgUJXYSvsI+2ssb8bbv/wsJj++G9d++B/iavWVtI8E0FcffnIv/vb63Vh9/PxVcBMXvEaSnNna8pG+DoFnzdaW49Ibw2kfA8iKre1/OEwnbL0nbAEAcLDMTW7t1Whtdia53rkZ0/MmuYDiW9tox1vv1ePdqS+OFBRGhwbiwthgH05GWc0uWEkIJ+X5A3AswhYAAEeS+bjVJXIBZTBbW47vvHPzWCvgrlbPJ3gisFoNTsPzB+DIhC0AAI4sN3Gra3fk+vCTe7G2YU0SkH9rG+249tGd+PEv6sde/zZx0UpCknNjccVKQjiF1cftmBW4AJ5H2AIA4FhyF7e6Gq3NeHfqi/jOOzdj8vqXIheQWzcWV+LNn38aU/NLx/5vq2ODMfLyQAKngo6ZmpVqcFpWEwIcStgCAODYchu3ulYft2Py+t2dyNV8sJn2kQCOpDutdWWyFo3WyV67JqwkJGGzx1iRCezPakKAAwlbAACcSO7jVlc3cl346c249tEdkQvItO69tU4yrdV17mwlLo8P9fBU8LTbzfUTh1fgidXH7bjdXE/7GABZI2wBAHBihYlbu03NL8WFn96Mt96rx43FlbSPA7Cj+WAz3nqvfqJ7a+11+Y3heOlMpUcng2dNzd9P+whQGJ5PAE8RtgAAOJVCxq2umYXluDJZi0t/82lMu6AApOzDT+7Fmz//NGZ6tOZtovpKTz4PHMRKQugdzyeAHcIWAACnVui41VVvrMfbH30W1e37cq1tnG5aAuA4biyuxKW/+TTenfri1NNaXaNDA3FhbLAnnwv2YyUh9FajtWk1IYCwBQBAj5QibnU1Wpsxef1u/Onbv49rH91xgQFI1NpGO659dCeuTNai3ujt683V6vmefj7Yywo16D3PK6DkhC0AAHqmVHFrt6n5pXjz55/G1cmalYVAz01e/zK+887NmJpfSuTzT1y0kpBkWaEGved5BZSYsAUAQE9V0j5A2uYXV2J+cSUmr9+Nq9XzMXHxlRh5eSDtYwE5NVtbjp9N/VOi69yqY4Nep0iUlYSQjEZrM5oPNr2GA2UjbAEA0HOlndzaq7uy8MJPb8Zb79VjtuY3a4Gju7G4Elcna/HjX9QTjwITVhKSMKvTIDmzC620jwDQT8IWAACJKP3k1n5mFpZjZmE5RocGTHMBh2o+2IzJj79MbP3gXufOVuLy+FBfHovysjoNkjM1vxQ//v430z4GQD8IWwAAJEbcOkR3mmvy+t24PD4cV6uvxKU3htM+FpAB/Y5aXZffGI6XznjpJjlWEkKy6o11qwmBMhC2AABIlCukR7R7muvS+HC89YNvuigBJbS20Y73f3svPvikGauP231//InqK31/TMrFSkJI3uxCy/QWUGTCFgAAiau8sLWV9hlypbm8ER/+phEf/qYRr4++GD/+wUhcHjdJAUW3ttGOD37bjA9++yRqvdDnM4wMDcSFscE+PyplM/uH/xfeG0Cypuf+RdyCEiv499mHEfHdxv/8rrAFAECiFJlTqDfW49ovP4trEXH14vm4PD4cb1pbCIWyX9RKy8TF86k+PsV3u7keTSsJIXH1xnqsbbT9chRQNMIWAAB94yfqHpmeW4rpuaU4d7YSE9XzcfXi+fj2yItpHws4oeb2PfdmF5ZTj1pdV6viFsmanuvvPeSgzGYWlr2uA0UibAEA0FfiVo+tPn4y5TEyNBCXx4eFLsiRbtTK2kX+6thgjAy5zx/JmllYTvsIUBqz4hZQHMIWAAB9J24lqNna3Aldr4++GFer5+PS+LAL1JBBNxZXYvLjuzG/uJL2UfZ11UpCEmYlIfTX7MKy1YRAEQhbAACkwk/TfVJvrEe98UX8bOoLoQsyYm2jHTMLyzH58d1MX9Q/d7YSl8fdz49kzZragr6zmhDIOWELAIDUiFsp2Bu6qmODVhdCHzVbm/Hhb5sxNb+UmftpHebS+LDf7Cdx4hb0n9WEQI4JWwAApMrV0pR1Qtf6U/foujQ+HBfGBtM+GhTOr2vL8cFvmpldPXiQCRc+SViztRn1xnrax4DSEZWBnBK2AABInbiVIbvv0XXubCUujQ/H5fHhqI4NmtqAE+pOac0sLGd69eBBRoYGxG4S5wI7pOfXteV48w2rZ4HcELYAAMgExSSjVh+3Y3puKabnliKis5asOjboPl1wBN17aU3PLeVuSmuviYumtkje9PxS2keA0ppZELeA3BC2AADIDHErJ2YXlmN2YTl+NvXFzvrC6muDLobALr+uLcfM9nMlD/fSOgr3YiFpVhJCumYXliN+lPYpAJ5L2AIAIFPErRzavb4wInYmuqqvDca3R15M+XTQX7ebnXvWFSlodVXHBk1qkjgrCSFdq4/bVhMCWSdsAQCQOeJWAcwvruysXuveq6s6NujCOIV1u7ke03NLub2P1lFdtZKQPrCSENJnNSGQYcIWAACZVImttI9AL60+asf075di+vedi5UjQwNRfW2w84/YRY79eqF4KwcPc+5sJS6Pu9BJspqtzaj/s5WEkLbZP1hNCKWSn5/BO2HrfwlbAABkj8mtgmu2NmN6bimm58Qu8mVto92JWX9YjvnFlVIErd0ujQ/HS2e8RJMsKwkhG1Yft+N2c916aSBLhC0AADLNldOS2Ru7zp2tdFYYvjYYr4++GBfGBlM+IWV2Y3El5u+sxOzCctQb5Z4mmbCSkD7ofi8A0jc9txTvTvzHtI8BECFsAQCQAy+M/OXv8rMUgb7ohq5vj75ouotE3W6ux/ydTtAq43TWYaqvCc0kb/7OStpHALadO1uJ10dNbkHRrT5uZ/2XuIQtAAByQdziuboXW6pjT6KX4MVJiFkAAJBZwhYAALkhbnEie4PXyPCA+0TwjO6awXpjXcwCAIDsErYAAMgVcYueqr7WWWM4OjSws97wpTNu7VYGNxY7EaveWI/b238CAACZJ2wBAJA7qgM99dT9Wz7u/NGd8todvUaGBqw2zKm1jfZOxBKyAAAg14QtAAByyeQWqXp99MU4d7YS1bHBnQh27mzFisMM2B2xmq3NnX+3WhAAAApB2AIAILfELTJrZGggRocHdia+RoY7f4pfvdNsbUaztRmN1mY0lzsBa3Wj/fQEHgAAUDTCFgAAuWYtIZnVDS+Hqb42GBGxE8AinkyDRURcGBtM9pAZdrvZmbJafdzeWRvYjVeN5ef/vwUAAApJ2AIAIPfELXLtOBNGu6PXuTOdFYhd3ZWIe6Udx7qBare9qwHnF1cO/BgAAMAuwhYAAIVgLSGcQndy7LhMTgEAAH0mbAEAUBiVCG0LTmr+zr+mfQQAAIDn2Q5b3xO2AAAohD9J+wAAAABAYoQtAAAKR9wCAACAYhK2AAAoJHELAAAAikfYAgCgsCpuuQUAAACF0glb7wtbAAAUk8ktAAAAKA5hCwCAwhO3AAAAoBiELQAASkHcAgAAgPwTtgAAKA1xCwAAAPJN2AIAoFTELQAAAMgvYQsAgNIRtwAAACCfhC0AAEpJ3AIAAID8EbYAACgtcQsAAADyRdgCAKDUxC0AAADID2ELAIDSE7cAAAAgH4QtAAAIcQsAAADyQNgCAIBt4hYAAABkm7AFAAC7iFsAAACQXcIWAADsIW4BAABANglbAACwD3ELAAAAskfYAgCAA4hbAAAAkC3CFgAAHELcAgAAgOwQtgAA4DnELQAAAMgGYQsAAI5A3AIAAID0CVsAAHBElRe20j4CAAAAlNrDiPjuP38gbAEAwFGY3AIAAID0CFsAAHBM4hYAAACkQ9gCAIATELcAAACg/4QtAAA4IXELAAAA+kvYAgCAUxC3AAAAoH+ELQAAOKVKxFbaZwAAAIAy2A5b3xe2AADgFExuAQAAQPKELQAA6BFxCwAAAJIlbAEAQA+JWwAAAJAcYQsAAHpM3AIAAIBkCFsAAJAAcQsAAAB6T9gCAICEiFsAAADQW8IWAAAkSNwCAACA3hG2AAAgYeIWAAAA9IawBQAAfSBuAQAAwOkJWwAA0CeV2Er7CAAAAJBrnbD1obAFAAD9YHILAAAATk7YAgCAPhO3AAAA4GSELQAASIG4BQAAAMcnbAEAQErELQAAADgeYQsAAFIkbgEAAMDRCVsAAJAycQsAAACORtgCAIAMELcAAADg+YQtAADICHELAAAADidsAQBAhohbAAAAcDBhCwAAMkbcAgAAgP0JWwAAkEHiFgAAADxL2AIAgIwStwAAAOBpwhYAAGSYuAUAAABPCFsAAJBx4hYAAAB0CFsAAJAD4hYAAAAIWwAAkBviFgAAAGUnbAEAQI6IWwAAAJSZsAUAADkjbgEAAFBWwhYAAOSQuAUAAEAZCVsAAJBT4hYAAABlI2wBAECOiVsAAACUibAFAAA5J24BAABQFsIWAAAUgLgFAABAGQhbAABQEJXY2kr7DAAAAJCkTtj63z8QtgAAoABMbgEAAFBkwhYAABSMuAUAAEBRCVsAAFBA4hYAAABFJGwBAEBBiVsAAAAUjbAFAAAFJm4BAABQJMIWAAAUnLgFAABAUQhbAABQAuIWAAAARSBsAQBASYhbAAAA5J2wBQAAJSJuAQAAkGfCFgAAlIy4BQAAQF4JWwAAUELiFgAAAHkkbAEAQEmJWwAAAOSNsAUAACUmbgEAAJAnwhYAAJScuAUAAEBeCFsAAIC4BQAAQC4IWwAAQESIWwAAAGSfsAUAAOwQtwAAAMgyYQsAAHiKuAUAAEBWCVsAAMAzxC0AAACySNgCAAD2JW4BAACQNcIWAABwIHELAACALBG2AACAQ4lbAAAAZIWwBQAAPFflha20jwAAAACdsPXl/xG2AACAw5ncAgAAIG3CFgAAcGTiFgAAAGkStgAAgGMRtwAAAEiLsAUAABybuAUAAEAahC0AAOBExC0AAAD6TdgCAABOTNwCAACgn4QtAADgVMQtAAAA+kXYAgAATk3cAgAAoB+ELQAAoCfELQAAAJImbAEAAD0jbgEAAJAkYQsAAOgpcQsAAICkCFsAAEDPiVsAAAAkQdgCAAASIW4BAADQa8IWAACQGHELAACAXhK2AACARIlbAAAA9IqwBQAAJE7cAgAAoBeELQAAoC/ELQAAAE5L2AIAAPpG3AIAAOA0hC0AAKCvxC0AAABOStgCAAD6TtwCAADgJIQtAAAgFeIWAAAAxyVsAQAAqRG3AAAAOA5hCwAASFUlYivtMwAAAJAP22HrvwpbAABAakxuAQAAcBTCFgAAkAniFgAAAM8jbAEAAJkhbgEAAHAYYQsAAMgUcQsAAICDCFsAAEDmiFsAAADsR9gCAAAySdwCAABgL2ELAADILHELAACA3YQtAAAg08QtAAAAuoQtAAAg88QtAAAAIoQtAAAgJyqxlfYRAAAASFknbP1S2AIAALLP5BYAAEC5CVsAAECuiFsAAADlJWwBAAC5I24BAACUk7AFAADkkrgFAABQPsIWAACQW+IWAABAuQhbAABArolbAAAA5SFsAQAAuSduAQAAlIOwBQAAFIK4BQAAUHzCFgAAUBjiFgAAQLEJWwAAQKGIWwAAAMUlbAEAAIUjbgEAABSTsAUAABSSuAUAAFA8whYAAFBY4hYAAECxCFsAAEChiVsAAADFIWwBAACFJ24BAAAUg7AFAACUgrgFAACQf8IWAABQGuIWAABAvglbAABAqYhbAAAA+SVsAQAApSNuAQAA5JOwBQAAlJK4BQAAkD/CFgAAUFriFgAAQL4IWwAAQKmJWwAAAPkhbAEAAKUnbgEAAOSDsAUAABDiFgAAQB4IWwAAANvELQAAgGwTtgAAAHYRtwAAALJL2AIAANhD3AIAAMgmYQsAAGAf4hYAAED2CFsAAAAHELcAAACyRdgCAAA4hLgFAACQHcIWAADAc4hbAAAA2SBsAQAAHIG4BQAAkD5hCwAA4IjELQAAgHQJWwAAAMdQiYh/SPsQAAAAJfZXwhYAAMDR/X9v3RUxC11MjwAAAABJRU5ErkJggg==" parent="VYL1K3xwnHBBIEN77Z_S-30" vertex="1">
                    <mxGeometry x="17.610000000000014" y="15" width="40.4" height="20" as="geometry"/>
                </mxCell>
                <mxCell id="VYL1K3xwnHBBIEN77Z_S-47" style="edgeStyle=orthogonalEdgeStyle;rounded=0;orthogonalLoop=1;jettySize=auto;html=1;exitX=0.5;exitY=1;exitDx=0;exitDy=0;" parent="1" edge="1">
                    <mxGeometry relative="1" as="geometry">
                        <mxPoint x="334.9899999999998" y="549.1700000000001" as="sourcePoint"/>
                        <mxPoint x="334.9899999999998" y="549.1700000000001" as="targetPoint"/>
                    </mxGeometry>
                </mxCell>
                <mxCell id="VYL1K3xwnHBBIEN77Z_S-48" style="edgeStyle=orthogonalEdgeStyle;rounded=0;jumpSize=0;orthogonalLoop=1;jettySize=auto;html=1;exitX=0.5;exitY=1;exitDx=0;exitDy=0;startArrow=blockThin;startFill=1;endArrow=blockThin;endFill=1;strokeColor=#107E3E;strokeWidth=1;fontSize=16;" parent="1" source="VYL1K3xwnHBBIEN77Z_S-30" target="VYL1K3xwnHBBIEN77Z_S-30" edge="1">
                    <mxGeometry relative="1" as="geometry"/>
                </mxCell>
                <mxCell id="VYL1K3xwnHBBIEN77Z_S-49" value="&lt;p style=&quot;margin-top: 0pt ; margin-bottom: 0pt ; margin-left: 0in ; direction: ltr ; unicode-bidi: embed ; word-break: normal ; font-size: 11px&quot;&gt;&lt;br&gt;&lt;/p&gt;" style="rounded=0;whiteSpace=wrap;html=1;strokeWidth=1;fillColor=none;align=left;verticalAlign=top;fontSize=11;fontFamily=Arial;container=1;recursiveResize=0;collapsible=0;fontColor=#595959;dashed=1;strokeColor=#595959;spacingLeft=0;" parent="1" vertex="1">
                    <mxGeometry x="-40.06" y="90" width="136" height="280" as="geometry"/>
                </mxCell>
                <mxCell id="VYL1K3xwnHBBIEN77Z_S-50" value="" style="shape=image;verticalLabelPosition=bottom;verticalAlign=top;imageAspect=0;aspect=fixed;image=data:image/svg+xml,PHN2ZyB4bWxucz0iaHR0cDovL3d3dy53My5vcmcvMjAwMC9zdmciIHZpZXdCb3g9IjAgMCA0OCA0MiI+PGRlZnM+PHN0eWxlPi5jbHMtMXtmaWxsOiM1OTU5NTk7fTwvc3R5bGU+PC9kZWZzPjx0aXRsZT5sYXB0b3A8L3RpdGxlPjxnIGlkPSJMYXllcl8yIiBkYXRhLW5hbWU9IkxheWVyIDIiPjxnIGlkPSJsYXB0b3AiPjxwYXRoIGNsYXNzPSJjbHMtMSIgZD0iTTQ4LDM4LjUzMUEzLjUyMSwzLjUyMSwwLDAsMSw0NC41MzIsNDJIMy40NjlhMy4zMzIsMy4zMzIsMCwwLDEtMi40MzgtMS4wMzFBMy4zMzIsMy4zMzIsMCwwLDEsMCwzOC41MzFMNi44NDQsMzBINDEuMTU3Wk05LDI3YTIuODMzLDIuODMzLDAsMCwxLTIuMTU2LS44OTFBMi45NjEsMi45NjEsMCwwLDEsNiwyNFYzQTIuODg5LDIuODg5LDAsMCwxLDksMEgzOWEyLjk2NiwyLjk2NiwwLDAsMSwyLjExLjg0NEEyLjgzNywyLjgzNywwLDAsMSw0MiwzVjI0YTMuMDQxLDMuMDQxLDAsMCwxLTMsM1ptMC0zSDM5VjNIOVpNMzAsMzlsLTMtM0gyMWwtMywzWiIvPjwvZz48L2c+PC9zdmc+;dashed=1;labelBackgroundColor=none;strokeColor=#0A6ED1;strokeWidth=1;fillColor=#107E3E;fontSize=16;" parent="VYL1K3xwnHBBIEN77Z_S-49" vertex="1">
                    <mxGeometry x="37" y="40" width="48" height="42" as="geometry"/>
                </mxCell>
                <mxCell id="FreaL8PeBdfRYpkxUsp9-12" value="" style="shape=image;verticalLabelPosition=bottom;verticalAlign=top;imageAspect=0;aspect=fixed;image=data:image/svg+xml,PHN2ZyB4bWxucz0iaHR0cDovL3d3dy53My5vcmcvMjAwMC9zdmciIHZpZXdCb3g9IjAgMCAzMCA0OCI+PGRlZnM+PHN0eWxlPi5jbHMtMXtmaWxsOiM1OTU5NTk7fTwvc3R5bGU+PC9kZWZzPjx0aXRsZT5pcGhvbmU8L3RpdGxlPjxnIGlkPSJMYXllcl8yIiBkYXRhLW5hbWU9IkxheWVyIDIiPjxnIGlkPSJpcGhvbmUiPjxwYXRoIGNsYXNzPSJjbHMtMSIgZD0iTTI0LDBhNS43NzEsNS43NzEsMCwwLDEsNC4yMTksMS43ODFBNS43NjksNS43NjksMCwwLDEsMzAsNlY0MmE1LjcyNSw1LjcyNSwwLDAsMS0xLjc4MSw0LjI2NkE1Ljg0NCw1Ljg0NCwwLDAsMSwyNCw0OEg2YTUuODQyLDUuODQyLDAsMCwxLTQuMjE5LTEuNzM0QTUuNzI1LDUuNzI1LDAsMCwxLDAsNDJWNkE1Ljc2OSw1Ljc2OSwwLDAsMSwxLjc4MSwxLjc4MSw1Ljc3LDUuNzcsMCwwLDEsNiwwWm0zLDZIM1YzOUgyN1pNMTUsNDVhMi4yNTcsMi4yNTcsMCwwLDAsMS41OTQtLjYwOSwyLjEzNywyLjEzNywwLDAsMCwuNjU2LTEuNjQxLDIuMjUsMi4yNSwwLDEsMC00LjUsMCwyLjEzMywyLjEzMywwLDAsMCwuNjU2LDEuNjQxQTIuMjUzLDIuMjUzLDAsMCwwLDE1LDQ1WiIvPjwvZz48L2c+PC9zdmc+;strokeColor=#AF45ED;fontFamily=Helvetica;fontSize=14;fontColor=#000000;fillColor=#F694C1;" parent="VYL1K3xwnHBBIEN77Z_S-49" vertex="1">
                    <mxGeometry x="46" y="182" width="30" height="48" as="geometry"/>
                </mxCell>
                <mxCell id="FreaL8PeBdfRYpkxUsp9-23" value="Web Client" style="text;html=1;resizable=0;autosize=1;align=center;verticalAlign=middle;points=[];fillColor=none;strokeColor=none;rounded=0;shadow=1;fontFamily=Helvetica;fontSize=15;fontStyle=1;fontColor=#000000;" parent="VYL1K3xwnHBBIEN77Z_S-49" vertex="1">
                    <mxGeometry x="11" y="90" width="100" height="30" as="geometry"/>
                </mxCell>
                <mxCell id="VYL1K3xwnHBBIEN77Z_S-52" value="" style="endArrow=block;html=1;strokeWidth=2;fontSize=16;fontColor=#595959;strokeColor=#595959;endFill=1;" parent="1" edge="1">
                    <mxGeometry width="50" height="50" relative="1" as="geometry">
                        <mxPoint x="20.450000000000003" y="50" as="sourcePoint"/>
                        <mxPoint x="20.440000000000012" y="90" as="targetPoint"/>
                        <Array as="points">
                            <mxPoint x="20.450000000000003" y="90"/>
                        </Array>
                    </mxGeometry>
                </mxCell>
                <mxCell id="VYL1K3xwnHBBIEN77Z_S-53" style="rounded=0;orthogonalLoop=1;jettySize=auto;html=1;fontSize=12;fontColor=#808080;startArrow=block;startFill=1;endArrow=none;endFill=0;strokeWidth=2;strokeColor=#595959;" parent="1" edge="1">
                    <mxGeometry relative="1" as="geometry">
                        <mxPoint x="100" y="153" as="targetPoint"/>
                        <mxPoint x="210" y="153" as="sourcePoint"/>
                        <Array as="points"/>
                    </mxGeometry>
                </mxCell>
                <mxCell id="VYL1K3xwnHBBIEN77Z_S-55" value="" style="shape=image;verticalLabelPosition=bottom;labelBackgroundColor=none;verticalAlign=middle;aspect=fixed;imageAspect=0;image=data:image/svg+xml,PHN2ZyB4bWxucz0iaHR0cDovL3d3dy53My5vcmcvMjAwMC9zdmciIHZpZXdCb3g9IjAgMCAzNiA0OCI+PGRlZnM+PHN0eWxlPi5jbHMtMXtmaWxsOiM1OTU5NTk7fTwvc3R5bGU+PC9kZWZzPjx0aXRsZT5wZXJzb24tcGxhY2Vob2xkZXI8L3RpdGxlPjxnIGlkPSJMYXllcl8yIiBkYXRhLW5hbWU9IkxheWVyIDIiPjxnIGlkPSJwZXJzb24tcGxhY2Vob2xkZXIiPjxwYXRoIGNsYXNzPSJjbHMtMSIgZD0iTTI0LDI0YTExLjczMywxMS43MzMsMCwwLDEsNC42NDEuOTM4LDExLjk3LDExLjk3LDAsMCwxLDYuNDIxLDYuNDIxQTExLjczNywxMS43MzcsMCwwLDEsMzYsMzZWNDhIMFYzNmExMS43MTksMTEuNzE5LDAsMCwxLC45MzgtNC42NDEsMTIuMDQ2LDEyLjA0NiwwLDAsMSwyLjU3OC0zLjg0MywxMi4xNzgsMTIuMTc4LDAsMCwxLDMuOC0yLjU3OEExMS42MzEsMTEuNjMxLDAsMCwxLDEyLDI0SDI0Wm05LDEyYTguOTYzLDguOTYzLDAsMCwwLTktOUgxMmE4LjY4Miw4LjY4MiwwLDAsMC02LjM3NSwyLjYyNUE4LjY4MSw4LjY4MSwwLDAsMCwzLDM2djlIMzNaTTMwLDEyYTExLjYzMSwxMS42MzEsMCwwLDEtLjkzOCw0LjY4OCwxMi4xNzgsMTIuMTc4LDAsMCwxLTIuNTc4LDMuOCwxMi4wMTksMTIuMDE5LDAsMCwxLTMuODQzLDIuNTc4LDEyLjA2NywxMi4wNjcsMCwwLDEtOS4zMjksMCwxMi4yMjQsMTIuMjI0LDAsMCwxLTYuMzc0LTYuMzc0QTExLjYxNCwxMS42MTQsMCwwLDEsNiwxMmExMS43MTksMTEuNzE5LDAsMCwxLC45MzgtNC42NDFBMTIuMDQ2LDEyLjA0NiwwLDAsMSw5LjUxNiwzLjUxNmExMi4xNzgsMTIuMTc4LDAsMCwxLDMuOC0yLjU3OCwxMi4wNjcsMTIuMDY3LDAsMCwxLDkuMzI5LDAsMTEuOTcsMTEuOTcsMCwwLDEsNi40MjEsNi40MjFBMTEuNzM3LDExLjczNywwLDAsMSwzMCwxMlpNMTgsMjFhOC42ODEsOC42ODEsMCwwLDAsNi4zNzUtMi42MjVBOC42ODIsOC42ODIsMCwwLDAsMjcsMTJhOC42ODUsOC42ODUsMCwwLDAtMi42MjUtNi4zNzVBOC42ODUsOC42ODUsMCwwLDAsMTgsM2E4LjY4Miw4LjY4MiwwLDAsMC02LjM3NSwyLjYyNUE4LjY4MSw4LjY4MSwwLDAsMCw5LDEyYTguNjc4LDguNjc4LDAsMCwwLDIuNjI1LDYuMzc1QTguNjc4LDguNjc4LDAsMCwwLDE4LDIxWiIvPjwvZz48L2c+PC9zdmc+;strokeColor=#053B70;strokeWidth=4;fillColor=#FFFFFF;fontColor=#595959;align=center;fontFamily=Arial;fontSize=15;fontStyle=1;spacingTop=10;" parent="1" vertex="1">
                    <mxGeometry x="10" y="10" width="21.88" height="30" as="geometry"/>
                </mxCell>
                <mxCell id="VYL1K3xwnHBBIEN77Z_S-56" value="&lt;p style=&quot;margin-top: 0pt; margin-bottom: 0pt; margin-left: 0in; direction: ltr; unicode-bidi: embed; word-break: normal; font-size: 15px;&quot;&gt;&lt;span style=&quot;font-size: 15px;&quot;&gt;On Premise Solutions&lt;/span&gt;&lt;br style=&quot;font-size: 15px;&quot;&gt;&lt;/p&gt;" style="rounded=0;whiteSpace=wrap;html=1;strokeColor=#595959;strokeWidth=2;fillColor=none;align=left;verticalAlign=top;fontSize=15;fontFamily=Helvetica;container=1;recursiveResize=0;collapsible=0;fontColor=#053B70;spacingLeft=7;fontStyle=1" parent="1" vertex="1">
                    <mxGeometry x="943.22" y="-40" width="253.01" height="70" as="geometry"/>
                </mxCell>
                <mxCell id="ZUMBWIuEBcWCyfkGFqT3-4" style="rounded=0;orthogonalLoop=1;jettySize=auto;html=1;fontSize=12;fontColor=#808080;startArrow=none;startFill=0;endArrow=block;endFill=1;strokeWidth=2;strokeColor=#595959;edgeStyle=orthogonalEdgeStyle;" parent="VYL1K3xwnHBBIEN77Z_S-56" source="VYL1K3xwnHBBIEN77Z_S-58" edge="1">
                    <mxGeometry relative="1" as="geometry">
                        <mxPoint x="-9" y="28" as="targetPoint"/>
                        <mxPoint x="-109" y="90" as="sourcePoint"/>
                        <Array as="points">
                            <mxPoint x="-102" y="28"/>
                        </Array>
                    </mxGeometry>
                </mxCell>
                <mxCell id="FreaL8PeBdfRYpkxUsp9-21" value="&lt;b style=&quot;font-size: 16px;&quot;&gt;SAP S/4HANA&lt;/b&gt;" style="text;html=1;strokeColor=none;fillColor=none;align=left;verticalAlign=middle;whiteSpace=wrap;rounded=0;fontColor=#000000;fontSize=16;fontFamily=Helvetica;" parent="VYL1K3xwnHBBIEN77Z_S-56" vertex="1">
                    <mxGeometry x="15.779999999999973" y="31" width="230" height="30" as="geometry"/>
                </mxCell>
                <mxCell id="MTYrH99qeqvaESYDXEw0-11" value="" style="group" parent="1" vertex="1" connectable="0">
                    <mxGeometry x="790" y="-40" width="125" height="102" as="geometry"/>
                </mxCell>
                <mxCell id="RneE3Btx3KQX9vBoYVd6-1" value="&lt;span style=&quot;color: rgb(5, 59, 112); font-family: Helvetica; font-size: 15px; font-style: normal; font-variant-ligatures: normal; font-variant-caps: normal; font-weight: 700; letter-spacing: normal; orphans: 2; text-indent: 0px; text-transform: none; widows: 2; word-spacing: 0px; -webkit-text-stroke-width: 0px; background-color: rgb(248, 249, 250); text-decoration-thickness: initial; text-decoration-style: initial; text-decoration-color: initial; float: none; display: inline !important;&quot;&gt;SAP Cloud Connector&lt;/span&gt;" style="text;whiteSpace=wrap;html=1;align=center;" parent="MTYrH99qeqvaESYDXEw0-11" vertex="1">
                    <mxGeometry x="-15" y="56" width="140" height="40" as="geometry"/>
                </mxCell>
                <mxCell id="VYL1K3xwnHBBIEN77Z_S-58" value="" style="shape=image;verticalLabelPosition=bottom;verticalAlign=top;imageAspect=0;aspect=fixed;image=data:image/svg+xml,PHN2ZyB4bWxucz0iaHR0cDovL3d3dy53My5vcmcvMjAwMC9zdmciIGlkPSJjbG91ZGNvbm5lY3RvciIgdmlld0JveD0iMCAwIDU2IDU2Ij48ZGVmcz48c3R5bGU+LmNscy0xe2ZpbGw6IzA3NGQ5Mjt9LmNscy0ye2ZpbGw6IzdmN2Y3Zjt9PC9zdHlsZT48L2RlZnM+PHRpdGxlPmNsb3VkY29ubmVjdG9yX2NpcmNsZTwvdGl0bGU+PHBhdGggY2xhc3M9ImNscy0xIiBkPSJNMjgsNkEyMiwyMiwwLDEsMSw2LDI4LDIyLjAyNSwyMi4wMjUsMCwwLDEsMjgsNm0wLTJBMjQsMjQsMCwxLDAsNTIsMjgsMjQsMjQsMCwwLDAsMjgsNFoiLz48cGF0aCBjbGFzcz0iY2xzLTIiIGQ9Ik0yMi44MTQsMTUuNzUxQTMuNzY4LDMuNzY4LDAsMCwxLDI2LjIzNSwxOC4xTDI3LDIwLjAyM2wxLjc2Ny0xLjA2NmEyLjI4NywyLjI4NywwLDAsMSwxLjE5Mi0uMzQ1LDIuMzI2LDIuMzI2LDAsMCwxLDIuMjgzLDEuOWwuMTY4Ljg5Mi44MjYuMzc3YTMuMTIxLDMuMTIxLDAsMCwxLDEuNzUsMi43MjRIMzYuNzVhNC44NzYsNC44NzYsMCwwLDAtMi43OTEtNC4zMTcsNC4wNDksNC4wNDksMCwwLDAtNi4xLTIuNzI1QTUuNTE0LDUuNTE0LDAsMCwwLDIyLjc4MiwxNGMtNi4wMzguMzItNS40LDYuMi01LjQsNi4yYTQuODkzLDQuODkzLDAsMCwwLDEuNTI0LDkuNTQ3SDIyLjc1di0xLjc1SDE4LjkwNmEzLjE0MywzLjE0MywwLDAsMS0uOTc3LTYuMTM0bDEuMzQ2LS40NDMtLjE1My0xLjQwOEE0LjczMyw0LjczMywwLDAsMSwyMCwxNi45MjQsMy44LDMuOCwwLDAsMSwyMi44MTQsMTUuNzUxWiIvPjxwYXRoIGNsYXNzPSJjbHMtMiIgZD0iTTQyLDQwLjkwNiw0MS4wMTYsNDIsMzcuNTcsMzguNjA5bC4xMS0uMTA5LTEuMDM5Ljk4NGE0LjU0Myw0LjU0MywwLDAsMS0zLjExOCwxLjM2OCw0LjExMiw0LjExMiwwLDAsMS0zLjA2Mi0xLjM2OGwtMS40MjItMS40MjItMi41MTYtMi40MDZBNC40NzQsNC40NzQsMCwwLDEsMjUuMSwzMi40YTQuMzA1LDQuMzA1LDAsMCwxLDEuNDIxLTMuMmwuNjU3LS43MTEtNC40My00LjUzOSwxLjE0OC0xLjIsNC40Myw0LjUzOS43MTEtLjcxMWEzLjYsMy42LDAsMCwxLDEuNDIyLTEuMDM5LDQuNTE2LDQuNTE2LDAsMCwxLDEuNy0uMzI4LDQuNzI1LDQuNzI1LDAsMCwxLDMuMjgyLDEuMzY3TDM3LjksMjkuMnYuMDU1TDM5LjMyLDMwLjY4YTQuMTczLDQuMTczLDAsMCwxLDAsNi4xNzlsLS42NTYuNjU3Wk0yNi44NTIsMzIuMzc1YTIuNzY4LDIuNzY4LDAsMCwwLC44NzUsMi4wMjNsMS4yNTcsMS4yNThMMzUuNDM4LDI5LjJsLTEuMzEzLTEuNDIyYTIuNjg0LDIuNjg0LDAsMCwwLTEuOTY5LS44MiwyLjI1MiwyLjI1MiwwLDAsMC0xLjguNzY2bC0yLjU3MSwyLjczNEEyLjM4LDIuMzgsMCwwLDAsMjYuODUyLDMyLjM3NVpNMzguMTE3LDM1LjZhMi4yODQsMi4yODQsMCwwLDAsLjgyMS0xLjgsMi41MzgsMi41MzgsMCwwLDAtLjc2Ni0xLjg1OWwtMS41MzEtMS40NzctNi4zNDQsNi40LDEuMzY3LDEuMzY4aC4wNTVsLjA1NC4wNTRhMi4yMjcsMi4yMjcsMCwwLDAsMS43NS44MjEsMi42MTQsMi42MTQsMCwwLDAsMS44Ni0uODc1WiIvPjwvc3ZnPg==;strokeColor=#053B70;imageBackground=none;" parent="MTYrH99qeqvaESYDXEw0-11" vertex="1">
                    <mxGeometry x="20.99000000000001" width="56" height="56" as="geometry"/>
                </mxCell>
                <mxCell id="A_n5J84A5oDOwfL37RB6-1" value="&lt;meta charset=&quot;utf-8&quot;&gt;&lt;span style=&quot;font-family: Arial; font-size: 15px; font-style: normal; font-variant-ligatures: normal; font-variant-caps: normal; font-weight: 700; letter-spacing: normal; orphans: 2; text-indent: 0px; text-transform: none; widows: 2; word-spacing: 0px; -webkit-text-stroke-width: 0px; background-color: rgb(248, 249, 250); text-decoration-thickness: initial; text-decoration-style: initial; text-decoration-color: initial; float: none; display: inline !important;&quot;&gt;User&lt;/span&gt;&lt;br style=&quot;padding: 0px; margin: 0px; font-family: Arial; font-size: 15px; font-style: normal; font-variant-ligatures: normal; font-variant-caps: normal; font-weight: 700; letter-spacing: normal; orphans: 2; text-indent: 0px; text-transform: none; widows: 2; word-spacing: 0px; -webkit-text-stroke-width: 0px; background-color: rgb(248, 249, 250); text-decoration-thickness: initial; text-decoration-style: initial; text-decoration-color: initial;&quot;&gt;&lt;span style=&quot;font-family: Arial; font-size: 15px; font-style: normal; font-variant-ligatures: normal; font-variant-caps: normal; font-weight: 700; letter-spacing: normal; orphans: 2; text-indent: 0px; text-transform: none; widows: 2; word-spacing: 0px; -webkit-text-stroke-width: 0px; background-color: rgb(248, 249, 250); text-decoration-thickness: initial; text-decoration-style: initial; text-decoration-color: initial; float: none; display: inline !important;&quot;&gt;(e.g. Task Approver)&lt;/span&gt;" style="text;whiteSpace=wrap;html=1;align=center;fontColor=#000000;" parent="1" vertex="1">
                    <mxGeometry x="-69.06" y="-40" width="180" height="50" as="geometry"/>
                </mxCell>
                <mxCell id="NhPh36MNo144oKWSy6oP-1" style="rounded=0;orthogonalLoop=1;jettySize=auto;html=1;fontSize=12;fontColor=#808080;startArrow=none;startFill=0;endArrow=block;endFill=1;strokeWidth=2;strokeColor=#595959;edgeStyle=orthogonalEdgeStyle;entryX=0;entryY=0.5;entryDx=0;entryDy=0;" parent="1" target="VYL1K3xwnHBBIEN77Z_S-58" edge="1">
                    <mxGeometry relative="1" as="geometry">
                        <mxPoint x="937" y="420" as="targetPoint"/>
                        <mxPoint x="620" y="50" as="sourcePoint"/>
                        <Array as="points">
                            <mxPoint x="620" y="50"/>
                            <mxPoint x="620" y="-12"/>
                        </Array>
                    </mxGeometry>
                </mxCell>
                <mxCell id="EkGQzPSZIQChfcrxLSec-7" value="SAP Mobile Start" style="text;html=1;resizable=0;autosize=1;align=center;verticalAlign=middle;points=[];fillColor=none;strokeColor=none;rounded=0;shadow=1;fontFamily=Helvetica;fontSize=15;fontStyle=1;fontColor=#000000;" parent="1" vertex="1">
                    <mxGeometry x="-42.06" y="330" width="140" height="30" as="geometry"/>
                </mxCell>
                <mxCell id="ufB8i1419627InaTjsPQ-2" style="rounded=0;orthogonalLoop=1;jettySize=auto;html=1;fontColor=#FFFFFF;endArrow=block;endFill=1;strokeWidth=2;labelBackgroundColor=#ffffff;endSize=6;startSize=6;jumpSize=3;strokeColor=#C0399F;startArrow=block;startFill=1;entryX=1;entryY=0.5;entryDx=0;entryDy=0;exitX=0.343;exitY=1.007;exitDx=0;exitDy=0;exitPerimeter=0;" parent="1" source="VYL1K3xwnHBBIEN77Z_S-56" target="VYL1K3xwnHBBIEN77Z_S-45" edge="1">
                    <mxGeometry relative="1" as="geometry">
                        <mxPoint x="590.0000000000002" y="350" as="targetPoint"/>
                        <mxPoint x="830" y="100" as="sourcePoint"/>
                        <Array as="points">
                            <mxPoint x="1030" y="330"/>
                        </Array>
                    </mxGeometry>
                </mxCell>
                <mxCell id="ufB8i1419627InaTjsPQ-9" value="&lt;font style=&quot;font-size: 11px;&quot;&gt;&lt;font style=&quot;font-size: 11px;&quot;&gt;trust&lt;/font&gt;&lt;br style=&quot;font-size: 11px;&quot;&gt;&lt;/font&gt;" style="rounded=1;whiteSpace=wrap;html=1;arcSize=50;fontColor=#FFFFFF;fontFamily=Helvetica;fontSize=11;strokeWidth=2;autosize=1;absoluteArcSize=1;labelBackgroundColor=none;fillColor=#C0399F;strokeColor=#C0399F;" parent="1" vertex="1">
                    <mxGeometry x="770" y="320" width="40" height="20" as="geometry"/>
                </mxCell>
            </root>
        </mxGraphModel>
    </diagram>
</mxfile>